%TF.GenerationSoftware,KiCad,Pcbnew,8.0.1*%
%TF.CreationDate,2024-09-23T04:48:19+08:00*%
%TF.ProjectId,bitaxeHex,62697461-7865-4486-9578-2e6b69636164,302*%
%TF.SameCoordinates,Original*%
%TF.FileFunction,Soldermask,Top*%
%TF.FilePolarity,Negative*%
%FSLAX46Y46*%
G04 Gerber Fmt 4.6, Leading zero omitted, Abs format (unit mm)*
G04 Created by KiCad (PCBNEW 8.0.1) date 2024-09-23 04:48:19*
%MOMM*%
%LPD*%
G01*
G04 APERTURE LIST*
G04 Aperture macros list*
%AMRoundRect*
0 Rectangle with rounded corners*
0 $1 Rounding radius*
0 $2 $3 $4 $5 $6 $7 $8 $9 X,Y pos of 4 corners*
0 Add a 4 corners polygon primitive as box body*
4,1,4,$2,$3,$4,$5,$6,$7,$8,$9,$2,$3,0*
0 Add four circle primitives for the rounded corners*
1,1,$1+$1,$2,$3*
1,1,$1+$1,$4,$5*
1,1,$1+$1,$6,$7*
1,1,$1+$1,$8,$9*
0 Add four rect primitives between the rounded corners*
20,1,$1+$1,$2,$3,$4,$5,0*
20,1,$1+$1,$4,$5,$6,$7,0*
20,1,$1+$1,$6,$7,$8,$9,0*
20,1,$1+$1,$8,$9,$2,$3,0*%
G04 Aperture macros list end*
%ADD10C,0.200000*%
%ADD11C,0.100000*%
%ADD12C,0.120000*%
%ADD13C,0.990600*%
%ADD14C,0.787400*%
%ADD15C,1.000000*%
%ADD16RoundRect,0.135000X0.185000X-0.135000X0.185000X0.135000X-0.185000X0.135000X-0.185000X-0.135000X0*%
%ADD17C,0.800000*%
%ADD18C,6.000000*%
%ADD19R,1.600200X1.168400*%
%ADD20C,2.520000*%
%ADD21C,1.295400*%
%ADD22C,1.574800*%
%ADD23C,5.000000*%
%ADD24RoundRect,0.250000X-0.475000X0.250000X-0.475000X-0.250000X0.475000X-0.250000X0.475000X0.250000X0*%
%ADD25RoundRect,0.135000X0.135000X0.185000X-0.135000X0.185000X-0.135000X-0.185000X0.135000X-0.185000X0*%
%ADD26RoundRect,0.200000X0.450000X0.200000X-0.450000X0.200000X-0.450000X-0.200000X0.450000X-0.200000X0*%
%ADD27O,0.740000X1.750000*%
%ADD28RoundRect,0.150000X0.150000X0.750000X-0.150000X0.750000X-0.150000X-0.750000X0.150000X-0.750000X0*%
%ADD29C,2.000000*%
%ADD30RoundRect,0.055250X0.340750X0.055250X-0.340750X0.055250X-0.340750X-0.055250X0.340750X-0.055250X0*%
%ADD31R,9.000000X2.380000*%
%ADD32RoundRect,0.140000X0.140000X0.170000X-0.140000X0.170000X-0.140000X-0.170000X0.140000X-0.170000X0*%
%ADD33RoundRect,0.225000X-0.225000X-0.250000X0.225000X-0.250000X0.225000X0.250000X-0.225000X0.250000X0*%
%ADD34RoundRect,0.250000X-1.500000X-0.550000X1.500000X-0.550000X1.500000X0.550000X-1.500000X0.550000X0*%
%ADD35R,1.700000X1.700000*%
%ADD36O,1.700000X1.700000*%
%ADD37RoundRect,0.135000X-0.185000X0.135000X-0.185000X-0.135000X0.185000X-0.135000X0.185000X0.135000X0*%
%ADD38RoundRect,0.140000X0.170000X-0.140000X0.170000X0.140000X-0.170000X0.140000X-0.170000X-0.140000X0*%
%ADD39RoundRect,0.250000X1.100000X-0.325000X1.100000X0.325000X-1.100000X0.325000X-1.100000X-0.325000X0*%
%ADD40RoundRect,0.140000X-0.140000X-0.170000X0.140000X-0.170000X0.140000X0.170000X-0.140000X0.170000X0*%
%ADD41R,1.400000X0.300000*%
%ADD42RoundRect,0.062500X0.062500X-0.337500X0.062500X0.337500X-0.062500X0.337500X-0.062500X-0.337500X0*%
%ADD43RoundRect,0.062500X0.337500X-0.062500X0.337500X0.062500X-0.337500X0.062500X-0.337500X-0.062500X0*%
%ADD44C,0.400000*%
%ADD45R,5.300000X3.300000*%
%ADD46R,0.711200X0.228600*%
%ADD47R,1.500000X0.900000*%
%ADD48R,0.900000X1.500000*%
%ADD49R,0.900000X0.900000*%
%ADD50RoundRect,0.250000X-0.325000X-1.100000X0.325000X-1.100000X0.325000X1.100000X-0.325000X1.100000X0*%
%ADD51RoundRect,0.140000X-0.170000X0.140000X-0.170000X-0.140000X0.170000X-0.140000X0.170000X0.140000X0*%
%ADD52C,0.650000*%
%ADD53R,0.600000X1.060000*%
%ADD54R,0.300000X1.150000*%
%ADD55O,1.000000X2.100000*%
%ADD56O,1.000000X1.800000*%
%ADD57RoundRect,0.135000X-0.135000X-0.185000X0.135000X-0.185000X0.135000X0.185000X-0.135000X0.185000X0*%
%ADD58RoundRect,0.250000X-0.312500X-0.625000X0.312500X-0.625000X0.312500X0.625000X-0.312500X0.625000X0*%
%ADD59R,0.625000X1.000000*%
%ADD60RoundRect,0.250000X-0.250000X-0.475000X0.250000X-0.475000X0.250000X0.475000X-0.250000X0.475000X0*%
G04 APERTURE END LIST*
D10*
%TO.C,REF\u002A\u002A*%
X102860000Y-174050000D02*
X102160000Y-174050000D01*
X102160000Y-172150000D01*
X102860000Y-172150000D01*
X102860000Y-174050000D01*
G36*
X102860000Y-174050000D02*
G01*
X102160000Y-174050000D01*
X102160000Y-172150000D01*
X102860000Y-172150000D01*
X102860000Y-174050000D01*
G37*
X113460000Y-174050000D02*
X112760000Y-174050000D01*
X112760000Y-172150000D01*
X113460000Y-172150000D01*
X113460000Y-174050000D01*
G36*
X113460000Y-174050000D02*
G01*
X112760000Y-174050000D01*
X112760000Y-172150000D01*
X113460000Y-172150000D01*
X113460000Y-174050000D01*
G37*
X122268812Y-172368007D02*
X122238812Y-172568007D01*
X122058812Y-172518007D01*
X121918812Y-172138007D01*
X121918812Y-172128007D01*
X122268812Y-172368007D01*
G36*
X122268812Y-172368007D02*
G01*
X122238812Y-172568007D01*
X122058812Y-172518007D01*
X121918812Y-172138007D01*
X121918812Y-172128007D01*
X122268812Y-172368007D01*
G37*
D11*
X122029006Y-171560179D02*
X122114167Y-171605000D01*
X122156214Y-171835807D01*
X122162117Y-172069555D01*
X122185000Y-172277500D01*
X122200600Y-172295220D01*
X121460000Y-172260000D01*
X121460000Y-171550000D01*
X122029006Y-171560179D01*
G36*
X122029006Y-171560179D02*
G01*
X122114167Y-171605000D01*
X122156214Y-171835807D01*
X122162117Y-172069555D01*
X122185000Y-172277500D01*
X122200600Y-172295220D01*
X121460000Y-172260000D01*
X121460000Y-171550000D01*
X122029006Y-171560179D01*
G37*
D10*
X114560000Y-173953826D02*
X114556324Y-174467384D01*
X114543276Y-174640311D01*
X114516160Y-174691826D01*
X114481422Y-174722765D01*
X114437458Y-174737963D01*
X114348933Y-174746988D01*
X113960000Y-174750000D01*
X113958812Y-173848007D01*
X114560000Y-173953826D01*
G36*
X114560000Y-173953826D02*
G01*
X114556324Y-174467384D01*
X114543276Y-174640311D01*
X114516160Y-174691826D01*
X114481422Y-174722765D01*
X114437458Y-174737963D01*
X114348933Y-174746988D01*
X113960000Y-174750000D01*
X113958812Y-173848007D01*
X114560000Y-173953826D01*
G37*
X122199404Y-172791553D02*
X122167150Y-172902888D01*
X122154102Y-173018066D01*
X122159799Y-173138164D01*
X122183564Y-173256024D01*
X122219776Y-173350405D01*
X122328351Y-173483263D01*
X122133262Y-173854724D01*
X122051017Y-173973002D01*
X121971120Y-174013281D01*
X121866661Y-174040777D01*
X121751667Y-174050000D01*
X121460000Y-174050000D01*
X121460000Y-171550000D01*
X122199404Y-172791553D01*
G36*
X122199404Y-172791553D02*
G01*
X122167150Y-172902888D01*
X122154102Y-173018066D01*
X122159799Y-173138164D01*
X122183564Y-173256024D01*
X122219776Y-173350405D01*
X122328351Y-173483263D01*
X122133262Y-173854724D01*
X122051017Y-173973002D01*
X121971120Y-174013281D01*
X121866661Y-174040777D01*
X121751667Y-174050000D01*
X121460000Y-174050000D01*
X121460000Y-171550000D01*
X122199404Y-172791553D01*
G37*
X117060000Y-172450000D02*
X117960000Y-172450000D01*
X117966813Y-171716636D01*
X117976489Y-171658747D01*
X118041959Y-171575138D01*
X118199411Y-171552650D01*
X118660000Y-171550000D01*
X118660000Y-174050000D01*
X117960000Y-174050000D01*
X117960000Y-173050000D01*
X117060000Y-173050000D01*
X117060000Y-174050000D01*
X116260000Y-174050000D01*
X116260000Y-171550000D01*
X117060000Y-171550000D01*
X117060000Y-172450000D01*
G36*
X117060000Y-172450000D02*
G01*
X117960000Y-172450000D01*
X117966813Y-171716636D01*
X117976489Y-171658747D01*
X118041959Y-171575138D01*
X118199411Y-171552650D01*
X118660000Y-171550000D01*
X118660000Y-174050000D01*
X117960000Y-174050000D01*
X117960000Y-173050000D01*
X117060000Y-173050000D01*
X117060000Y-174050000D01*
X116260000Y-174050000D01*
X116260000Y-171550000D01*
X117060000Y-171550000D01*
X117060000Y-172450000D01*
G37*
X101860000Y-171850000D02*
X101856977Y-171938992D01*
X101847927Y-172027574D01*
X101832674Y-172071541D01*
X101801667Y-172106250D01*
X101755305Y-172131452D01*
X101703668Y-172142326D01*
X101581834Y-172146163D01*
X101060000Y-172150000D01*
X101060000Y-174050000D01*
X100360000Y-174050000D01*
X100360000Y-172150000D01*
X99960000Y-172150000D01*
X99670010Y-172133327D01*
X99618333Y-172106250D01*
X99572073Y-172027574D01*
X99560000Y-171550000D01*
X101860000Y-171550000D01*
X101860000Y-171850000D01*
G36*
X101860000Y-171850000D02*
G01*
X101856977Y-171938992D01*
X101847927Y-172027574D01*
X101832674Y-172071541D01*
X101801667Y-172106250D01*
X101755305Y-172131452D01*
X101703668Y-172142326D01*
X101581834Y-172146163D01*
X101060000Y-172150000D01*
X101060000Y-174050000D01*
X100360000Y-174050000D01*
X100360000Y-172150000D01*
X99960000Y-172150000D01*
X99670010Y-172133327D01*
X99618333Y-172106250D01*
X99572073Y-172027574D01*
X99560000Y-171550000D01*
X101860000Y-171550000D01*
X101860000Y-171850000D01*
G37*
X113201307Y-171552055D02*
X113292428Y-171558218D01*
X113343516Y-171568422D01*
X113391250Y-171589286D01*
X113442271Y-171649754D01*
X113460000Y-171750000D01*
X113455534Y-171800901D01*
X113442271Y-171850246D01*
X113391250Y-171910714D01*
X113343510Y-171931560D01*
X113292428Y-171941782D01*
X113201306Y-171947943D01*
X113018693Y-171947945D01*
X112927572Y-171941782D01*
X112876484Y-171931578D01*
X112828750Y-171910714D01*
X112777730Y-171850246D01*
X112760002Y-171750000D01*
X112777729Y-171649754D01*
X112797870Y-171614986D01*
X112876490Y-171568440D01*
X113018694Y-171552057D01*
X113110000Y-171550000D01*
X113201307Y-171552055D01*
G36*
X113201307Y-171552055D02*
G01*
X113292428Y-171558218D01*
X113343516Y-171568422D01*
X113391250Y-171589286D01*
X113442271Y-171649754D01*
X113460000Y-171750000D01*
X113455534Y-171800901D01*
X113442271Y-171850246D01*
X113391250Y-171910714D01*
X113343510Y-171931560D01*
X113292428Y-171941782D01*
X113201306Y-171947943D01*
X113018693Y-171947945D01*
X112927572Y-171941782D01*
X112876484Y-171931578D01*
X112828750Y-171910714D01*
X112777730Y-171850246D01*
X112760002Y-171750000D01*
X112777729Y-171649754D01*
X112797870Y-171614986D01*
X112876490Y-171568440D01*
X113018694Y-171552057D01*
X113110000Y-171550000D01*
X113201307Y-171552055D01*
G37*
X102601307Y-171552055D02*
X102692428Y-171558218D01*
X102743516Y-171568422D01*
X102791250Y-171589287D01*
X102842271Y-171649754D01*
X102860000Y-171750000D01*
X102842271Y-171850246D01*
X102822130Y-171885014D01*
X102791250Y-171910714D01*
X102743510Y-171931560D01*
X102692428Y-171941782D01*
X102601306Y-171947943D01*
X102418693Y-171947945D01*
X102327572Y-171941782D01*
X102276484Y-171931578D01*
X102228750Y-171910714D01*
X102197897Y-171884992D01*
X102177729Y-171850246D01*
X102164467Y-171800901D01*
X102160000Y-171750000D01*
X102164466Y-171699099D01*
X102177729Y-171649754D01*
X102228750Y-171589286D01*
X102276490Y-171568440D01*
X102418694Y-171552057D01*
X102510000Y-171550000D01*
X102601307Y-171552055D01*
G36*
X102601307Y-171552055D02*
G01*
X102692428Y-171558218D01*
X102743516Y-171568422D01*
X102791250Y-171589287D01*
X102842271Y-171649754D01*
X102860000Y-171750000D01*
X102842271Y-171850246D01*
X102822130Y-171885014D01*
X102791250Y-171910714D01*
X102743510Y-171931560D01*
X102692428Y-171941782D01*
X102601306Y-171947943D01*
X102418693Y-171947945D01*
X102327572Y-171941782D01*
X102276484Y-171931578D01*
X102228750Y-171910714D01*
X102197897Y-171884992D01*
X102177729Y-171850246D01*
X102164467Y-171800901D01*
X102160000Y-171750000D01*
X102164466Y-171699099D01*
X102177729Y-171649754D01*
X102228750Y-171589286D01*
X102276490Y-171568440D01*
X102418694Y-171552057D01*
X102510000Y-171550000D01*
X102601307Y-171552055D01*
G37*
X110919005Y-171552491D02*
X111027782Y-171559959D01*
X111113316Y-171603823D01*
X111152104Y-171698946D01*
X111160000Y-171953518D01*
X111162265Y-172071042D01*
X111171185Y-172234610D01*
X111190570Y-172276901D01*
X111244366Y-172297324D01*
X111300095Y-172278406D01*
X111353426Y-172253518D01*
X111470608Y-172201322D01*
X111594094Y-172166578D01*
X111714733Y-172152431D01*
X111836025Y-172158921D01*
X111945484Y-172184829D01*
X112048207Y-172230662D01*
X112134195Y-172292715D01*
X112204330Y-172372251D01*
X112274022Y-172514364D01*
X112322018Y-172717839D01*
X112340046Y-172850293D01*
X112355433Y-173152890D01*
X112360000Y-174050000D01*
X111669138Y-174050000D01*
X111648812Y-173538007D01*
X111628681Y-173190509D01*
X111617793Y-173006018D01*
X111606463Y-172908256D01*
X111556215Y-172766584D01*
X111410000Y-172700000D01*
X111303010Y-172731103D01*
X111238549Y-172813071D01*
X111203418Y-172985493D01*
X111180431Y-173375000D01*
X111150862Y-174050000D01*
X110460000Y-174050000D01*
X110460000Y-171550000D01*
X110919005Y-171552491D01*
G36*
X110919005Y-171552491D02*
G01*
X111027782Y-171559959D01*
X111113316Y-171603823D01*
X111152104Y-171698946D01*
X111160000Y-171953518D01*
X111162265Y-172071042D01*
X111171185Y-172234610D01*
X111190570Y-172276901D01*
X111244366Y-172297324D01*
X111300095Y-172278406D01*
X111353426Y-172253518D01*
X111470608Y-172201322D01*
X111594094Y-172166578D01*
X111714733Y-172152431D01*
X111836025Y-172158921D01*
X111945484Y-172184829D01*
X112048207Y-172230662D01*
X112134195Y-172292715D01*
X112204330Y-172372251D01*
X112274022Y-172514364D01*
X112322018Y-172717839D01*
X112340046Y-172850293D01*
X112355433Y-173152890D01*
X112360000Y-174050000D01*
X111669138Y-174050000D01*
X111648812Y-173538007D01*
X111628681Y-173190509D01*
X111617793Y-173006018D01*
X111606463Y-172908256D01*
X111556215Y-172766584D01*
X111410000Y-172700000D01*
X111303010Y-172731103D01*
X111238549Y-172813071D01*
X111203418Y-172985493D01*
X111180431Y-173375000D01*
X111150862Y-174050000D01*
X110460000Y-174050000D01*
X110460000Y-171550000D01*
X110919005Y-171552491D01*
G37*
X119551820Y-172153762D02*
X119643025Y-172165023D01*
X119721158Y-172220152D01*
X119754209Y-172340717D01*
X119760000Y-172691821D01*
X119771506Y-173066358D01*
X119823008Y-173369760D01*
X119860400Y-173441809D01*
X119916521Y-173500455D01*
X119984105Y-173537264D01*
X120060000Y-173550000D01*
X120135897Y-173537269D01*
X120259607Y-173441814D01*
X120296992Y-173369760D01*
X120330385Y-173247980D01*
X120346760Y-173122770D01*
X120360000Y-172691821D01*
X120360000Y-172150000D01*
X121060000Y-172150000D01*
X121060000Y-174050000D01*
X120642842Y-174048120D01*
X120462813Y-174019592D01*
X120366321Y-173969631D01*
X120331587Y-173897052D01*
X120255006Y-173904582D01*
X120058585Y-173994647D01*
X119824784Y-174043447D01*
X119703614Y-174043896D01*
X119591092Y-174028691D01*
X119393751Y-173954307D01*
X119317143Y-173892857D01*
X119242466Y-173775682D01*
X119194910Y-173594488D01*
X119177350Y-173463360D01*
X119167905Y-173331399D01*
X119160000Y-172942857D01*
X119160000Y-172150000D01*
X119460000Y-172150000D01*
X119551820Y-172153762D01*
G36*
X119551820Y-172153762D02*
G01*
X119643025Y-172165023D01*
X119721158Y-172220152D01*
X119754209Y-172340717D01*
X119760000Y-172691821D01*
X119771506Y-173066358D01*
X119823008Y-173369760D01*
X119860400Y-173441809D01*
X119916521Y-173500455D01*
X119984105Y-173537264D01*
X120060000Y-173550000D01*
X120135897Y-173537269D01*
X120259607Y-173441814D01*
X120296992Y-173369760D01*
X120330385Y-173247980D01*
X120346760Y-173122770D01*
X120360000Y-172691821D01*
X120360000Y-172150000D01*
X121060000Y-172150000D01*
X121060000Y-174050000D01*
X120642842Y-174048120D01*
X120462813Y-174019592D01*
X120366321Y-173969631D01*
X120331587Y-173897052D01*
X120255006Y-173904582D01*
X120058585Y-173994647D01*
X119824784Y-174043447D01*
X119703614Y-174043896D01*
X119591092Y-174028691D01*
X119393751Y-173954307D01*
X119317143Y-173892857D01*
X119242466Y-173775682D01*
X119194910Y-173594488D01*
X119177350Y-173463360D01*
X119167905Y-173331399D01*
X119160000Y-172942857D01*
X119160000Y-172150000D01*
X119460000Y-172150000D01*
X119551820Y-172153762D01*
G37*
X114374918Y-172157539D02*
X114538834Y-172213769D01*
X114573619Y-172291434D01*
X114776437Y-172708435D01*
X114653230Y-172862649D01*
X114600519Y-173069238D01*
X114594737Y-173094119D01*
X114610177Y-173187649D01*
X114640792Y-173302440D01*
X114687695Y-173399210D01*
X114753073Y-173484592D01*
X114821930Y-173532960D01*
X114904338Y-173550000D01*
X115060532Y-173489275D01*
X115175857Y-173323150D01*
X115208143Y-173214138D01*
X115218949Y-173100961D01*
X115172432Y-172887351D01*
X115058314Y-172721445D01*
X114918902Y-172659120D01*
X114776437Y-172708435D01*
X114753426Y-172253518D01*
X115096479Y-172155641D01*
X115323495Y-172185195D01*
X115429912Y-172228175D01*
X115628555Y-172367431D01*
X115744148Y-172502660D01*
X115784329Y-172572254D01*
X115849857Y-172798129D01*
X115856982Y-173033634D01*
X115854663Y-173263745D01*
X115810085Y-173570536D01*
X115752041Y-173726423D01*
X115653485Y-173860425D01*
X115529191Y-173953140D01*
X115382357Y-174002996D01*
X115183959Y-174021832D01*
X114878812Y-174008007D01*
X114560000Y-173953826D01*
X113958812Y-173848007D01*
X113960000Y-172150000D01*
X114374918Y-172157539D01*
G36*
X114374918Y-172157539D02*
G01*
X114538834Y-172213769D01*
X114573619Y-172291434D01*
X114776437Y-172708435D01*
X114653230Y-172862649D01*
X114600519Y-173069238D01*
X114594737Y-173094119D01*
X114610177Y-173187649D01*
X114640792Y-173302440D01*
X114687695Y-173399210D01*
X114753073Y-173484592D01*
X114821930Y-173532960D01*
X114904338Y-173550000D01*
X115060532Y-173489275D01*
X115175857Y-173323150D01*
X115208143Y-173214138D01*
X115218949Y-173100961D01*
X115172432Y-172887351D01*
X115058314Y-172721445D01*
X114918902Y-172659120D01*
X114776437Y-172708435D01*
X114753426Y-172253518D01*
X115096479Y-172155641D01*
X115323495Y-172185195D01*
X115429912Y-172228175D01*
X115628555Y-172367431D01*
X115744148Y-172502660D01*
X115784329Y-172572254D01*
X115849857Y-172798129D01*
X115856982Y-173033634D01*
X115854663Y-173263745D01*
X115810085Y-173570536D01*
X115752041Y-173726423D01*
X115653485Y-173860425D01*
X115529191Y-173953140D01*
X115382357Y-174002996D01*
X115183959Y-174021832D01*
X114878812Y-174008007D01*
X114560000Y-173953826D01*
X113958812Y-173848007D01*
X113960000Y-172150000D01*
X114374918Y-172157539D01*
G37*
X122853687Y-172173951D02*
X123052859Y-172246178D01*
X123205124Y-172363744D01*
X123310676Y-172524565D01*
X123358812Y-172618007D01*
X123408812Y-172868007D01*
X123423589Y-172988244D01*
X123418361Y-173238516D01*
X123371405Y-173484400D01*
X123286845Y-173683980D01*
X123154422Y-173855578D01*
X123062985Y-173929960D01*
X122832790Y-174023102D01*
X122702888Y-174043054D01*
X122451512Y-174023910D01*
X122352956Y-173986637D01*
X122232922Y-173894060D01*
X122485791Y-173488239D01*
X122566207Y-173453788D01*
X122635351Y-173398901D01*
X122687868Y-173327940D01*
X122743272Y-173138365D01*
X122741663Y-173026131D01*
X122722820Y-172915478D01*
X122687044Y-172823694D01*
X122629507Y-172743731D01*
X122556550Y-172685431D01*
X122469807Y-172650826D01*
X122307470Y-172670793D01*
X122200600Y-172295220D01*
X122223867Y-172299169D01*
X122280000Y-172270000D01*
X122345212Y-172219464D01*
X122420974Y-172186807D01*
X122627853Y-172154303D01*
X122853687Y-172173951D01*
G36*
X122853687Y-172173951D02*
G01*
X123052859Y-172246178D01*
X123205124Y-172363744D01*
X123310676Y-172524565D01*
X123358812Y-172618007D01*
X123408812Y-172868007D01*
X123423589Y-172988244D01*
X123418361Y-173238516D01*
X123371405Y-173484400D01*
X123286845Y-173683980D01*
X123154422Y-173855578D01*
X123062985Y-173929960D01*
X122832790Y-174023102D01*
X122702888Y-174043054D01*
X122451512Y-174023910D01*
X122352956Y-173986637D01*
X122232922Y-173894060D01*
X122485791Y-173488239D01*
X122566207Y-173453788D01*
X122635351Y-173398901D01*
X122687868Y-173327940D01*
X122743272Y-173138365D01*
X122741663Y-173026131D01*
X122722820Y-172915478D01*
X122687044Y-172823694D01*
X122629507Y-172743731D01*
X122556550Y-172685431D01*
X122469807Y-172650826D01*
X122307470Y-172670793D01*
X122200600Y-172295220D01*
X122223867Y-172299169D01*
X122280000Y-172270000D01*
X122345212Y-172219464D01*
X122420974Y-172186807D01*
X122627853Y-172154303D01*
X122853687Y-172173951D01*
G37*
X122029006Y-171560179D02*
X122114167Y-171605000D01*
X122152427Y-171701614D01*
X122156214Y-171835807D01*
X122162117Y-172069555D01*
X122169416Y-172224301D01*
X122185000Y-172277500D01*
X122200600Y-172295220D01*
X121460000Y-171550000D01*
X122029006Y-171560179D01*
G36*
X122029006Y-171560179D02*
G01*
X122114167Y-171605000D01*
X122152427Y-171701614D01*
X122156214Y-171835807D01*
X122162117Y-172069555D01*
X122169416Y-172224301D01*
X122185000Y-172277500D01*
X122200600Y-172295220D01*
X121460000Y-171550000D01*
X122029006Y-171560179D01*
G37*
X103725162Y-172152220D02*
X103790021Y-172158870D01*
X103883400Y-172187112D01*
X103954703Y-172262695D01*
X103973797Y-172362075D01*
X104010968Y-172385047D01*
X104048428Y-172378952D01*
X104162189Y-172322404D01*
X104240597Y-172279657D01*
X104517671Y-172179027D01*
X104655849Y-172169228D01*
X104793038Y-172188420D01*
X104913460Y-172233739D01*
X105020224Y-172305549D01*
X105104667Y-172398433D01*
X105163537Y-172509303D01*
X105200868Y-172648681D01*
X105242287Y-173009529D01*
X105252911Y-173141542D01*
X105260000Y-173406510D01*
X105260000Y-174050000D01*
X104560000Y-174050000D01*
X104558812Y-173488007D01*
X104556977Y-173258884D01*
X104553955Y-173120906D01*
X104547123Y-172994578D01*
X104526699Y-172869725D01*
X104507634Y-172806903D01*
X104478989Y-172747830D01*
X104446602Y-172709262D01*
X104403278Y-172683583D01*
X104321088Y-172668040D01*
X104238669Y-172682289D01*
X104166364Y-172724584D01*
X104113397Y-172789479D01*
X104060322Y-172908306D01*
X104028313Y-173034449D01*
X103991961Y-173306390D01*
X103946666Y-173821758D01*
X103903043Y-173969007D01*
X103868192Y-174009067D01*
X103819930Y-174031203D01*
X103734468Y-174045286D01*
X103647981Y-174050000D01*
X103360000Y-174050000D01*
X103360000Y-172150000D01*
X103660000Y-172150000D01*
X103725162Y-172152220D01*
G36*
X103725162Y-172152220D02*
G01*
X103790021Y-172158870D01*
X103883400Y-172187112D01*
X103954703Y-172262695D01*
X103973797Y-172362075D01*
X104010968Y-172385047D01*
X104048428Y-172378952D01*
X104162189Y-172322404D01*
X104240597Y-172279657D01*
X104517671Y-172179027D01*
X104655849Y-172169228D01*
X104793038Y-172188420D01*
X104913460Y-172233739D01*
X105020224Y-172305549D01*
X105104667Y-172398433D01*
X105163537Y-172509303D01*
X105200868Y-172648681D01*
X105242287Y-173009529D01*
X105252911Y-173141542D01*
X105260000Y-173406510D01*
X105260000Y-174050000D01*
X104560000Y-174050000D01*
X104558812Y-173488007D01*
X104556977Y-173258884D01*
X104553955Y-173120906D01*
X104547123Y-172994578D01*
X104526699Y-172869725D01*
X104507634Y-172806903D01*
X104478989Y-172747830D01*
X104446602Y-172709262D01*
X104403278Y-172683583D01*
X104321088Y-172668040D01*
X104238669Y-172682289D01*
X104166364Y-172724584D01*
X104113397Y-172789479D01*
X104060322Y-172908306D01*
X104028313Y-173034449D01*
X103991961Y-173306390D01*
X103946666Y-173821758D01*
X103903043Y-173969007D01*
X103868192Y-174009067D01*
X103819930Y-174031203D01*
X103734468Y-174045286D01*
X103647981Y-174050000D01*
X103360000Y-174050000D01*
X103360000Y-172150000D01*
X103660000Y-172150000D01*
X103725162Y-172152220D01*
G37*
X109119238Y-171562538D02*
X109373770Y-171608653D01*
X109594956Y-171682732D01*
X109802550Y-171789108D01*
X109931433Y-171903858D01*
X110012044Y-172056439D01*
X110034610Y-172134462D01*
X110052513Y-172249547D01*
X110006305Y-172309356D01*
X109872694Y-172351832D01*
X109700689Y-172394331D01*
X109570588Y-172402656D01*
X109429918Y-172359680D01*
X109359198Y-172299033D01*
X109245815Y-172206181D01*
X109105921Y-172162521D01*
X108948124Y-172169467D01*
X108799945Y-172224176D01*
X108659518Y-172328810D01*
X108551275Y-172466473D01*
X108483231Y-172627105D01*
X108460000Y-172800000D01*
X108485317Y-172983938D01*
X108559401Y-173154191D01*
X108675351Y-173293569D01*
X108826643Y-173393472D01*
X108980309Y-173433565D01*
X109138190Y-173416466D01*
X109272863Y-173344849D01*
X109369193Y-173226585D01*
X109437497Y-173097785D01*
X109494644Y-172993557D01*
X109531209Y-172958529D01*
X109559948Y-172959422D01*
X110128137Y-173168563D01*
X110158604Y-173229177D01*
X110093846Y-173379578D01*
X110023592Y-173523191D01*
X109871771Y-173738044D01*
X109659377Y-173893286D01*
X109386168Y-173998167D01*
X109097339Y-174045293D01*
X108793311Y-174033644D01*
X108497322Y-173963228D01*
X108248223Y-173840186D01*
X108038244Y-173658254D01*
X107877124Y-173423337D01*
X107780704Y-173155287D01*
X107743899Y-172846345D01*
X107768388Y-172536183D01*
X107851774Y-172246128D01*
X107992451Y-171979119D01*
X108170635Y-171782887D01*
X108398812Y-171648007D01*
X108625491Y-171579187D01*
X108860789Y-171551729D01*
X109119238Y-171562538D01*
G36*
X109119238Y-171562538D02*
G01*
X109373770Y-171608653D01*
X109594956Y-171682732D01*
X109802550Y-171789108D01*
X109931433Y-171903858D01*
X110012044Y-172056439D01*
X110034610Y-172134462D01*
X110052513Y-172249547D01*
X110006305Y-172309356D01*
X109872694Y-172351832D01*
X109700689Y-172394331D01*
X109570588Y-172402656D01*
X109429918Y-172359680D01*
X109359198Y-172299033D01*
X109245815Y-172206181D01*
X109105921Y-172162521D01*
X108948124Y-172169467D01*
X108799945Y-172224176D01*
X108659518Y-172328810D01*
X108551275Y-172466473D01*
X108483231Y-172627105D01*
X108460000Y-172800000D01*
X108485317Y-172983938D01*
X108559401Y-173154191D01*
X108675351Y-173293569D01*
X108826643Y-173393472D01*
X108980309Y-173433565D01*
X109138190Y-173416466D01*
X109272863Y-173344849D01*
X109369193Y-173226585D01*
X109437497Y-173097785D01*
X109494644Y-172993557D01*
X109531209Y-172958529D01*
X109559948Y-172959422D01*
X110128137Y-173168563D01*
X110158604Y-173229177D01*
X110093846Y-173379578D01*
X110023592Y-173523191D01*
X109871771Y-173738044D01*
X109659377Y-173893286D01*
X109386168Y-173998167D01*
X109097339Y-174045293D01*
X108793311Y-174033644D01*
X108497322Y-173963228D01*
X108248223Y-173840186D01*
X108038244Y-173658254D01*
X107877124Y-173423337D01*
X107780704Y-173155287D01*
X107743899Y-172846345D01*
X107768388Y-172536183D01*
X107851774Y-172246128D01*
X107992451Y-171979119D01*
X108170635Y-171782887D01*
X108398812Y-171648007D01*
X108625491Y-171579187D01*
X108860789Y-171551729D01*
X109119238Y-171562538D01*
G37*
X107336941Y-172158548D02*
X107447402Y-172183991D01*
X107498932Y-172222449D01*
X107514878Y-172284734D01*
X107496857Y-172400873D01*
X107463829Y-172513666D01*
X106839899Y-174142748D01*
X106738740Y-174353348D01*
X106601388Y-174542346D01*
X106491055Y-174636641D01*
X106358381Y-174695481D01*
X106188075Y-174727542D01*
X105921978Y-174719005D01*
X105829164Y-174708272D01*
X105752756Y-174693842D01*
X105681563Y-174662568D01*
X105614156Y-174590716D01*
X105578045Y-174475000D01*
X105572714Y-174417031D01*
X105573131Y-174358820D01*
X105602624Y-174293555D01*
X105634406Y-174270915D01*
X105738772Y-174252355D01*
X105909577Y-174239829D01*
X105958275Y-174227377D01*
X106043969Y-174189859D01*
X106102989Y-174141803D01*
X106128779Y-174067102D01*
X106124309Y-174020510D01*
X106087938Y-173888666D01*
X105999896Y-173599107D01*
X105948226Y-173441391D01*
X105881996Y-173267406D01*
X105460000Y-172174531D01*
X105463564Y-172165360D01*
X105567907Y-172157796D01*
X105686486Y-172159693D01*
X105768753Y-172165107D01*
X105909600Y-172178088D01*
X106110973Y-172228216D01*
X106163206Y-172270082D01*
X106209557Y-172332450D01*
X106241775Y-172403161D01*
X106340150Y-172725000D01*
X106401056Y-172926221D01*
X106463823Y-173095781D01*
X106521744Y-173226262D01*
X106535688Y-173243508D01*
X106556894Y-173250000D01*
X106576888Y-173243932D01*
X106590113Y-173227752D01*
X106643392Y-173088437D01*
X106671162Y-172999627D01*
X106792544Y-172531980D01*
X106833830Y-172363961D01*
X106860481Y-172289203D01*
X106904460Y-172223137D01*
X106951455Y-172184968D01*
X107008842Y-172165677D01*
X107116091Y-172153924D01*
X107223910Y-172150000D01*
X107336941Y-172158548D01*
G36*
X107336941Y-172158548D02*
G01*
X107447402Y-172183991D01*
X107498932Y-172222449D01*
X107514878Y-172284734D01*
X107496857Y-172400873D01*
X107463829Y-172513666D01*
X106839899Y-174142748D01*
X106738740Y-174353348D01*
X106601388Y-174542346D01*
X106491055Y-174636641D01*
X106358381Y-174695481D01*
X106188075Y-174727542D01*
X105921978Y-174719005D01*
X105829164Y-174708272D01*
X105752756Y-174693842D01*
X105681563Y-174662568D01*
X105614156Y-174590716D01*
X105578045Y-174475000D01*
X105572714Y-174417031D01*
X105573131Y-174358820D01*
X105602624Y-174293555D01*
X105634406Y-174270915D01*
X105738772Y-174252355D01*
X105909577Y-174239829D01*
X105958275Y-174227377D01*
X106043969Y-174189859D01*
X106102989Y-174141803D01*
X106128779Y-174067102D01*
X106124309Y-174020510D01*
X106087938Y-173888666D01*
X105999896Y-173599107D01*
X105948226Y-173441391D01*
X105881996Y-173267406D01*
X105460000Y-172174531D01*
X105463564Y-172165360D01*
X105567907Y-172157796D01*
X105686486Y-172159693D01*
X105768753Y-172165107D01*
X105909600Y-172178088D01*
X106110973Y-172228216D01*
X106163206Y-172270082D01*
X106209557Y-172332450D01*
X106241775Y-172403161D01*
X106340150Y-172725000D01*
X106401056Y-172926221D01*
X106463823Y-173095781D01*
X106521744Y-173226262D01*
X106535688Y-173243508D01*
X106556894Y-173250000D01*
X106576888Y-173243932D01*
X106590113Y-173227752D01*
X106643392Y-173088437D01*
X106671162Y-172999627D01*
X106792544Y-172531980D01*
X106833830Y-172363961D01*
X106860481Y-172289203D01*
X106904460Y-172223137D01*
X106951455Y-172184968D01*
X107008842Y-172165677D01*
X107116091Y-172153924D01*
X107223910Y-172150000D01*
X107336941Y-172158548D01*
G37*
%TO.C,U18*%
D12*
X74832258Y-121400000D02*
X76612258Y-121400000D01*
X76612258Y-122840000D01*
X74832258Y-122840000D01*
X74832258Y-121400000D01*
G36*
X74832258Y-121400000D02*
G01*
X76612258Y-121400000D01*
X76612258Y-122840000D01*
X74832258Y-122840000D01*
X74832258Y-121400000D01*
G37*
X74832258Y-125110000D02*
X76612258Y-125110000D01*
X76612258Y-126550000D01*
X74832258Y-126550000D01*
X74832258Y-125110000D01*
G36*
X74832258Y-125110000D02*
G01*
X76612258Y-125110000D01*
X76612258Y-126550000D01*
X74832258Y-126550000D01*
X74832258Y-125110000D01*
G37*
X74842258Y-123270000D02*
X76622258Y-123270000D01*
X76622258Y-124710000D01*
X74842258Y-124710000D01*
X74842258Y-123270000D01*
G36*
X74842258Y-123270000D02*
G01*
X76622258Y-123270000D01*
X76622258Y-124710000D01*
X74842258Y-124710000D01*
X74842258Y-123270000D01*
G37*
X74842258Y-127160000D02*
X76622258Y-127160000D01*
X76622258Y-129030000D01*
X74842258Y-129030000D01*
X74842258Y-127160000D01*
G36*
X74842258Y-127160000D02*
G01*
X76622258Y-127160000D01*
X76622258Y-129030000D01*
X74842258Y-129030000D01*
X74842258Y-127160000D01*
G37*
X77042258Y-121400000D02*
X78822258Y-121400000D01*
X78822258Y-122840000D01*
X77042258Y-122840000D01*
X77042258Y-121400000D01*
G36*
X77042258Y-121400000D02*
G01*
X78822258Y-121400000D01*
X78822258Y-122840000D01*
X77042258Y-122840000D01*
X77042258Y-121400000D01*
G37*
X77042258Y-125110000D02*
X78822258Y-125110000D01*
X78822258Y-126550000D01*
X77042258Y-126550000D01*
X77042258Y-125110000D01*
G36*
X77042258Y-125110000D02*
G01*
X78822258Y-125110000D01*
X78822258Y-126550000D01*
X77042258Y-126550000D01*
X77042258Y-125110000D01*
G37*
X77052258Y-123270000D02*
X78832258Y-123270000D01*
X78832258Y-124710000D01*
X77052258Y-124710000D01*
X77052258Y-123270000D01*
G36*
X77052258Y-123270000D02*
G01*
X78832258Y-123270000D01*
X78832258Y-124710000D01*
X77052258Y-124710000D01*
X77052258Y-123270000D01*
G37*
X77052258Y-127150000D02*
X78832258Y-127150000D01*
X78832258Y-129020000D01*
X77052258Y-129020000D01*
X77052258Y-127150000D01*
G36*
X77052258Y-127150000D02*
G01*
X78832258Y-127150000D01*
X78832258Y-129020000D01*
X77052258Y-129020000D01*
X77052258Y-127150000D01*
G37*
X79252258Y-121390000D02*
X81032258Y-121390000D01*
X81032258Y-122830000D01*
X79252258Y-122830000D01*
X79252258Y-121390000D01*
G36*
X79252258Y-121390000D02*
G01*
X81032258Y-121390000D01*
X81032258Y-122830000D01*
X79252258Y-122830000D01*
X79252258Y-121390000D01*
G37*
X79252258Y-125100000D02*
X81032258Y-125100000D01*
X81032258Y-126540000D01*
X79252258Y-126540000D01*
X79252258Y-125100000D01*
G36*
X79252258Y-125100000D02*
G01*
X81032258Y-125100000D01*
X81032258Y-126540000D01*
X79252258Y-126540000D01*
X79252258Y-125100000D01*
G37*
X79252258Y-127130000D02*
X81032258Y-127130000D01*
X81032258Y-129010000D01*
X79252258Y-129010000D01*
X79252258Y-127130000D01*
G36*
X79252258Y-127130000D02*
G01*
X81032258Y-127130000D01*
X81032258Y-129010000D01*
X79252258Y-129010000D01*
X79252258Y-127130000D01*
G37*
X79262258Y-123260000D02*
X81042258Y-123260000D01*
X81042258Y-124700000D01*
X79262258Y-124700000D01*
X79262258Y-123260000D01*
G36*
X79262258Y-123260000D02*
G01*
X81042258Y-123260000D01*
X81042258Y-124700000D01*
X79262258Y-124700000D01*
X79262258Y-123260000D01*
G37*
%TO.C,U25*%
X104794000Y-149124000D02*
X106574000Y-149124000D01*
X106574000Y-150564000D01*
X104794000Y-150564000D01*
X104794000Y-149124000D01*
G36*
X104794000Y-149124000D02*
G01*
X106574000Y-149124000D01*
X106574000Y-150564000D01*
X104794000Y-150564000D01*
X104794000Y-149124000D01*
G37*
X104794000Y-152834000D02*
X106574000Y-152834000D01*
X106574000Y-154274000D01*
X104794000Y-154274000D01*
X104794000Y-152834000D01*
G36*
X104794000Y-152834000D02*
G01*
X106574000Y-152834000D01*
X106574000Y-154274000D01*
X104794000Y-154274000D01*
X104794000Y-152834000D01*
G37*
X104804000Y-150994000D02*
X106584000Y-150994000D01*
X106584000Y-152434000D01*
X104804000Y-152434000D01*
X104804000Y-150994000D01*
G36*
X104804000Y-150994000D02*
G01*
X106584000Y-150994000D01*
X106584000Y-152434000D01*
X104804000Y-152434000D01*
X104804000Y-150994000D01*
G37*
X104804000Y-154884000D02*
X106584000Y-154884000D01*
X106584000Y-156754000D01*
X104804000Y-156754000D01*
X104804000Y-154884000D01*
G36*
X104804000Y-154884000D02*
G01*
X106584000Y-154884000D01*
X106584000Y-156754000D01*
X104804000Y-156754000D01*
X104804000Y-154884000D01*
G37*
X107004000Y-149124000D02*
X108784000Y-149124000D01*
X108784000Y-150564000D01*
X107004000Y-150564000D01*
X107004000Y-149124000D01*
G36*
X107004000Y-149124000D02*
G01*
X108784000Y-149124000D01*
X108784000Y-150564000D01*
X107004000Y-150564000D01*
X107004000Y-149124000D01*
G37*
X107004000Y-152834000D02*
X108784000Y-152834000D01*
X108784000Y-154274000D01*
X107004000Y-154274000D01*
X107004000Y-152834000D01*
G36*
X107004000Y-152834000D02*
G01*
X108784000Y-152834000D01*
X108784000Y-154274000D01*
X107004000Y-154274000D01*
X107004000Y-152834000D01*
G37*
X107014000Y-150994000D02*
X108794000Y-150994000D01*
X108794000Y-152434000D01*
X107014000Y-152434000D01*
X107014000Y-150994000D01*
G36*
X107014000Y-150994000D02*
G01*
X108794000Y-150994000D01*
X108794000Y-152434000D01*
X107014000Y-152434000D01*
X107014000Y-150994000D01*
G37*
X107014000Y-154874000D02*
X108794000Y-154874000D01*
X108794000Y-156744000D01*
X107014000Y-156744000D01*
X107014000Y-154874000D01*
G36*
X107014000Y-154874000D02*
G01*
X108794000Y-154874000D01*
X108794000Y-156744000D01*
X107014000Y-156744000D01*
X107014000Y-154874000D01*
G37*
X109214000Y-149114000D02*
X110994000Y-149114000D01*
X110994000Y-150554000D01*
X109214000Y-150554000D01*
X109214000Y-149114000D01*
G36*
X109214000Y-149114000D02*
G01*
X110994000Y-149114000D01*
X110994000Y-150554000D01*
X109214000Y-150554000D01*
X109214000Y-149114000D01*
G37*
X109214000Y-152824000D02*
X110994000Y-152824000D01*
X110994000Y-154264000D01*
X109214000Y-154264000D01*
X109214000Y-152824000D01*
G36*
X109214000Y-152824000D02*
G01*
X110994000Y-152824000D01*
X110994000Y-154264000D01*
X109214000Y-154264000D01*
X109214000Y-152824000D01*
G37*
X109214000Y-154854000D02*
X110994000Y-154854000D01*
X110994000Y-156734000D01*
X109214000Y-156734000D01*
X109214000Y-154854000D01*
G36*
X109214000Y-154854000D02*
G01*
X110994000Y-154854000D01*
X110994000Y-156734000D01*
X109214000Y-156734000D01*
X109214000Y-154854000D01*
G37*
X109224000Y-150984000D02*
X111004000Y-150984000D01*
X111004000Y-152424000D01*
X109224000Y-152424000D01*
X109224000Y-150984000D01*
G36*
X109224000Y-150984000D02*
G01*
X111004000Y-150984000D01*
X111004000Y-152424000D01*
X109224000Y-152424000D01*
X109224000Y-150984000D01*
G37*
%TO.C,U13*%
X104794000Y-121400000D02*
X106574000Y-121400000D01*
X106574000Y-122840000D01*
X104794000Y-122840000D01*
X104794000Y-121400000D01*
G36*
X104794000Y-121400000D02*
G01*
X106574000Y-121400000D01*
X106574000Y-122840000D01*
X104794000Y-122840000D01*
X104794000Y-121400000D01*
G37*
X104794000Y-125110000D02*
X106574000Y-125110000D01*
X106574000Y-126550000D01*
X104794000Y-126550000D01*
X104794000Y-125110000D01*
G36*
X104794000Y-125110000D02*
G01*
X106574000Y-125110000D01*
X106574000Y-126550000D01*
X104794000Y-126550000D01*
X104794000Y-125110000D01*
G37*
X104804000Y-123270000D02*
X106584000Y-123270000D01*
X106584000Y-124710000D01*
X104804000Y-124710000D01*
X104804000Y-123270000D01*
G36*
X104804000Y-123270000D02*
G01*
X106584000Y-123270000D01*
X106584000Y-124710000D01*
X104804000Y-124710000D01*
X104804000Y-123270000D01*
G37*
X104804000Y-127160000D02*
X106584000Y-127160000D01*
X106584000Y-129030000D01*
X104804000Y-129030000D01*
X104804000Y-127160000D01*
G36*
X104804000Y-127160000D02*
G01*
X106584000Y-127160000D01*
X106584000Y-129030000D01*
X104804000Y-129030000D01*
X104804000Y-127160000D01*
G37*
X107004000Y-121400000D02*
X108784000Y-121400000D01*
X108784000Y-122840000D01*
X107004000Y-122840000D01*
X107004000Y-121400000D01*
G36*
X107004000Y-121400000D02*
G01*
X108784000Y-121400000D01*
X108784000Y-122840000D01*
X107004000Y-122840000D01*
X107004000Y-121400000D01*
G37*
X107004000Y-125110000D02*
X108784000Y-125110000D01*
X108784000Y-126550000D01*
X107004000Y-126550000D01*
X107004000Y-125110000D01*
G36*
X107004000Y-125110000D02*
G01*
X108784000Y-125110000D01*
X108784000Y-126550000D01*
X107004000Y-126550000D01*
X107004000Y-125110000D01*
G37*
X107014000Y-123270000D02*
X108794000Y-123270000D01*
X108794000Y-124710000D01*
X107014000Y-124710000D01*
X107014000Y-123270000D01*
G36*
X107014000Y-123270000D02*
G01*
X108794000Y-123270000D01*
X108794000Y-124710000D01*
X107014000Y-124710000D01*
X107014000Y-123270000D01*
G37*
X107014000Y-127150000D02*
X108794000Y-127150000D01*
X108794000Y-129020000D01*
X107014000Y-129020000D01*
X107014000Y-127150000D01*
G36*
X107014000Y-127150000D02*
G01*
X108794000Y-127150000D01*
X108794000Y-129020000D01*
X107014000Y-129020000D01*
X107014000Y-127150000D01*
G37*
X109214000Y-121390000D02*
X110994000Y-121390000D01*
X110994000Y-122830000D01*
X109214000Y-122830000D01*
X109214000Y-121390000D01*
G36*
X109214000Y-121390000D02*
G01*
X110994000Y-121390000D01*
X110994000Y-122830000D01*
X109214000Y-122830000D01*
X109214000Y-121390000D01*
G37*
X109214000Y-125100000D02*
X110994000Y-125100000D01*
X110994000Y-126540000D01*
X109214000Y-126540000D01*
X109214000Y-125100000D01*
G36*
X109214000Y-125100000D02*
G01*
X110994000Y-125100000D01*
X110994000Y-126540000D01*
X109214000Y-126540000D01*
X109214000Y-125100000D01*
G37*
X109214000Y-127130000D02*
X110994000Y-127130000D01*
X110994000Y-129010000D01*
X109214000Y-129010000D01*
X109214000Y-127130000D01*
G36*
X109214000Y-127130000D02*
G01*
X110994000Y-127130000D01*
X110994000Y-129010000D01*
X109214000Y-129010000D01*
X109214000Y-127130000D01*
G37*
X109224000Y-123260000D02*
X111004000Y-123260000D01*
X111004000Y-124700000D01*
X109224000Y-124700000D01*
X109224000Y-123260000D01*
G36*
X109224000Y-123260000D02*
G01*
X111004000Y-123260000D01*
X111004000Y-124700000D01*
X109224000Y-124700000D01*
X109224000Y-123260000D01*
G37*
%TO.C,U12*%
X104794000Y-93166000D02*
X106574000Y-93166000D01*
X106574000Y-94606000D01*
X104794000Y-94606000D01*
X104794000Y-93166000D01*
G36*
X104794000Y-93166000D02*
G01*
X106574000Y-93166000D01*
X106574000Y-94606000D01*
X104794000Y-94606000D01*
X104794000Y-93166000D01*
G37*
X104794000Y-96876000D02*
X106574000Y-96876000D01*
X106574000Y-98316000D01*
X104794000Y-98316000D01*
X104794000Y-96876000D01*
G36*
X104794000Y-96876000D02*
G01*
X106574000Y-96876000D01*
X106574000Y-98316000D01*
X104794000Y-98316000D01*
X104794000Y-96876000D01*
G37*
X104804000Y-95036000D02*
X106584000Y-95036000D01*
X106584000Y-96476000D01*
X104804000Y-96476000D01*
X104804000Y-95036000D01*
G36*
X104804000Y-95036000D02*
G01*
X106584000Y-95036000D01*
X106584000Y-96476000D01*
X104804000Y-96476000D01*
X104804000Y-95036000D01*
G37*
X104804000Y-98926000D02*
X106584000Y-98926000D01*
X106584000Y-100796000D01*
X104804000Y-100796000D01*
X104804000Y-98926000D01*
G36*
X104804000Y-98926000D02*
G01*
X106584000Y-98926000D01*
X106584000Y-100796000D01*
X104804000Y-100796000D01*
X104804000Y-98926000D01*
G37*
X107004000Y-93166000D02*
X108784000Y-93166000D01*
X108784000Y-94606000D01*
X107004000Y-94606000D01*
X107004000Y-93166000D01*
G36*
X107004000Y-93166000D02*
G01*
X108784000Y-93166000D01*
X108784000Y-94606000D01*
X107004000Y-94606000D01*
X107004000Y-93166000D01*
G37*
X107004000Y-96876000D02*
X108784000Y-96876000D01*
X108784000Y-98316000D01*
X107004000Y-98316000D01*
X107004000Y-96876000D01*
G36*
X107004000Y-96876000D02*
G01*
X108784000Y-96876000D01*
X108784000Y-98316000D01*
X107004000Y-98316000D01*
X107004000Y-96876000D01*
G37*
X107014000Y-95036000D02*
X108794000Y-95036000D01*
X108794000Y-96476000D01*
X107014000Y-96476000D01*
X107014000Y-95036000D01*
G36*
X107014000Y-95036000D02*
G01*
X108794000Y-95036000D01*
X108794000Y-96476000D01*
X107014000Y-96476000D01*
X107014000Y-95036000D01*
G37*
X107014000Y-98916000D02*
X108794000Y-98916000D01*
X108794000Y-100786000D01*
X107014000Y-100786000D01*
X107014000Y-98916000D01*
G36*
X107014000Y-98916000D02*
G01*
X108794000Y-98916000D01*
X108794000Y-100786000D01*
X107014000Y-100786000D01*
X107014000Y-98916000D01*
G37*
X109214000Y-93156000D02*
X110994000Y-93156000D01*
X110994000Y-94596000D01*
X109214000Y-94596000D01*
X109214000Y-93156000D01*
G36*
X109214000Y-93156000D02*
G01*
X110994000Y-93156000D01*
X110994000Y-94596000D01*
X109214000Y-94596000D01*
X109214000Y-93156000D01*
G37*
X109214000Y-96866000D02*
X110994000Y-96866000D01*
X110994000Y-98306000D01*
X109214000Y-98306000D01*
X109214000Y-96866000D01*
G36*
X109214000Y-96866000D02*
G01*
X110994000Y-96866000D01*
X110994000Y-98306000D01*
X109214000Y-98306000D01*
X109214000Y-96866000D01*
G37*
X109214000Y-98896000D02*
X110994000Y-98896000D01*
X110994000Y-100776000D01*
X109214000Y-100776000D01*
X109214000Y-98896000D01*
G36*
X109214000Y-98896000D02*
G01*
X110994000Y-98896000D01*
X110994000Y-100776000D01*
X109214000Y-100776000D01*
X109214000Y-98896000D01*
G37*
X109224000Y-95026000D02*
X111004000Y-95026000D01*
X111004000Y-96466000D01*
X109224000Y-96466000D01*
X109224000Y-95026000D01*
G36*
X109224000Y-95026000D02*
G01*
X111004000Y-95026000D01*
X111004000Y-96466000D01*
X109224000Y-96466000D01*
X109224000Y-95026000D01*
G37*
%TO.C,U27*%
X74832258Y-149130000D02*
X76612258Y-149130000D01*
X76612258Y-150570000D01*
X74832258Y-150570000D01*
X74832258Y-149130000D01*
G36*
X74832258Y-149130000D02*
G01*
X76612258Y-149130000D01*
X76612258Y-150570000D01*
X74832258Y-150570000D01*
X74832258Y-149130000D01*
G37*
X74832258Y-152840000D02*
X76612258Y-152840000D01*
X76612258Y-154280000D01*
X74832258Y-154280000D01*
X74832258Y-152840000D01*
G36*
X74832258Y-152840000D02*
G01*
X76612258Y-152840000D01*
X76612258Y-154280000D01*
X74832258Y-154280000D01*
X74832258Y-152840000D01*
G37*
X74842258Y-151000000D02*
X76622258Y-151000000D01*
X76622258Y-152440000D01*
X74842258Y-152440000D01*
X74842258Y-151000000D01*
G36*
X74842258Y-151000000D02*
G01*
X76622258Y-151000000D01*
X76622258Y-152440000D01*
X74842258Y-152440000D01*
X74842258Y-151000000D01*
G37*
X74842258Y-154890000D02*
X76622258Y-154890000D01*
X76622258Y-156760000D01*
X74842258Y-156760000D01*
X74842258Y-154890000D01*
G36*
X74842258Y-154890000D02*
G01*
X76622258Y-154890000D01*
X76622258Y-156760000D01*
X74842258Y-156760000D01*
X74842258Y-154890000D01*
G37*
X77042258Y-149130000D02*
X78822258Y-149130000D01*
X78822258Y-150570000D01*
X77042258Y-150570000D01*
X77042258Y-149130000D01*
G36*
X77042258Y-149130000D02*
G01*
X78822258Y-149130000D01*
X78822258Y-150570000D01*
X77042258Y-150570000D01*
X77042258Y-149130000D01*
G37*
X77042258Y-152840000D02*
X78822258Y-152840000D01*
X78822258Y-154280000D01*
X77042258Y-154280000D01*
X77042258Y-152840000D01*
G36*
X77042258Y-152840000D02*
G01*
X78822258Y-152840000D01*
X78822258Y-154280000D01*
X77042258Y-154280000D01*
X77042258Y-152840000D01*
G37*
X77052258Y-151000000D02*
X78832258Y-151000000D01*
X78832258Y-152440000D01*
X77052258Y-152440000D01*
X77052258Y-151000000D01*
G36*
X77052258Y-151000000D02*
G01*
X78832258Y-151000000D01*
X78832258Y-152440000D01*
X77052258Y-152440000D01*
X77052258Y-151000000D01*
G37*
X77052258Y-154880000D02*
X78832258Y-154880000D01*
X78832258Y-156750000D01*
X77052258Y-156750000D01*
X77052258Y-154880000D01*
G36*
X77052258Y-154880000D02*
G01*
X78832258Y-154880000D01*
X78832258Y-156750000D01*
X77052258Y-156750000D01*
X77052258Y-154880000D01*
G37*
X79252258Y-149120000D02*
X81032258Y-149120000D01*
X81032258Y-150560000D01*
X79252258Y-150560000D01*
X79252258Y-149120000D01*
G36*
X79252258Y-149120000D02*
G01*
X81032258Y-149120000D01*
X81032258Y-150560000D01*
X79252258Y-150560000D01*
X79252258Y-149120000D01*
G37*
X79252258Y-152830000D02*
X81032258Y-152830000D01*
X81032258Y-154270000D01*
X79252258Y-154270000D01*
X79252258Y-152830000D01*
G36*
X79252258Y-152830000D02*
G01*
X81032258Y-152830000D01*
X81032258Y-154270000D01*
X79252258Y-154270000D01*
X79252258Y-152830000D01*
G37*
X79252258Y-154860000D02*
X81032258Y-154860000D01*
X81032258Y-156740000D01*
X79252258Y-156740000D01*
X79252258Y-154860000D01*
G36*
X79252258Y-154860000D02*
G01*
X81032258Y-154860000D01*
X81032258Y-156740000D01*
X79252258Y-156740000D01*
X79252258Y-154860000D01*
G37*
X79262258Y-150990000D02*
X81042258Y-150990000D01*
X81042258Y-152430000D01*
X79262258Y-152430000D01*
X79262258Y-150990000D01*
G36*
X79262258Y-150990000D02*
G01*
X81042258Y-150990000D01*
X81042258Y-152430000D01*
X79262258Y-152430000D01*
X79262258Y-150990000D01*
G37*
%TO.C,U22*%
X74832258Y-93173758D02*
X76612258Y-93173758D01*
X76612258Y-94613758D01*
X74832258Y-94613758D01*
X74832258Y-93173758D01*
G36*
X74832258Y-93173758D02*
G01*
X76612258Y-93173758D01*
X76612258Y-94613758D01*
X74832258Y-94613758D01*
X74832258Y-93173758D01*
G37*
X74832258Y-96883758D02*
X76612258Y-96883758D01*
X76612258Y-98323758D01*
X74832258Y-98323758D01*
X74832258Y-96883758D01*
G36*
X74832258Y-96883758D02*
G01*
X76612258Y-96883758D01*
X76612258Y-98323758D01*
X74832258Y-98323758D01*
X74832258Y-96883758D01*
G37*
X74842258Y-95043758D02*
X76622258Y-95043758D01*
X76622258Y-96483758D01*
X74842258Y-96483758D01*
X74842258Y-95043758D01*
G36*
X74842258Y-95043758D02*
G01*
X76622258Y-95043758D01*
X76622258Y-96483758D01*
X74842258Y-96483758D01*
X74842258Y-95043758D01*
G37*
X74842258Y-98933758D02*
X76622258Y-98933758D01*
X76622258Y-100803758D01*
X74842258Y-100803758D01*
X74842258Y-98933758D01*
G36*
X74842258Y-98933758D02*
G01*
X76622258Y-98933758D01*
X76622258Y-100803758D01*
X74842258Y-100803758D01*
X74842258Y-98933758D01*
G37*
X77042258Y-93173758D02*
X78822258Y-93173758D01*
X78822258Y-94613758D01*
X77042258Y-94613758D01*
X77042258Y-93173758D01*
G36*
X77042258Y-93173758D02*
G01*
X78822258Y-93173758D01*
X78822258Y-94613758D01*
X77042258Y-94613758D01*
X77042258Y-93173758D01*
G37*
X77042258Y-96883758D02*
X78822258Y-96883758D01*
X78822258Y-98323758D01*
X77042258Y-98323758D01*
X77042258Y-96883758D01*
G36*
X77042258Y-96883758D02*
G01*
X78822258Y-96883758D01*
X78822258Y-98323758D01*
X77042258Y-98323758D01*
X77042258Y-96883758D01*
G37*
X77052258Y-95043758D02*
X78832258Y-95043758D01*
X78832258Y-96483758D01*
X77052258Y-96483758D01*
X77052258Y-95043758D01*
G36*
X77052258Y-95043758D02*
G01*
X78832258Y-95043758D01*
X78832258Y-96483758D01*
X77052258Y-96483758D01*
X77052258Y-95043758D01*
G37*
X77052258Y-98923758D02*
X78832258Y-98923758D01*
X78832258Y-100793758D01*
X77052258Y-100793758D01*
X77052258Y-98923758D01*
G36*
X77052258Y-98923758D02*
G01*
X78832258Y-98923758D01*
X78832258Y-100793758D01*
X77052258Y-100793758D01*
X77052258Y-98923758D01*
G37*
X79252258Y-93163758D02*
X81032258Y-93163758D01*
X81032258Y-94603758D01*
X79252258Y-94603758D01*
X79252258Y-93163758D01*
G36*
X79252258Y-93163758D02*
G01*
X81032258Y-93163758D01*
X81032258Y-94603758D01*
X79252258Y-94603758D01*
X79252258Y-93163758D01*
G37*
X79252258Y-96873758D02*
X81032258Y-96873758D01*
X81032258Y-98313758D01*
X79252258Y-98313758D01*
X79252258Y-96873758D01*
G36*
X79252258Y-96873758D02*
G01*
X81032258Y-96873758D01*
X81032258Y-98313758D01*
X79252258Y-98313758D01*
X79252258Y-96873758D01*
G37*
X79252258Y-98903758D02*
X81032258Y-98903758D01*
X81032258Y-100783758D01*
X79252258Y-100783758D01*
X79252258Y-98903758D01*
G36*
X79252258Y-98903758D02*
G01*
X81032258Y-98903758D01*
X81032258Y-100783758D01*
X79252258Y-100783758D01*
X79252258Y-98903758D01*
G37*
X79262258Y-95033758D02*
X81042258Y-95033758D01*
X81042258Y-96473758D01*
X79262258Y-96473758D01*
X79262258Y-95033758D01*
G36*
X79262258Y-95033758D02*
G01*
X81042258Y-95033758D01*
X81042258Y-96473758D01*
X79262258Y-96473758D01*
X79262258Y-95033758D01*
G37*
%TD*%
D13*
%TO.C,J4*%
X129900000Y-57360000D03*
X130916000Y-62440000D03*
X128884000Y-62440000D03*
D14*
X129265000Y-58630000D03*
X130535000Y-58630000D03*
X129265000Y-59900000D03*
X130535000Y-59900000D03*
X129265000Y-61170000D03*
X130535000Y-61170000D03*
%TD*%
D15*
%TO.C,TP5*%
X80900000Y-71950000D03*
%TD*%
D16*
%TO.C,R18*%
X88850000Y-54430000D03*
X88850000Y-53410000D03*
%TD*%
D17*
%TO.C,H1*%
X51250000Y-49500000D03*
X51909010Y-47909010D03*
X51909010Y-51090990D03*
X53500000Y-47250000D03*
D18*
X53500000Y-49500000D03*
D17*
X53500000Y-51750000D03*
X55090990Y-47909010D03*
X55090990Y-51090990D03*
X55750000Y-49500000D03*
%TD*%
D19*
%TO.C,Y1*%
X101300000Y-56777600D03*
X101300000Y-59622400D03*
%TD*%
D20*
%TO.C,J1*%
X65500000Y-54864000D03*
X65500000Y-49784000D03*
%TD*%
D21*
%TO.C,J8*%
X84780000Y-58489999D03*
D22*
X79700000Y-60650000D03*
X82240000Y-60650000D03*
X84780000Y-60650000D03*
X87320000Y-60650000D03*
%TD*%
D23*
%TO.C,H13*%
X92250000Y-97000000D03*
%TD*%
D17*
%TO.C,TP1*%
X54700000Y-67950000D03*
%TD*%
D24*
%TO.C,C23*%
X56475000Y-77300000D03*
X56475000Y-79200000D03*
%TD*%
D25*
%TO.C,R25*%
X88560000Y-67725000D03*
X87540000Y-67725000D03*
%TD*%
D26*
%TO.C,SW2*%
X81650000Y-46667500D03*
X77950000Y-46667500D03*
D27*
X81030000Y-48867500D03*
X78570000Y-48867500D03*
D28*
X79800000Y-48767500D03*
%TD*%
D17*
%TO.C,H4*%
X128750000Y-172000000D03*
X129409010Y-170409010D03*
X129409010Y-173590990D03*
X131000000Y-169750000D03*
D18*
X131000000Y-172000000D03*
D17*
X131000000Y-174250000D03*
X132590990Y-170409010D03*
X132590990Y-173590990D03*
X133250000Y-172000000D03*
%TD*%
D29*
%TO.C,FID3*%
X53340000Y-54356000D03*
%TD*%
D30*
%TO.C,U18*%
X81848258Y-128724000D03*
X81848258Y-128222000D03*
X81848258Y-127720000D03*
X81848258Y-127218000D03*
X81848258Y-126716000D03*
X81848258Y-126214000D03*
X81848258Y-125712000D03*
X81848258Y-125210000D03*
X81848258Y-124708000D03*
X81848258Y-124206000D03*
X81848258Y-123704000D03*
X81848258Y-123202000D03*
X81848258Y-122700000D03*
X81848258Y-122198000D03*
X81848258Y-121696000D03*
X74016258Y-121696000D03*
X74016258Y-122198000D03*
X74016258Y-122700000D03*
X74016258Y-123202000D03*
X74016258Y-123704000D03*
X74016258Y-124206000D03*
X74016258Y-124708000D03*
X74016258Y-125210000D03*
X74016258Y-125712000D03*
X74016258Y-126214000D03*
X74016258Y-126716000D03*
X74016258Y-127218000D03*
X74016258Y-127720000D03*
X74016258Y-128222000D03*
X74016258Y-128724000D03*
%TD*%
D31*
%TO.C,L2*%
X71400000Y-76925000D03*
X71400000Y-70275000D03*
%TD*%
D32*
%TO.C,C13*%
X55500000Y-64225000D03*
X54540000Y-64225000D03*
%TD*%
D33*
%TO.C,C5*%
X53225000Y-79000000D03*
X54775000Y-79000000D03*
%TD*%
D32*
%TO.C,C36*%
X99380000Y-56800000D03*
X98420000Y-56800000D03*
%TD*%
D34*
%TO.C,C10*%
X68828000Y-63650000D03*
X74428000Y-63650000D03*
%TD*%
D23*
%TO.C,H15*%
X92250000Y-153000000D03*
%TD*%
D35*
%TO.C,J6*%
X121760000Y-69500000D03*
D36*
X119220000Y-69500000D03*
X116680000Y-69500000D03*
X114140000Y-69500000D03*
X111600000Y-69500000D03*
X109060000Y-69500000D03*
%TD*%
D37*
%TO.C,R8*%
X55545000Y-61990000D03*
X55545000Y-63010000D03*
%TD*%
D21*
%TO.C,J9*%
X89990000Y-70214999D03*
D22*
X84910000Y-72375000D03*
X87450000Y-72375000D03*
X89990000Y-72375000D03*
X92530000Y-72375000D03*
%TD*%
D38*
%TO.C,C40*%
X88900000Y-173180000D03*
X88900000Y-172220000D03*
%TD*%
D23*
%TO.C,H14*%
X92250000Y-125000000D03*
%TD*%
D15*
%TO.C,TP6*%
X82296000Y-67818000D03*
%TD*%
D23*
%TO.C,H10*%
X122500000Y-125000000D03*
%TD*%
D39*
%TO.C,C27*%
X79500000Y-69850000D03*
X79500000Y-66900000D03*
%TD*%
D40*
%TO.C,C2*%
X61845000Y-68000000D03*
X62805000Y-68000000D03*
%TD*%
D30*
%TO.C,U25*%
X111810000Y-156448000D03*
X111810000Y-155946000D03*
X111810000Y-155444000D03*
X111810000Y-154942000D03*
X111810000Y-154440000D03*
X111810000Y-153938000D03*
X111810000Y-153436000D03*
X111810000Y-152934000D03*
X111810000Y-152432000D03*
X111810000Y-151930000D03*
X111810000Y-151428000D03*
X111810000Y-150926000D03*
X111810000Y-150424000D03*
X111810000Y-149922000D03*
X111810000Y-149420000D03*
X103978000Y-149420000D03*
X103978000Y-149922000D03*
X103978000Y-150424000D03*
X103978000Y-150926000D03*
X103978000Y-151428000D03*
X103978000Y-151930000D03*
X103978000Y-152432000D03*
X103978000Y-152934000D03*
X103978000Y-153436000D03*
X103978000Y-153938000D03*
X103978000Y-154440000D03*
X103978000Y-154942000D03*
X103978000Y-155444000D03*
X103978000Y-155946000D03*
X103978000Y-156448000D03*
%TD*%
D23*
%TO.C,H9*%
X62000000Y-125000000D03*
%TD*%
D29*
%TO.C,FID1*%
X132842000Y-54050000D03*
%TD*%
D41*
%TO.C,U9*%
X95900000Y-67675000D03*
X95900000Y-67175000D03*
X95900000Y-66675000D03*
X95900000Y-66175000D03*
X95900000Y-65675000D03*
X91500000Y-65675000D03*
X91500000Y-66175000D03*
X91500000Y-66675000D03*
X91500000Y-67175000D03*
X91500000Y-67675000D03*
%TD*%
D32*
%TO.C,C37*%
X99380000Y-59600000D03*
X98420000Y-59600000D03*
%TD*%
D25*
%TO.C,R9*%
X55555000Y-65500000D03*
X54535000Y-65500000D03*
%TD*%
D30*
%TO.C,U13*%
X111810000Y-128724000D03*
X111810000Y-128222000D03*
X111810000Y-127720000D03*
X111810000Y-127218000D03*
X111810000Y-126716000D03*
X111810000Y-126214000D03*
X111810000Y-125712000D03*
X111810000Y-125210000D03*
X111810000Y-124708000D03*
X111810000Y-124206000D03*
X111810000Y-123704000D03*
X111810000Y-123202000D03*
X111810000Y-122700000D03*
X111810000Y-122198000D03*
X111810000Y-121696000D03*
X103978000Y-121696000D03*
X103978000Y-122198000D03*
X103978000Y-122700000D03*
X103978000Y-123202000D03*
X103978000Y-123704000D03*
X103978000Y-124206000D03*
X103978000Y-124708000D03*
X103978000Y-125210000D03*
X103978000Y-125712000D03*
X103978000Y-126214000D03*
X103978000Y-126716000D03*
X103978000Y-127218000D03*
X103978000Y-127720000D03*
X103978000Y-128222000D03*
X103978000Y-128724000D03*
%TD*%
D37*
%TO.C,R13*%
X56725000Y-63890000D03*
X56725000Y-64910000D03*
%TD*%
D42*
%TO.C,U3*%
X55650000Y-74250000D03*
X56150000Y-74250000D03*
X56650000Y-74250000D03*
X57150000Y-74250000D03*
X57650000Y-74250000D03*
X58150000Y-74250000D03*
X58650000Y-74250000D03*
X59150000Y-74250000D03*
X59650000Y-74250000D03*
X60150000Y-74250000D03*
X60650000Y-74250000D03*
X61150000Y-74250000D03*
D43*
X61900000Y-73500000D03*
X61900000Y-73000000D03*
X61900000Y-72500000D03*
X61900000Y-72000000D03*
X61900000Y-71500000D03*
X61900000Y-71000000D03*
X61900000Y-70500000D03*
X61900000Y-70000000D03*
D42*
X61150000Y-69250000D03*
X60650000Y-69250000D03*
X60150000Y-69250000D03*
X59650000Y-69250000D03*
X59150000Y-69250000D03*
X58650000Y-69250000D03*
X58150000Y-69250000D03*
X57650000Y-69250000D03*
X57150000Y-69250000D03*
X56650000Y-69250000D03*
X56150000Y-69250000D03*
X55650000Y-69250000D03*
D43*
X54900000Y-70000000D03*
X54900000Y-70500000D03*
X54900000Y-71000000D03*
X54900000Y-71500000D03*
X54900000Y-72000000D03*
X54900000Y-72500000D03*
X54900000Y-73000000D03*
X54900000Y-73500000D03*
D44*
X57000000Y-73030000D03*
X58400000Y-73030000D03*
X59800000Y-73030000D03*
X56000000Y-71750000D03*
X57000000Y-71750000D03*
X58400000Y-71750000D03*
D45*
X58400000Y-71750000D03*
D44*
X59800000Y-71750000D03*
X60800000Y-71750000D03*
X57000000Y-70470000D03*
X58400000Y-70470000D03*
X59800000Y-70470000D03*
%TD*%
D29*
%TO.C,FID7*%
X58725000Y-173825000D03*
%TD*%
D40*
%TO.C,C16*%
X61845000Y-66825000D03*
X62805000Y-66825000D03*
%TD*%
D30*
%TO.C,U12*%
X111810000Y-100490000D03*
X111810000Y-99988000D03*
X111810000Y-99486000D03*
X111810000Y-98984000D03*
X111810000Y-98482000D03*
X111810000Y-97980000D03*
X111810000Y-97478000D03*
X111810000Y-96976000D03*
X111810000Y-96474000D03*
X111810000Y-95972000D03*
X111810000Y-95470000D03*
X111810000Y-94968000D03*
X111810000Y-94466000D03*
X111810000Y-93964000D03*
X111810000Y-93462000D03*
X103978000Y-93462000D03*
X103978000Y-93964000D03*
X103978000Y-94466000D03*
X103978000Y-94968000D03*
X103978000Y-95470000D03*
X103978000Y-95972000D03*
X103978000Y-96474000D03*
X103978000Y-96976000D03*
X103978000Y-97478000D03*
X103978000Y-97980000D03*
X103978000Y-98482000D03*
X103978000Y-98984000D03*
X103978000Y-99486000D03*
X103978000Y-99988000D03*
X103978000Y-100490000D03*
%TD*%
D46*
%TO.C,U7*%
X83500100Y-54899999D03*
X83500100Y-54400000D03*
X83500100Y-53900001D03*
X81899900Y-53900001D03*
X81899900Y-54400000D03*
X81899900Y-54899999D03*
%TD*%
D23*
%TO.C,H12*%
X122500000Y-153000000D03*
%TD*%
D24*
%TO.C,C22*%
X58575000Y-77300000D03*
X58575000Y-79200000D03*
%TD*%
D23*
%TO.C,H8*%
X122500000Y-97000000D03*
%TD*%
%TO.C,H7*%
X62000000Y-97000000D03*
%TD*%
D35*
%TO.C,J5*%
X125800000Y-55200000D03*
D36*
X125800000Y-57740000D03*
X125800000Y-60280000D03*
X125800000Y-62820000D03*
%TD*%
D47*
%TO.C,U6*%
X104350000Y-47780000D03*
X104350000Y-49050000D03*
X104350000Y-50320000D03*
X104350000Y-51590000D03*
X104350000Y-52860000D03*
X104350000Y-54130000D03*
X104350000Y-55400000D03*
X104350000Y-56670000D03*
X104350000Y-57940000D03*
X104350000Y-59210000D03*
X104350000Y-60480000D03*
X104350000Y-61750000D03*
X104350000Y-63020000D03*
X104350000Y-64290000D03*
D48*
X106115000Y-65540000D03*
X107385000Y-65540000D03*
X108655000Y-65540000D03*
X109925000Y-65540000D03*
X111195000Y-65540000D03*
X112465000Y-65540000D03*
X113735000Y-65540000D03*
X115005000Y-65540000D03*
X116275000Y-65540000D03*
X117545000Y-65540000D03*
X118815000Y-65540000D03*
X120085000Y-65540000D03*
D47*
X121850000Y-64290000D03*
X121850000Y-63020000D03*
X121850000Y-61750000D03*
X121850000Y-60480000D03*
X121850000Y-59210000D03*
X121850000Y-57940000D03*
X121850000Y-56670000D03*
X121850000Y-55400000D03*
X121850000Y-54130000D03*
X121850000Y-52860000D03*
X121850000Y-51590000D03*
X121850000Y-50320000D03*
X121850000Y-49050000D03*
X121850000Y-47780000D03*
D49*
X110200000Y-54100000D03*
X110200000Y-55500000D03*
X110200000Y-56900000D03*
X111600000Y-54100000D03*
X111600000Y-55500000D03*
X111600000Y-56900000D03*
X113000000Y-54100000D03*
X113000000Y-55500000D03*
X113000000Y-56900000D03*
%TD*%
D50*
%TO.C,C9*%
X66125000Y-58300000D03*
X69075000Y-58300000D03*
%TD*%
D29*
%TO.C,FID5*%
X125984000Y-173228000D03*
%TD*%
D51*
%TO.C,C32*%
X90300000Y-53440000D03*
X90300000Y-54400000D03*
%TD*%
D17*
%TO.C,H5*%
X51250000Y-110750000D03*
X51909010Y-109159010D03*
X51909010Y-112340990D03*
X53500000Y-108500000D03*
D18*
X53500000Y-110750000D03*
D17*
X53500000Y-113000000D03*
X55090990Y-109159010D03*
X55090990Y-112340990D03*
X55750000Y-110750000D03*
%TD*%
D52*
%TO.C,J7*%
X99560000Y-52300000D03*
X93780000Y-52300000D03*
D53*
X99870000Y-53420000D03*
X99070000Y-53420000D03*
D54*
X97920000Y-53375000D03*
X96920000Y-53375000D03*
X96420000Y-53375000D03*
X95420000Y-53375000D03*
D53*
X94270000Y-53420000D03*
X93470000Y-53420000D03*
X93470000Y-53420000D03*
X94270000Y-53420000D03*
D54*
X94920000Y-53375000D03*
X95920000Y-53375000D03*
X97420000Y-53375000D03*
X98420000Y-53375000D03*
D53*
X99070000Y-53420000D03*
X99870000Y-53420000D03*
D55*
X100990000Y-52800000D03*
D56*
X100990000Y-48620000D03*
D55*
X92350000Y-52800000D03*
D56*
X92350000Y-48620000D03*
%TD*%
D57*
%TO.C,R17*%
X103090000Y-67225000D03*
X104110000Y-67225000D03*
%TD*%
D58*
%TO.C,R14*%
X60387500Y-78750000D03*
X63312500Y-78750000D03*
%TD*%
D30*
%TO.C,U27*%
X81848258Y-156454000D03*
X81848258Y-155952000D03*
X81848258Y-155450000D03*
X81848258Y-154948000D03*
X81848258Y-154446000D03*
X81848258Y-153944000D03*
X81848258Y-153442000D03*
X81848258Y-152940000D03*
X81848258Y-152438000D03*
X81848258Y-151936000D03*
X81848258Y-151434000D03*
X81848258Y-150932000D03*
X81848258Y-150430000D03*
X81848258Y-149928000D03*
X81848258Y-149426000D03*
X74016258Y-149426000D03*
X74016258Y-149928000D03*
X74016258Y-150430000D03*
X74016258Y-150932000D03*
X74016258Y-151434000D03*
X74016258Y-151936000D03*
X74016258Y-152438000D03*
X74016258Y-152940000D03*
X74016258Y-153442000D03*
X74016258Y-153944000D03*
X74016258Y-154446000D03*
X74016258Y-154948000D03*
X74016258Y-155450000D03*
X74016258Y-155952000D03*
X74016258Y-156454000D03*
%TD*%
D26*
%TO.C,SW1*%
X89200000Y-46667500D03*
X85500000Y-46667500D03*
D27*
X88580000Y-48867500D03*
X86120000Y-48867500D03*
D28*
X87350000Y-48767500D03*
%TD*%
D17*
%TO.C,H2*%
X128750000Y-49500000D03*
X129409010Y-47909010D03*
X129409010Y-51090990D03*
X131000000Y-47250000D03*
D18*
X131000000Y-49500000D03*
D17*
X131000000Y-51750000D03*
X132590990Y-47909010D03*
X132590990Y-51090990D03*
X133250000Y-49500000D03*
%TD*%
%TO.C,H3*%
X51250000Y-172000000D03*
X51909010Y-170409010D03*
X51909010Y-173590990D03*
X53500000Y-169750000D03*
D18*
X53500000Y-172000000D03*
D17*
X53500000Y-174250000D03*
X55090990Y-170409010D03*
X55090990Y-173590990D03*
X55750000Y-172000000D03*
%TD*%
D59*
%TO.C,D1*%
X64145000Y-61210000D03*
X65370000Y-61210000D03*
%TD*%
D51*
%TO.C,C24*%
X53025000Y-69795000D03*
X53025000Y-70755000D03*
%TD*%
D23*
%TO.C,H11*%
X62000000Y-153000000D03*
%TD*%
D30*
%TO.C,U22*%
X81848258Y-100497758D03*
X81848258Y-99995758D03*
X81848258Y-99493758D03*
X81848258Y-98991758D03*
X81848258Y-98489758D03*
X81848258Y-97987758D03*
X81848258Y-97485758D03*
X81848258Y-96983758D03*
X81848258Y-96481758D03*
X81848258Y-95979758D03*
X81848258Y-95477758D03*
X81848258Y-94975758D03*
X81848258Y-94473758D03*
X81848258Y-93971758D03*
X81848258Y-93469758D03*
X74016258Y-93469758D03*
X74016258Y-93971758D03*
X74016258Y-94473758D03*
X74016258Y-94975758D03*
X74016258Y-95477758D03*
X74016258Y-95979758D03*
X74016258Y-96481758D03*
X74016258Y-96983758D03*
X74016258Y-97485758D03*
X74016258Y-97987758D03*
X74016258Y-98489758D03*
X74016258Y-98991758D03*
X74016258Y-99493758D03*
X74016258Y-99995758D03*
X74016258Y-100497758D03*
%TD*%
D51*
%TO.C,C38*%
X95600000Y-69120000D03*
X95600000Y-70080000D03*
%TD*%
D17*
%TO.C,H6*%
X128750000Y-110750000D03*
X129409010Y-109159010D03*
X129409010Y-112340990D03*
X131000000Y-108500000D03*
D18*
X131000000Y-110750000D03*
D17*
X131000000Y-113000000D03*
X132590990Y-109159010D03*
X132590990Y-112340990D03*
X133250000Y-110750000D03*
%TD*%
D60*
%TO.C,C14*%
X62125000Y-65275000D03*
X64025000Y-65275000D03*
%TD*%
D46*
%TO.C,U8*%
X92400900Y-173699999D03*
X92400900Y-173200000D03*
X92400900Y-172700001D03*
X90800700Y-172700001D03*
X90800700Y-173200000D03*
X90800700Y-173699999D03*
%TD*%
D15*
%TO.C,TP32*%
X93300000Y-56750000D03*
%TD*%
D20*
%TO.C,J2*%
X72644000Y-54864000D03*
X72644000Y-49784000D03*
%TD*%
D25*
%TO.C,R24*%
X88535000Y-66125000D03*
X87515000Y-66125000D03*
%TD*%
D35*
%TO.C,J3*%
X54450000Y-98970000D03*
D36*
X56990000Y-98970000D03*
X54450000Y-96430000D03*
X56990000Y-96430000D03*
X54450000Y-93890000D03*
X56990000Y-93890000D03*
X54450000Y-91350000D03*
X56990000Y-91350000D03*
X54450000Y-88810000D03*
X56990000Y-88810000D03*
%TD*%
M02*
