%TF.GenerationSoftware,KiCad,Pcbnew,8.0.1*%
%TF.CreationDate,2024-08-12T17:27:01+08:00*%
%TF.ProjectId,bitaxeHex,62697461-7865-4486-9578-2e6b69636164,302*%
%TF.SameCoordinates,Original*%
%TF.FileFunction,Soldermask,Top*%
%TF.FilePolarity,Negative*%
%FSLAX46Y46*%
G04 Gerber Fmt 4.6, Leading zero omitted, Abs format (unit mm)*
G04 Created by KiCad (PCBNEW 8.0.1) date 2024-08-12 17:27:01*
%MOMM*%
%LPD*%
G01*
G04 APERTURE LIST*
G04 Aperture macros list*
%AMRoundRect*
0 Rectangle with rounded corners*
0 $1 Rounding radius*
0 $2 $3 $4 $5 $6 $7 $8 $9 X,Y pos of 4 corners*
0 Add a 4 corners polygon primitive as box body*
4,1,4,$2,$3,$4,$5,$6,$7,$8,$9,$2,$3,0*
0 Add four circle primitives for the rounded corners*
1,1,$1+$1,$2,$3*
1,1,$1+$1,$4,$5*
1,1,$1+$1,$6,$7*
1,1,$1+$1,$8,$9*
0 Add four rect primitives between the rounded corners*
20,1,$1+$1,$2,$3,$4,$5,0*
20,1,$1+$1,$4,$5,$6,$7,0*
20,1,$1+$1,$6,$7,$8,$9,0*
20,1,$1+$1,$8,$9,$2,$3,0*%
G04 Aperture macros list end*
%ADD10C,0.000000*%
%ADD11C,0.200000*%
%ADD12C,0.100000*%
%ADD13R,0.792000X0.221000*%
%ADD14R,4.277000X1.810000*%
%ADD15R,4.277000X4.530000*%
%ADD16C,0.990600*%
%ADD17C,0.787400*%
%ADD18C,1.000000*%
%ADD19RoundRect,0.135000X0.185000X-0.135000X0.185000X0.135000X-0.185000X0.135000X-0.185000X-0.135000X0*%
%ADD20C,0.800000*%
%ADD21C,6.000000*%
%ADD22R,1.600200X1.168400*%
%ADD23C,2.520000*%
%ADD24C,1.295400*%
%ADD25C,1.574800*%
%ADD26C,5.000000*%
%ADD27RoundRect,0.250000X-0.475000X0.250000X-0.475000X-0.250000X0.475000X-0.250000X0.475000X0.250000X0*%
%ADD28RoundRect,0.135000X0.135000X0.185000X-0.135000X0.185000X-0.135000X-0.185000X0.135000X-0.185000X0*%
%ADD29RoundRect,0.200000X0.450000X0.200000X-0.450000X0.200000X-0.450000X-0.200000X0.450000X-0.200000X0*%
%ADD30O,0.740000X1.750000*%
%ADD31RoundRect,0.150000X0.150000X0.750000X-0.150000X0.750000X-0.150000X-0.750000X0.150000X-0.750000X0*%
%ADD32C,2.000000*%
%ADD33R,9.000000X2.380000*%
%ADD34RoundRect,0.140000X0.140000X0.170000X-0.140000X0.170000X-0.140000X-0.170000X0.140000X-0.170000X0*%
%ADD35RoundRect,0.225000X-0.225000X-0.250000X0.225000X-0.250000X0.225000X0.250000X-0.225000X0.250000X0*%
%ADD36RoundRect,0.250000X-1.500000X-0.550000X1.500000X-0.550000X1.500000X0.550000X-1.500000X0.550000X0*%
%ADD37R,1.700000X1.700000*%
%ADD38O,1.700000X1.700000*%
%ADD39RoundRect,0.135000X-0.185000X0.135000X-0.185000X-0.135000X0.185000X-0.135000X0.185000X0.135000X0*%
%ADD40RoundRect,0.140000X0.170000X-0.140000X0.170000X0.140000X-0.170000X0.140000X-0.170000X-0.140000X0*%
%ADD41RoundRect,0.250000X1.100000X-0.325000X1.100000X0.325000X-1.100000X0.325000X-1.100000X-0.325000X0*%
%ADD42RoundRect,0.140000X-0.140000X-0.170000X0.140000X-0.170000X0.140000X0.170000X-0.140000X0.170000X0*%
%ADD43R,1.400000X0.300000*%
%ADD44RoundRect,0.062500X0.062500X-0.337500X0.062500X0.337500X-0.062500X0.337500X-0.062500X-0.337500X0*%
%ADD45RoundRect,0.062500X0.337500X-0.062500X0.337500X0.062500X-0.337500X0.062500X-0.337500X-0.062500X0*%
%ADD46C,0.400000*%
%ADD47R,5.300000X3.300000*%
%ADD48R,0.711200X0.228600*%
%ADD49R,1.500000X0.900000*%
%ADD50R,0.900000X1.500000*%
%ADD51R,0.900000X0.900000*%
%ADD52RoundRect,0.250000X-0.325000X-1.100000X0.325000X-1.100000X0.325000X1.100000X-0.325000X1.100000X0*%
%ADD53RoundRect,0.140000X-0.170000X0.140000X-0.170000X-0.140000X0.170000X-0.140000X0.170000X0.140000X0*%
%ADD54C,0.650000*%
%ADD55R,0.600000X1.060000*%
%ADD56R,0.300000X1.150000*%
%ADD57O,1.000000X2.100000*%
%ADD58O,1.000000X1.800000*%
%ADD59RoundRect,0.135000X-0.135000X-0.185000X0.135000X-0.185000X0.135000X0.185000X-0.135000X0.185000X0*%
%ADD60RoundRect,0.250000X-0.312500X-0.625000X0.312500X-0.625000X0.312500X0.625000X-0.312500X0.625000X0*%
%ADD61RoundRect,0.250000X-0.250000X-0.475000X0.250000X-0.475000X0.250000X0.475000X-0.250000X0.475000X0*%
G04 APERTURE END LIST*
D10*
%TO.C,REF\u002A\u002A*%
G36*
X54474962Y-123648978D02*
G01*
X54474962Y-124139364D01*
X53694347Y-124139364D01*
X52913732Y-124139364D01*
X52913732Y-123648978D01*
X52913732Y-123158592D01*
X53694347Y-123158592D01*
X54474962Y-123158592D01*
X54474962Y-123648978D01*
G37*
G36*
X54474962Y-126421161D02*
G01*
X54474962Y-126901539D01*
X53694347Y-126901539D01*
X52913732Y-126901539D01*
X52913732Y-126421161D01*
X52913732Y-125940783D01*
X53694347Y-125940783D01*
X54474962Y-125940783D01*
X54474962Y-126421161D01*
G37*
G36*
X54474962Y-131794879D02*
G01*
X54474962Y-132826204D01*
X53694347Y-132826204D01*
X52913732Y-132826204D01*
X52913756Y-132160680D01*
X52913779Y-131495156D01*
X53639327Y-131156507D01*
X53800231Y-131081370D01*
X53951496Y-131010665D01*
X54088883Y-130946379D01*
X54208155Y-130890498D01*
X54305071Y-130845008D01*
X54375395Y-130811896D01*
X54414888Y-130793148D01*
X54419918Y-130790706D01*
X54474962Y-130763553D01*
X54474962Y-131794879D01*
G37*
G36*
X55642581Y-129456047D02*
G01*
X55693366Y-129478905D01*
X55771781Y-129515882D01*
X55873768Y-129565025D01*
X55995272Y-129624379D01*
X56132236Y-129691991D01*
X56274197Y-129762701D01*
X56916885Y-130084166D01*
X56916885Y-130374829D01*
X56916885Y-130665491D01*
X56271376Y-130986630D01*
X55625868Y-131307768D01*
X55620662Y-130382528D01*
X55619771Y-130194037D01*
X55619265Y-130018097D01*
X55619134Y-129858696D01*
X55619365Y-129719820D01*
X55619945Y-129605458D01*
X55620864Y-129519594D01*
X55622108Y-129466218D01*
X55623483Y-129449262D01*
X55642581Y-129456047D01*
G37*
G36*
X54474962Y-128943147D02*
G01*
X54474656Y-129141063D01*
X54473777Y-129326330D01*
X54472386Y-129495198D01*
X54470540Y-129643912D01*
X54468300Y-129768721D01*
X54465724Y-129865873D01*
X54462871Y-129931615D01*
X54459802Y-129962194D01*
X54458855Y-129963951D01*
X54437874Y-129955666D01*
X54384569Y-129931997D01*
X54302781Y-129894721D01*
X54196353Y-129845614D01*
X54069127Y-129786452D01*
X53924944Y-129719014D01*
X53767646Y-129645075D01*
X53683244Y-129605261D01*
X52923740Y-129246572D01*
X52918467Y-128584458D01*
X52913193Y-127922343D01*
X53694077Y-127922343D01*
X54474962Y-127922343D01*
X54474962Y-128943147D01*
G37*
G36*
X53404528Y-133760566D02*
G01*
X53433223Y-133775050D01*
X53476050Y-133801515D01*
X53536933Y-133842166D01*
X53619796Y-133899210D01*
X53728563Y-133974852D01*
X53839459Y-134052045D01*
X54094657Y-134229512D01*
X54012119Y-134351054D01*
X53927798Y-134489736D01*
X53847741Y-134647850D01*
X53778640Y-134810573D01*
X53727190Y-134963079D01*
X53715187Y-135008794D01*
X53691215Y-135138842D01*
X53677646Y-135278401D01*
X53674658Y-135415952D01*
X53682429Y-135539978D01*
X53701138Y-135638959D01*
X53705256Y-135651990D01*
X53763366Y-135765685D01*
X53848423Y-135852030D01*
X53955505Y-135907479D01*
X54079688Y-135928484D01*
X54089016Y-135928572D01*
X54187614Y-135916500D01*
X54271194Y-135877691D01*
X54345411Y-135808008D01*
X54415921Y-135703311D01*
X54429022Y-135679753D01*
X54473153Y-135598387D01*
X54474057Y-136252677D01*
X54474962Y-136906967D01*
X54379887Y-136922302D01*
X54272795Y-136933187D01*
X54144954Y-136936490D01*
X54010478Y-136932707D01*
X53883483Y-136922337D01*
X53778085Y-136905878D01*
X53754394Y-136900253D01*
X53560777Y-136829005D01*
X53384166Y-136722583D01*
X53226629Y-136582953D01*
X53090235Y-136412082D01*
X52977053Y-136211937D01*
X52939311Y-136125530D01*
X52867164Y-135897547D01*
X52824684Y-135649513D01*
X52811116Y-135387393D01*
X52825702Y-135117152D01*
X52867686Y-134844755D01*
X52936310Y-134576169D01*
X53030818Y-134317356D01*
X53150453Y-134074284D01*
X53212688Y-133970997D01*
X53261756Y-133897175D01*
X53307366Y-133833218D01*
X53342331Y-133789024D01*
X53352586Y-133778304D01*
X53363994Y-133766931D01*
X53373838Y-133758712D01*
X53386041Y-133755855D01*
X53404528Y-133760566D01*
G37*
G36*
X54474962Y-138202395D02*
G01*
X54474448Y-138373622D01*
X54472820Y-138507721D01*
X54469951Y-138607586D01*
X54465713Y-138676108D01*
X54459979Y-138716179D01*
X54452620Y-138730692D01*
X54451622Y-138730854D01*
X54411722Y-138743520D01*
X54349957Y-138777878D01*
X54273875Y-138828465D01*
X54191024Y-138889818D01*
X54108954Y-138956476D01*
X54035213Y-139022975D01*
X54002514Y-139055838D01*
X53869333Y-139214762D01*
X53772271Y-139375442D01*
X53708159Y-139545837D01*
X53673828Y-139733905D01*
X53665677Y-139901776D01*
X53674561Y-140084555D01*
X53703959Y-140244034D01*
X53757213Y-140393070D01*
X53828811Y-140529768D01*
X53903680Y-140635100D01*
X54003820Y-140746789D01*
X54118165Y-140854403D01*
X54235645Y-140947509D01*
X54343313Y-141014707D01*
X54474814Y-141082705D01*
X54474888Y-141608119D01*
X54474671Y-141748430D01*
X54474021Y-141874615D01*
X54473002Y-141981444D01*
X54471679Y-142063686D01*
X54470115Y-142116111D01*
X54468460Y-142133533D01*
X54447794Y-142127557D01*
X54398995Y-142111741D01*
X54331790Y-142089249D01*
X54317346Y-142084347D01*
X54052938Y-141973673D01*
X53805553Y-141828861D01*
X53578502Y-141653380D01*
X53375098Y-141450696D01*
X53198652Y-141224277D01*
X53052478Y-140977589D01*
X52939887Y-140714100D01*
X52905473Y-140606424D01*
X52864338Y-140446843D01*
X52836552Y-140293071D01*
X52820853Y-140133255D01*
X52815976Y-139955545D01*
X52818942Y-139794770D01*
X52832394Y-139576729D01*
X52858798Y-139385685D01*
X52900800Y-139209953D01*
X52961047Y-139037846D01*
X53021380Y-138900769D01*
X53169070Y-138633358D01*
X53345395Y-138392738D01*
X53548547Y-138180497D01*
X53776717Y-137998222D01*
X54028094Y-137847499D01*
X54300869Y-137729917D01*
X54389895Y-137700318D01*
X54474962Y-137673936D01*
X54474962Y-138202395D01*
G37*
G36*
X55460738Y-122603153D02*
G01*
X55465480Y-122612537D01*
X55469683Y-122638776D01*
X55473387Y-122684024D01*
X55476632Y-122750439D01*
X55479456Y-122840175D01*
X55481900Y-122955387D01*
X55484004Y-123098232D01*
X55485807Y-123270864D01*
X55487350Y-123475440D01*
X55488671Y-123714114D01*
X55489811Y-123989043D01*
X55490573Y-124221094D01*
X55495389Y-125830696D01*
X55228754Y-126030854D01*
X54962119Y-126231011D01*
X55223938Y-126241019D01*
X55485758Y-126251027D01*
X55490905Y-127553690D01*
X55496053Y-128856352D01*
X55355799Y-128953055D01*
X55286699Y-129002226D01*
X55244815Y-129037797D01*
X55223499Y-129067517D01*
X55216103Y-129099137D01*
X55215545Y-129116547D01*
X55215545Y-129183336D01*
X55355911Y-129183336D01*
X55496278Y-129183336D01*
X55491018Y-129888891D01*
X55485758Y-130594447D01*
X55220649Y-130794605D01*
X54955541Y-130994762D01*
X55225653Y-131000331D01*
X55495766Y-131005900D01*
X55495766Y-131505729D01*
X55495766Y-132005558D01*
X55220549Y-132006596D01*
X54945332Y-132007634D01*
X55180517Y-132126853D01*
X55276737Y-132176298D01*
X55342572Y-132212568D01*
X55383696Y-132239874D01*
X55405783Y-132262425D01*
X55414507Y-132284433D01*
X55415703Y-132301363D01*
X55412780Y-132325891D01*
X55400141Y-132347875D01*
X55371974Y-132371670D01*
X55322470Y-132401632D01*
X55245819Y-132442115D01*
X55190525Y-132470171D01*
X54965348Y-132583689D01*
X55230557Y-132584852D01*
X55495766Y-132586015D01*
X55495766Y-133893781D01*
X55495766Y-135201547D01*
X55355655Y-135298151D01*
X55286596Y-135347297D01*
X55244750Y-135382854D01*
X55223468Y-135412579D01*
X55216096Y-135444228D01*
X55215545Y-135461543D01*
X55215545Y-135528332D01*
X55355655Y-135528332D01*
X55495766Y-135528332D01*
X55495766Y-137357514D01*
X55495766Y-139186696D01*
X55222842Y-139394117D01*
X54949918Y-139601539D01*
X55222842Y-139607108D01*
X55495766Y-139612677D01*
X55495766Y-141079934D01*
X55495588Y-141318742D01*
X55495074Y-141545832D01*
X55494252Y-141758038D01*
X55493152Y-141952191D01*
X55491800Y-142125123D01*
X55490227Y-142273666D01*
X55488460Y-142394653D01*
X55486528Y-142484916D01*
X55484460Y-142541286D01*
X55482422Y-142560536D01*
X55459214Y-142573516D01*
X55444501Y-142554811D01*
X55437129Y-142501471D01*
X55435718Y-142441228D01*
X55435718Y-142308576D01*
X55347743Y-142389669D01*
X55240612Y-142464880D01*
X55126491Y-142504653D01*
X55079090Y-142507471D01*
X55011102Y-142511513D01*
X54900170Y-142487980D01*
X54799417Y-142436578D01*
X54714566Y-142359829D01*
X54651341Y-142260255D01*
X54615464Y-142140378D01*
X54609447Y-142064282D01*
X54611163Y-142046111D01*
X54775273Y-142046111D01*
X54792480Y-142141621D01*
X54838926Y-142218510D01*
X54907151Y-142274144D01*
X54989692Y-142305892D01*
X55079090Y-142311121D01*
X55167882Y-142287196D01*
X55248609Y-142231487D01*
X55261783Y-142217796D01*
X55309515Y-142137213D01*
X55322771Y-142045330D01*
X55300825Y-141952375D01*
X55283030Y-141918780D01*
X55232328Y-141867258D01*
X55159905Y-141827828D01*
X55093975Y-141811479D01*
X55006310Y-141809135D01*
X54941225Y-141824459D01*
X54883296Y-141862538D01*
X54852906Y-141890989D01*
X54804701Y-141945141D01*
X54781388Y-141991412D01*
X54775273Y-142045177D01*
X54775273Y-142046111D01*
X54611163Y-142046111D01*
X54621476Y-141936914D01*
X54661351Y-141831657D01*
X54732901Y-141738597D01*
X54736706Y-141734757D01*
X54823237Y-141665445D01*
X54918753Y-141626510D01*
X55035371Y-141613223D01*
X55048456Y-141613123D01*
X55177019Y-141629873D01*
X55291133Y-141677607D01*
X55381958Y-141752551D01*
X55385996Y-141757260D01*
X55437286Y-141818215D01*
X55431498Y-141630602D01*
X55425710Y-141442989D01*
X55017438Y-141437561D01*
X54795214Y-141434607D01*
X54609165Y-141432134D01*
X54617995Y-141252839D01*
X54795214Y-141252839D01*
X54935324Y-141252839D01*
X55075435Y-141252839D01*
X55075435Y-141142753D01*
X55070822Y-141066952D01*
X55054720Y-141017625D01*
X55035403Y-140992635D01*
X54984912Y-140962502D01*
X54935324Y-140952603D01*
X54865922Y-140967647D01*
X54820413Y-141013497D01*
X54798004Y-141091233D01*
X54795214Y-141142753D01*
X54795214Y-141252839D01*
X54617995Y-141252839D01*
X54620399Y-141204038D01*
X54629780Y-141072193D01*
X54644836Y-140973627D01*
X54668200Y-140901702D01*
X54702508Y-140849782D01*
X54750392Y-140811229D01*
X54783378Y-140793362D01*
X54886750Y-140758454D01*
X54987470Y-140758889D01*
X55075912Y-140784995D01*
X55143056Y-140825376D01*
X55191695Y-140888214D01*
X55224648Y-140978886D01*
X55244739Y-141102771D01*
X55245239Y-141107725D01*
X55259639Y-141252839D01*
X55347679Y-141252839D01*
X55435718Y-141252839D01*
X55435718Y-140933002D01*
X55435718Y-140613164D01*
X55030399Y-140607746D01*
X54625080Y-140602327D01*
X54619555Y-140297087D01*
X54614029Y-139991847D01*
X54704622Y-139991847D01*
X54795214Y-139991847D01*
X54795214Y-140202012D01*
X54795214Y-140412178D01*
X54885285Y-140412178D01*
X54975356Y-140412178D01*
X54975356Y-140222028D01*
X54975356Y-140031878D01*
X55055419Y-140031878D01*
X55135482Y-140031878D01*
X55135482Y-140222028D01*
X55135482Y-140412178D01*
X55225553Y-140412178D01*
X55315624Y-140412178D01*
X55315624Y-140192004D01*
X55315624Y-139971831D01*
X55375671Y-139971831D01*
X55412595Y-139969220D01*
X55430083Y-139954144D01*
X55435379Y-139915740D01*
X55435718Y-139881760D01*
X55435718Y-139791689D01*
X55025395Y-139791689D01*
X54615072Y-139791689D01*
X54615192Y-139706622D01*
X54615311Y-139621555D01*
X54898580Y-139406386D01*
X55181849Y-139191216D01*
X54897364Y-139191216D01*
X54612879Y-139191216D01*
X54618979Y-139096141D01*
X54625080Y-139001066D01*
X55030399Y-138995648D01*
X55435718Y-138990230D01*
X55435718Y-138699299D01*
X55435718Y-138408369D01*
X55389054Y-138462619D01*
X55342390Y-138516870D01*
X55278968Y-138469979D01*
X55233347Y-138432470D01*
X55219182Y-138402312D01*
X55234190Y-138365306D01*
X55256957Y-138332951D01*
X55297312Y-138259828D01*
X55317309Y-138183500D01*
X55316701Y-138113811D01*
X55295240Y-138060606D01*
X55264398Y-138037085D01*
X55223401Y-138041000D01*
X55183261Y-138082137D01*
X55146095Y-138157704D01*
X55125648Y-138220009D01*
X55086870Y-138329956D01*
X55040834Y-138405972D01*
X54983196Y-138454053D01*
X54943691Y-138471190D01*
X54845121Y-138486271D01*
X54758635Y-138465717D01*
X54688209Y-138413099D01*
X54637822Y-138331985D01*
X54611454Y-138225945D01*
X54608485Y-138170499D01*
X54615538Y-138096625D01*
X54633888Y-138016330D01*
X54659469Y-137942024D01*
X54688219Y-137886115D01*
X54708829Y-137864075D01*
X54734548Y-137868162D01*
X54776490Y-137892114D01*
X54790922Y-137902788D01*
X54854785Y-137952768D01*
X54814992Y-138030769D01*
X54784634Y-138111036D01*
X54775621Y-138184625D01*
X54788001Y-138241893D01*
X54813780Y-138269715D01*
X54858067Y-138282591D01*
X54894265Y-138265818D01*
X54926098Y-138215886D01*
X54955053Y-138136605D01*
X54995513Y-138021534D01*
X55036332Y-137940549D01*
X55080887Y-137887814D01*
X55111027Y-137867195D01*
X55194478Y-137842899D01*
X55285756Y-137847896D01*
X55366971Y-137880893D01*
X55374609Y-137886242D01*
X55435718Y-137931422D01*
X55435718Y-137719121D01*
X55435718Y-137506821D01*
X55383161Y-137569281D01*
X55291169Y-137649183D01*
X55179733Y-137699715D01*
X55058216Y-137719302D01*
X55025461Y-137715836D01*
X54935983Y-137706369D01*
X54827948Y-137662657D01*
X54727873Y-137582483D01*
X54656769Y-137480506D01*
X54616054Y-137363964D01*
X54607147Y-137240095D01*
X54609455Y-137228334D01*
X54778507Y-137228334D01*
X54781218Y-137318224D01*
X54818740Y-137400597D01*
X54888739Y-137468384D01*
X54929843Y-137492068D01*
X55025461Y-137520590D01*
X55116096Y-137516421D01*
X55196484Y-137484887D01*
X55261357Y-137431315D01*
X55305451Y-137361032D01*
X55323498Y-137279365D01*
X55310233Y-137191641D01*
X55282940Y-137134875D01*
X55219418Y-137067453D01*
X55136734Y-137027616D01*
X55044672Y-137015299D01*
X54953019Y-137030437D01*
X54871560Y-137072965D01*
X54812941Y-137137999D01*
X54778507Y-137228334D01*
X54609455Y-137228334D01*
X54631468Y-137116138D01*
X54690434Y-136999332D01*
X54696308Y-136991040D01*
X54784885Y-136900496D01*
X54894575Y-136843861D01*
X55024677Y-136821475D01*
X55045411Y-136821092D01*
X55162674Y-136833219D01*
X55263560Y-136873203D01*
X55360624Y-136946237D01*
X55370667Y-136955618D01*
X55435718Y-137017351D01*
X55435718Y-136771456D01*
X55435718Y-136525561D01*
X55374128Y-136577386D01*
X55335388Y-136607036D01*
X55295540Y-136628582D01*
X55247483Y-136643292D01*
X55184117Y-136652431D01*
X55098339Y-136657267D01*
X54983048Y-136659066D01*
X54915309Y-136659222D01*
X54625080Y-136659222D01*
X54618979Y-136564148D01*
X54612879Y-136469073D01*
X54895190Y-136469073D01*
X55021153Y-136467836D01*
X55113485Y-136463750D01*
X55178519Y-136456250D01*
X55222591Y-136444772D01*
X55236265Y-136438685D01*
X55289102Y-136391527D01*
X55314332Y-136326619D01*
X55311410Y-136255712D01*
X55279791Y-136190553D01*
X55249148Y-136160808D01*
X55222537Y-136143955D01*
X55190490Y-136131909D01*
X55145636Y-136123626D01*
X55080601Y-136118063D01*
X54988013Y-136114175D01*
X54903876Y-136111916D01*
X54615072Y-136105035D01*
X54615072Y-136016841D01*
X54615072Y-135928647D01*
X54915951Y-135928647D01*
X55055834Y-135930196D01*
X55162450Y-135935790D01*
X55242480Y-135946854D01*
X55302603Y-135964812D01*
X55349500Y-135991087D01*
X55389849Y-136027102D01*
X55392852Y-136030294D01*
X55435718Y-136076306D01*
X55435718Y-135902812D01*
X55435718Y-135729318D01*
X55030399Y-135723900D01*
X54795214Y-135720756D01*
X54625080Y-135718482D01*
X54626967Y-135528332D01*
X54795214Y-135528332D01*
X54915309Y-135528332D01*
X55035403Y-135528332D01*
X55035403Y-135402233D01*
X55031700Y-135329773D01*
X55021935Y-135274785D01*
X55011384Y-135252114D01*
X54976285Y-135235935D01*
X54922317Y-135228206D01*
X54915309Y-135228096D01*
X54856691Y-135234085D01*
X54820418Y-135256774D01*
X54801608Y-135303239D01*
X54795380Y-135380559D01*
X54795214Y-135402233D01*
X54795214Y-135528332D01*
X54626967Y-135528332D01*
X54627463Y-135478293D01*
X54633534Y-135327352D01*
X54650138Y-135211912D01*
X54679919Y-135128224D01*
X54725520Y-135072543D01*
X54789586Y-135041121D01*
X54874760Y-135030212D01*
X54942153Y-135032307D01*
X55013238Y-135039897D01*
X55059670Y-135054354D01*
X55096828Y-135082426D01*
X55124134Y-135112141D01*
X55185610Y-135183259D01*
X55310664Y-135093738D01*
X55435718Y-135004217D01*
X55435718Y-134842017D01*
X55435718Y-134679817D01*
X55370667Y-134741550D01*
X55278939Y-134813850D01*
X55184403Y-134853902D01*
X55072246Y-134867647D01*
X55055770Y-134867812D01*
X54936913Y-134858073D01*
X54841619Y-134825747D01*
X54757656Y-134766172D01*
X54736706Y-134746178D01*
X54661612Y-134649452D01*
X54620195Y-134539651D01*
X54608849Y-134425664D01*
X54620215Y-134324692D01*
X54651406Y-134224697D01*
X54696898Y-134140369D01*
X54730668Y-134101674D01*
X54755237Y-134085031D01*
X54780053Y-134088440D01*
X54817716Y-134115123D01*
X54833039Y-134127842D01*
X54900888Y-134184855D01*
X54848051Y-134247648D01*
X54806583Y-134325673D01*
X54794508Y-134416874D01*
X54810215Y-134509107D01*
X54852093Y-134590227D01*
X54899632Y-134636416D01*
X54957307Y-134658591D01*
X55035920Y-134666685D01*
X55118917Y-134660650D01*
X55189744Y-134640436D01*
X55196184Y-134637292D01*
X55261094Y-134583002D01*
X55300106Y-134506423D01*
X55311817Y-134416929D01*
X55294823Y-134323891D01*
X55254730Y-134246134D01*
X55208522Y-134181242D01*
X55263189Y-134134220D01*
X55310133Y-134098287D01*
X55342544Y-134091740D01*
X55373689Y-134115158D01*
X55394234Y-134139936D01*
X55435718Y-134192675D01*
X55435718Y-134049865D01*
X55435718Y-133907055D01*
X55024874Y-133907055D01*
X54614029Y-133907055D01*
X54619555Y-133601815D01*
X54625080Y-133296575D01*
X54710147Y-133290420D01*
X54795214Y-133284265D01*
X54795214Y-133505589D01*
X54795214Y-133726914D01*
X54885285Y-133726914D01*
X54975356Y-133726914D01*
X54975356Y-133526756D01*
X54975356Y-133326598D01*
X55055419Y-133326598D01*
X55135482Y-133326598D01*
X55135482Y-133526756D01*
X55135482Y-133726914D01*
X55225553Y-133726914D01*
X55315624Y-133726914D01*
X55315624Y-133506740D01*
X55315624Y-133286567D01*
X55375671Y-133286567D01*
X55435718Y-133286567D01*
X55435718Y-133036784D01*
X55435718Y-132787002D01*
X55030399Y-132781583D01*
X54625080Y-132776165D01*
X54619108Y-132650582D01*
X54613137Y-132524999D01*
X54854906Y-132411968D01*
X55096675Y-132298936D01*
X54854896Y-132183125D01*
X54613118Y-132067313D01*
X54619099Y-131941361D01*
X54625080Y-131815408D01*
X55030399Y-131809990D01*
X55435718Y-131804572D01*
X55435718Y-131704907D01*
X55435718Y-131605243D01*
X55024299Y-131605243D01*
X54612879Y-131605243D01*
X54618979Y-131510168D01*
X54625080Y-131415093D01*
X55030399Y-131409675D01*
X55435718Y-131404256D01*
X55435718Y-131305007D01*
X55435718Y-131205757D01*
X55030399Y-131200338D01*
X54625080Y-131194920D01*
X54625080Y-131105458D01*
X54625080Y-131015996D01*
X54889385Y-130815229D01*
X54977464Y-130747503D01*
X55053212Y-130687690D01*
X55111319Y-130640112D01*
X55146475Y-130609090D01*
X55154594Y-130599451D01*
X55136139Y-130593966D01*
X55084915Y-130589379D01*
X55008183Y-130586095D01*
X54913202Y-130584519D01*
X54885285Y-130584439D01*
X54615072Y-130584439D01*
X54615072Y-130494368D01*
X54615072Y-130404297D01*
X55025395Y-130404297D01*
X55435718Y-130404297D01*
X55435718Y-130294211D01*
X55435718Y-130184124D01*
X55025395Y-130184124D01*
X54615072Y-130184124D01*
X54615072Y-129873880D01*
X54615072Y-129563635D01*
X54705143Y-129563635D01*
X54795214Y-129563635D01*
X54795214Y-129784960D01*
X54795214Y-130006284D01*
X54880281Y-130000129D01*
X54965348Y-129993974D01*
X54971077Y-129798821D01*
X54976805Y-129603667D01*
X55055419Y-129603667D01*
X55134032Y-129603667D01*
X55139761Y-129798821D01*
X55145490Y-129993974D01*
X55230557Y-130000129D01*
X55315624Y-130006284D01*
X55315624Y-129774952D01*
X55315624Y-129543620D01*
X55375671Y-129543620D01*
X55414244Y-129540432D01*
X55431341Y-129523202D01*
X55435631Y-129480431D01*
X55435718Y-129463971D01*
X55435718Y-129384322D01*
X55030399Y-129378904D01*
X54795214Y-129375760D01*
X54625080Y-129373486D01*
X54626967Y-129183336D01*
X54795214Y-129183336D01*
X54915309Y-129183336D01*
X55035403Y-129183336D01*
X55035403Y-129057237D01*
X55031700Y-128984777D01*
X55021935Y-128929789D01*
X55011384Y-128907118D01*
X54976285Y-128890938D01*
X54922317Y-128883209D01*
X54915309Y-128883099D01*
X54856691Y-128889089D01*
X54820418Y-128911778D01*
X54801608Y-128958243D01*
X54795380Y-129035562D01*
X54795214Y-129057237D01*
X54795214Y-129183336D01*
X54626967Y-129183336D01*
X54627463Y-129133296D01*
X54633534Y-128982356D01*
X54650138Y-128866916D01*
X54679919Y-128783228D01*
X54725520Y-128727547D01*
X54789586Y-128696125D01*
X54874760Y-128685216D01*
X54942153Y-128687311D01*
X55013238Y-128694901D01*
X55059670Y-128709358D01*
X55096828Y-128737430D01*
X55124134Y-128767145D01*
X55185610Y-128838263D01*
X55310664Y-128748742D01*
X55435718Y-128659221D01*
X55435619Y-128545983D01*
X55435519Y-128432745D01*
X55390583Y-128488609D01*
X55345647Y-128544473D01*
X55279121Y-128488609D01*
X55212594Y-128432745D01*
X55266111Y-128337151D01*
X55299871Y-128259705D01*
X55317419Y-128182824D01*
X55317249Y-128118030D01*
X55299918Y-128078773D01*
X55266271Y-128065852D01*
X55232865Y-128065763D01*
X55207001Y-128075149D01*
X55184707Y-128100070D01*
X55161349Y-128148061D01*
X55132290Y-128226657D01*
X55130237Y-128232587D01*
X55082189Y-128350232D01*
X55030218Y-128431704D01*
X54970664Y-128480860D01*
X54899871Y-128501557D01*
X54873967Y-128502800D01*
X54772006Y-128486614D01*
X54693988Y-128438811D01*
X54640839Y-128360526D01*
X54613481Y-128252895D01*
X54609786Y-128178474D01*
X54616885Y-128107156D01*
X54634430Y-128031647D01*
X54658650Y-127962292D01*
X54685775Y-127909433D01*
X54712034Y-127883413D01*
X54717747Y-127882311D01*
X54745358Y-127893285D01*
X54787857Y-127920146D01*
X54793922Y-127924552D01*
X54851056Y-127966793D01*
X54811907Y-128055296D01*
X54785119Y-128140273D01*
X54781392Y-128215341D01*
X54800400Y-128271316D01*
X54820234Y-128290514D01*
X54859919Y-128302155D01*
X54895515Y-128282142D01*
X54929274Y-128227866D01*
X54963446Y-128136720D01*
X54969356Y-128117705D01*
X55012303Y-128004090D01*
X55062929Y-127926382D01*
X55125138Y-127880635D01*
X55202837Y-127862904D01*
X55222085Y-127862371D01*
X55300398Y-127873734D01*
X55370667Y-127902108D01*
X55435718Y-127941770D01*
X55435718Y-127590009D01*
X55435718Y-127238249D01*
X55375049Y-127289298D01*
X55326750Y-127323781D01*
X55271395Y-127348850D01*
X55201989Y-127365840D01*
X55111536Y-127376086D01*
X54993041Y-127380923D01*
X54890289Y-127381806D01*
X54615072Y-127381917D01*
X54615072Y-127281839D01*
X54615072Y-127181760D01*
X54896287Y-127181760D01*
X55022084Y-127180512D01*
X55114256Y-127176392D01*
X55179146Y-127168832D01*
X55223093Y-127157266D01*
X55236265Y-127151372D01*
X55289055Y-127104229D01*
X55314301Y-127039311D01*
X55311442Y-126968414D01*
X55279920Y-126903330D01*
X55249434Y-126873741D01*
X55222780Y-126856960D01*
X55190391Y-126844927D01*
X55144913Y-126836595D01*
X55078991Y-126830914D01*
X54985271Y-126826835D01*
X54904162Y-126824500D01*
X54615072Y-126817025D01*
X54615072Y-126729179D01*
X54615072Y-126641334D01*
X54914005Y-126641334D01*
X55049012Y-126642539D01*
X55151098Y-126647112D01*
X55227328Y-126656493D01*
X55284767Y-126672123D01*
X55330479Y-126695439D01*
X55371530Y-126727882D01*
X55380675Y-126736423D01*
X55435718Y-126788934D01*
X55435718Y-126615055D01*
X55435718Y-126441177D01*
X55025395Y-126441177D01*
X54615072Y-126441177D01*
X54615072Y-126352078D01*
X54615072Y-126262980D01*
X54885874Y-126056846D01*
X55156675Y-125850712D01*
X54890877Y-125840704D01*
X54625080Y-125830696D01*
X54618979Y-125735621D01*
X54612879Y-125640546D01*
X55024299Y-125640546D01*
X55435718Y-125640546D01*
X55435718Y-125530460D01*
X55435718Y-125420373D01*
X55025395Y-125420373D01*
X54615072Y-125420373D01*
X54615072Y-125330302D01*
X54615072Y-125240231D01*
X55025395Y-125240231D01*
X55435718Y-125240231D01*
X55435718Y-125050081D01*
X55435718Y-124859932D01*
X55115466Y-124859932D01*
X54795214Y-124859932D01*
X54795214Y-124981177D01*
X54795214Y-125102422D01*
X54710147Y-125096268D01*
X54625080Y-125090113D01*
X54619592Y-124754849D01*
X54614104Y-124419585D01*
X54704659Y-124419585D01*
X54795214Y-124419585D01*
X54795214Y-124539679D01*
X54795214Y-124659774D01*
X55115466Y-124659774D01*
X55435718Y-124659774D01*
X55435718Y-124470039D01*
X55435718Y-124280303D01*
X55030399Y-124274885D01*
X54625080Y-124269467D01*
X54625080Y-123959222D01*
X54625080Y-123648978D01*
X54710147Y-123642823D01*
X54795214Y-123636669D01*
X54795214Y-123857993D01*
X54795214Y-124079317D01*
X54885285Y-124079317D01*
X54975356Y-124079317D01*
X54975356Y-123889167D01*
X54975356Y-123699018D01*
X55055419Y-123699018D01*
X55135482Y-123699018D01*
X55135482Y-123889167D01*
X55135482Y-124079317D01*
X55225553Y-124079317D01*
X55315624Y-124079317D01*
X55315624Y-123859144D01*
X55315624Y-123638970D01*
X55375671Y-123638970D01*
X55412595Y-123636359D01*
X55430083Y-123621284D01*
X55435379Y-123582879D01*
X55435718Y-123548899D01*
X55435718Y-123458828D01*
X55022603Y-123458828D01*
X54795214Y-123458828D01*
X54609488Y-123458828D01*
X54617817Y-123278687D01*
X54795214Y-123278687D01*
X55055419Y-123278687D01*
X55315624Y-123278687D01*
X55315624Y-123177965D01*
X55309704Y-123102474D01*
X55294806Y-123031121D01*
X55287177Y-123009160D01*
X55237469Y-122939549D01*
X55159849Y-122894887D01*
X55060031Y-122878399D01*
X55055419Y-122878371D01*
X54951903Y-122893652D01*
X54874345Y-122939349D01*
X54822934Y-123015248D01*
X54797857Y-123121130D01*
X54795214Y-123177965D01*
X54795214Y-123278687D01*
X54617817Y-123278687D01*
X54619899Y-123233651D01*
X54630643Y-123090688D01*
X54649498Y-122980084D01*
X54678812Y-122894583D01*
X54720931Y-122826928D01*
X54766715Y-122779639D01*
X54868301Y-122715518D01*
X54984733Y-122682767D01*
X55106535Y-122681090D01*
X55224233Y-122710191D01*
X55328352Y-122769775D01*
X55360208Y-122798151D01*
X55435718Y-122873662D01*
X55435718Y-122734238D01*
X55437809Y-122657142D01*
X55444719Y-122614891D01*
X55457401Y-122602485D01*
X55460738Y-122603153D01*
G37*
D11*
X102948000Y-173722000D02*
X102248000Y-173722000D01*
X102248000Y-171822000D01*
X102948000Y-171822000D01*
X102948000Y-173722000D01*
G36*
X102948000Y-173722000D02*
G01*
X102248000Y-173722000D01*
X102248000Y-171822000D01*
X102948000Y-171822000D01*
X102948000Y-173722000D01*
G37*
X113548000Y-173722000D02*
X112848000Y-173722000D01*
X112848000Y-171822000D01*
X113548000Y-171822000D01*
X113548000Y-173722000D01*
G36*
X113548000Y-173722000D02*
G01*
X112848000Y-173722000D01*
X112848000Y-171822000D01*
X113548000Y-171822000D01*
X113548000Y-173722000D01*
G37*
X122356812Y-172040007D02*
X122326812Y-172240007D01*
X122146812Y-172190007D01*
X122006812Y-171810007D01*
X122006812Y-171800007D01*
X122356812Y-172040007D01*
G36*
X122356812Y-172040007D02*
G01*
X122326812Y-172240007D01*
X122146812Y-172190007D01*
X122006812Y-171810007D01*
X122006812Y-171800007D01*
X122356812Y-172040007D01*
G37*
D12*
X122117006Y-171232179D02*
X122202167Y-171277000D01*
X122244214Y-171507807D01*
X122250117Y-171741555D01*
X122273000Y-171949500D01*
X122288600Y-171967220D01*
X121548000Y-171932000D01*
X121548000Y-171222000D01*
X122117006Y-171232179D01*
G36*
X122117006Y-171232179D02*
G01*
X122202167Y-171277000D01*
X122244214Y-171507807D01*
X122250117Y-171741555D01*
X122273000Y-171949500D01*
X122288600Y-171967220D01*
X121548000Y-171932000D01*
X121548000Y-171222000D01*
X122117006Y-171232179D01*
G37*
D11*
X114648000Y-173625826D02*
X114644324Y-174139384D01*
X114631276Y-174312311D01*
X114604160Y-174363826D01*
X114569422Y-174394765D01*
X114525458Y-174409963D01*
X114436933Y-174418988D01*
X114048000Y-174422000D01*
X114046812Y-173520007D01*
X114648000Y-173625826D01*
G36*
X114648000Y-173625826D02*
G01*
X114644324Y-174139384D01*
X114631276Y-174312311D01*
X114604160Y-174363826D01*
X114569422Y-174394765D01*
X114525458Y-174409963D01*
X114436933Y-174418988D01*
X114048000Y-174422000D01*
X114046812Y-173520007D01*
X114648000Y-173625826D01*
G37*
X122287404Y-172463553D02*
X122255150Y-172574888D01*
X122242102Y-172690066D01*
X122247799Y-172810164D01*
X122271564Y-172928024D01*
X122307776Y-173022405D01*
X122416351Y-173155263D01*
X122221262Y-173526724D01*
X122139017Y-173645002D01*
X122059120Y-173685281D01*
X121954661Y-173712777D01*
X121839667Y-173722000D01*
X121548000Y-173722000D01*
X121548000Y-171222000D01*
X122287404Y-172463553D01*
G36*
X122287404Y-172463553D02*
G01*
X122255150Y-172574888D01*
X122242102Y-172690066D01*
X122247799Y-172810164D01*
X122271564Y-172928024D01*
X122307776Y-173022405D01*
X122416351Y-173155263D01*
X122221262Y-173526724D01*
X122139017Y-173645002D01*
X122059120Y-173685281D01*
X121954661Y-173712777D01*
X121839667Y-173722000D01*
X121548000Y-173722000D01*
X121548000Y-171222000D01*
X122287404Y-172463553D01*
G37*
X117148000Y-172122000D02*
X118048000Y-172122000D01*
X118054813Y-171388636D01*
X118064489Y-171330747D01*
X118129959Y-171247138D01*
X118287411Y-171224650D01*
X118748000Y-171222000D01*
X118748000Y-173722000D01*
X118048000Y-173722000D01*
X118048000Y-172722000D01*
X117148000Y-172722000D01*
X117148000Y-173722000D01*
X116348000Y-173722000D01*
X116348000Y-171222000D01*
X117148000Y-171222000D01*
X117148000Y-172122000D01*
G36*
X117148000Y-172122000D02*
G01*
X118048000Y-172122000D01*
X118054813Y-171388636D01*
X118064489Y-171330747D01*
X118129959Y-171247138D01*
X118287411Y-171224650D01*
X118748000Y-171222000D01*
X118748000Y-173722000D01*
X118048000Y-173722000D01*
X118048000Y-172722000D01*
X117148000Y-172722000D01*
X117148000Y-173722000D01*
X116348000Y-173722000D01*
X116348000Y-171222000D01*
X117148000Y-171222000D01*
X117148000Y-172122000D01*
G37*
X101948000Y-171522000D02*
X101944977Y-171610992D01*
X101935927Y-171699574D01*
X101920674Y-171743541D01*
X101889667Y-171778250D01*
X101843305Y-171803452D01*
X101791668Y-171814326D01*
X101669834Y-171818163D01*
X101148000Y-171822000D01*
X101148000Y-173722000D01*
X100448000Y-173722000D01*
X100448000Y-171822000D01*
X100048000Y-171822000D01*
X99758010Y-171805327D01*
X99706333Y-171778250D01*
X99660073Y-171699574D01*
X99648000Y-171222000D01*
X101948000Y-171222000D01*
X101948000Y-171522000D01*
G36*
X101948000Y-171522000D02*
G01*
X101944977Y-171610992D01*
X101935927Y-171699574D01*
X101920674Y-171743541D01*
X101889667Y-171778250D01*
X101843305Y-171803452D01*
X101791668Y-171814326D01*
X101669834Y-171818163D01*
X101148000Y-171822000D01*
X101148000Y-173722000D01*
X100448000Y-173722000D01*
X100448000Y-171822000D01*
X100048000Y-171822000D01*
X99758010Y-171805327D01*
X99706333Y-171778250D01*
X99660073Y-171699574D01*
X99648000Y-171222000D01*
X101948000Y-171222000D01*
X101948000Y-171522000D01*
G37*
X113289307Y-171224055D02*
X113380428Y-171230218D01*
X113431516Y-171240422D01*
X113479250Y-171261286D01*
X113530271Y-171321754D01*
X113548000Y-171422000D01*
X113543534Y-171472901D01*
X113530271Y-171522246D01*
X113479250Y-171582714D01*
X113431510Y-171603560D01*
X113380428Y-171613782D01*
X113289306Y-171619943D01*
X113106693Y-171619945D01*
X113015572Y-171613782D01*
X112964484Y-171603578D01*
X112916750Y-171582714D01*
X112865730Y-171522246D01*
X112848002Y-171422000D01*
X112865729Y-171321754D01*
X112885870Y-171286986D01*
X112964490Y-171240440D01*
X113106694Y-171224057D01*
X113198000Y-171222000D01*
X113289307Y-171224055D01*
G36*
X113289307Y-171224055D02*
G01*
X113380428Y-171230218D01*
X113431516Y-171240422D01*
X113479250Y-171261286D01*
X113530271Y-171321754D01*
X113548000Y-171422000D01*
X113543534Y-171472901D01*
X113530271Y-171522246D01*
X113479250Y-171582714D01*
X113431510Y-171603560D01*
X113380428Y-171613782D01*
X113289306Y-171619943D01*
X113106693Y-171619945D01*
X113015572Y-171613782D01*
X112964484Y-171603578D01*
X112916750Y-171582714D01*
X112865730Y-171522246D01*
X112848002Y-171422000D01*
X112865729Y-171321754D01*
X112885870Y-171286986D01*
X112964490Y-171240440D01*
X113106694Y-171224057D01*
X113198000Y-171222000D01*
X113289307Y-171224055D01*
G37*
X102689307Y-171224055D02*
X102780428Y-171230218D01*
X102831516Y-171240422D01*
X102879250Y-171261287D01*
X102930271Y-171321754D01*
X102948000Y-171422000D01*
X102930271Y-171522246D01*
X102910130Y-171557014D01*
X102879250Y-171582714D01*
X102831510Y-171603560D01*
X102780428Y-171613782D01*
X102689306Y-171619943D01*
X102506693Y-171619945D01*
X102415572Y-171613782D01*
X102364484Y-171603578D01*
X102316750Y-171582714D01*
X102285897Y-171556992D01*
X102265729Y-171522246D01*
X102252467Y-171472901D01*
X102248000Y-171422000D01*
X102252466Y-171371099D01*
X102265729Y-171321754D01*
X102316750Y-171261286D01*
X102364490Y-171240440D01*
X102506694Y-171224057D01*
X102598000Y-171222000D01*
X102689307Y-171224055D01*
G36*
X102689307Y-171224055D02*
G01*
X102780428Y-171230218D01*
X102831516Y-171240422D01*
X102879250Y-171261287D01*
X102930271Y-171321754D01*
X102948000Y-171422000D01*
X102930271Y-171522246D01*
X102910130Y-171557014D01*
X102879250Y-171582714D01*
X102831510Y-171603560D01*
X102780428Y-171613782D01*
X102689306Y-171619943D01*
X102506693Y-171619945D01*
X102415572Y-171613782D01*
X102364484Y-171603578D01*
X102316750Y-171582714D01*
X102285897Y-171556992D01*
X102265729Y-171522246D01*
X102252467Y-171472901D01*
X102248000Y-171422000D01*
X102252466Y-171371099D01*
X102265729Y-171321754D01*
X102316750Y-171261286D01*
X102364490Y-171240440D01*
X102506694Y-171224057D01*
X102598000Y-171222000D01*
X102689307Y-171224055D01*
G37*
X111007005Y-171224491D02*
X111115782Y-171231959D01*
X111201316Y-171275823D01*
X111240104Y-171370946D01*
X111248000Y-171625518D01*
X111250265Y-171743042D01*
X111259185Y-171906610D01*
X111278570Y-171948901D01*
X111332366Y-171969324D01*
X111388095Y-171950406D01*
X111441426Y-171925518D01*
X111558608Y-171873322D01*
X111682094Y-171838578D01*
X111802733Y-171824431D01*
X111924025Y-171830921D01*
X112033484Y-171856829D01*
X112136207Y-171902662D01*
X112222195Y-171964715D01*
X112292330Y-172044251D01*
X112362022Y-172186364D01*
X112410018Y-172389839D01*
X112428046Y-172522293D01*
X112443433Y-172824890D01*
X112448000Y-173722000D01*
X111757138Y-173722000D01*
X111736812Y-173210007D01*
X111716681Y-172862509D01*
X111705793Y-172678018D01*
X111694463Y-172580256D01*
X111644215Y-172438584D01*
X111498000Y-172372000D01*
X111391010Y-172403103D01*
X111326549Y-172485071D01*
X111291418Y-172657493D01*
X111268431Y-173047000D01*
X111238862Y-173722000D01*
X110548000Y-173722000D01*
X110548000Y-171222000D01*
X111007005Y-171224491D01*
G36*
X111007005Y-171224491D02*
G01*
X111115782Y-171231959D01*
X111201316Y-171275823D01*
X111240104Y-171370946D01*
X111248000Y-171625518D01*
X111250265Y-171743042D01*
X111259185Y-171906610D01*
X111278570Y-171948901D01*
X111332366Y-171969324D01*
X111388095Y-171950406D01*
X111441426Y-171925518D01*
X111558608Y-171873322D01*
X111682094Y-171838578D01*
X111802733Y-171824431D01*
X111924025Y-171830921D01*
X112033484Y-171856829D01*
X112136207Y-171902662D01*
X112222195Y-171964715D01*
X112292330Y-172044251D01*
X112362022Y-172186364D01*
X112410018Y-172389839D01*
X112428046Y-172522293D01*
X112443433Y-172824890D01*
X112448000Y-173722000D01*
X111757138Y-173722000D01*
X111736812Y-173210007D01*
X111716681Y-172862509D01*
X111705793Y-172678018D01*
X111694463Y-172580256D01*
X111644215Y-172438584D01*
X111498000Y-172372000D01*
X111391010Y-172403103D01*
X111326549Y-172485071D01*
X111291418Y-172657493D01*
X111268431Y-173047000D01*
X111238862Y-173722000D01*
X110548000Y-173722000D01*
X110548000Y-171222000D01*
X111007005Y-171224491D01*
G37*
X119639820Y-171825762D02*
X119731025Y-171837023D01*
X119809158Y-171892152D01*
X119842209Y-172012717D01*
X119848000Y-172363821D01*
X119859506Y-172738358D01*
X119911008Y-173041760D01*
X119948400Y-173113809D01*
X120004521Y-173172455D01*
X120072105Y-173209264D01*
X120148000Y-173222000D01*
X120223897Y-173209269D01*
X120347607Y-173113814D01*
X120384992Y-173041760D01*
X120418385Y-172919980D01*
X120434760Y-172794770D01*
X120448000Y-172363821D01*
X120448000Y-171822000D01*
X121148000Y-171822000D01*
X121148000Y-173722000D01*
X120730842Y-173720120D01*
X120550813Y-173691592D01*
X120454321Y-173641631D01*
X120419587Y-173569052D01*
X120343006Y-173576582D01*
X120146585Y-173666647D01*
X119912784Y-173715447D01*
X119791614Y-173715896D01*
X119679092Y-173700691D01*
X119481751Y-173626307D01*
X119405143Y-173564857D01*
X119330466Y-173447682D01*
X119282910Y-173266488D01*
X119265350Y-173135360D01*
X119255905Y-173003399D01*
X119248000Y-172614857D01*
X119248000Y-171822000D01*
X119548000Y-171822000D01*
X119639820Y-171825762D01*
G36*
X119639820Y-171825762D02*
G01*
X119731025Y-171837023D01*
X119809158Y-171892152D01*
X119842209Y-172012717D01*
X119848000Y-172363821D01*
X119859506Y-172738358D01*
X119911008Y-173041760D01*
X119948400Y-173113809D01*
X120004521Y-173172455D01*
X120072105Y-173209264D01*
X120148000Y-173222000D01*
X120223897Y-173209269D01*
X120347607Y-173113814D01*
X120384992Y-173041760D01*
X120418385Y-172919980D01*
X120434760Y-172794770D01*
X120448000Y-172363821D01*
X120448000Y-171822000D01*
X121148000Y-171822000D01*
X121148000Y-173722000D01*
X120730842Y-173720120D01*
X120550813Y-173691592D01*
X120454321Y-173641631D01*
X120419587Y-173569052D01*
X120343006Y-173576582D01*
X120146585Y-173666647D01*
X119912784Y-173715447D01*
X119791614Y-173715896D01*
X119679092Y-173700691D01*
X119481751Y-173626307D01*
X119405143Y-173564857D01*
X119330466Y-173447682D01*
X119282910Y-173266488D01*
X119265350Y-173135360D01*
X119255905Y-173003399D01*
X119248000Y-172614857D01*
X119248000Y-171822000D01*
X119548000Y-171822000D01*
X119639820Y-171825762D01*
G37*
X114462918Y-171829539D02*
X114626834Y-171885769D01*
X114661619Y-171963434D01*
X114864437Y-172380435D01*
X114741230Y-172534649D01*
X114688519Y-172741238D01*
X114682737Y-172766119D01*
X114698177Y-172859649D01*
X114728792Y-172974440D01*
X114775695Y-173071210D01*
X114841073Y-173156592D01*
X114909930Y-173204960D01*
X114992338Y-173222000D01*
X115148532Y-173161275D01*
X115263857Y-172995150D01*
X115296143Y-172886138D01*
X115306949Y-172772961D01*
X115260432Y-172559351D01*
X115146314Y-172393445D01*
X115006902Y-172331120D01*
X114864437Y-172380435D01*
X114841426Y-171925518D01*
X115184479Y-171827641D01*
X115411495Y-171857195D01*
X115517912Y-171900175D01*
X115716555Y-172039431D01*
X115832148Y-172174660D01*
X115872329Y-172244254D01*
X115937857Y-172470129D01*
X115944982Y-172705634D01*
X115942663Y-172935745D01*
X115898085Y-173242536D01*
X115840041Y-173398423D01*
X115741485Y-173532425D01*
X115617191Y-173625140D01*
X115470357Y-173674996D01*
X115271959Y-173693832D01*
X114966812Y-173680007D01*
X114648000Y-173625826D01*
X114046812Y-173520007D01*
X114048000Y-171822000D01*
X114462918Y-171829539D01*
G36*
X114462918Y-171829539D02*
G01*
X114626834Y-171885769D01*
X114661619Y-171963434D01*
X114864437Y-172380435D01*
X114741230Y-172534649D01*
X114688519Y-172741238D01*
X114682737Y-172766119D01*
X114698177Y-172859649D01*
X114728792Y-172974440D01*
X114775695Y-173071210D01*
X114841073Y-173156592D01*
X114909930Y-173204960D01*
X114992338Y-173222000D01*
X115148532Y-173161275D01*
X115263857Y-172995150D01*
X115296143Y-172886138D01*
X115306949Y-172772961D01*
X115260432Y-172559351D01*
X115146314Y-172393445D01*
X115006902Y-172331120D01*
X114864437Y-172380435D01*
X114841426Y-171925518D01*
X115184479Y-171827641D01*
X115411495Y-171857195D01*
X115517912Y-171900175D01*
X115716555Y-172039431D01*
X115832148Y-172174660D01*
X115872329Y-172244254D01*
X115937857Y-172470129D01*
X115944982Y-172705634D01*
X115942663Y-172935745D01*
X115898085Y-173242536D01*
X115840041Y-173398423D01*
X115741485Y-173532425D01*
X115617191Y-173625140D01*
X115470357Y-173674996D01*
X115271959Y-173693832D01*
X114966812Y-173680007D01*
X114648000Y-173625826D01*
X114046812Y-173520007D01*
X114048000Y-171822000D01*
X114462918Y-171829539D01*
G37*
X122941687Y-171845951D02*
X123140859Y-171918178D01*
X123293124Y-172035744D01*
X123398676Y-172196565D01*
X123446812Y-172290007D01*
X123496812Y-172540007D01*
X123511589Y-172660244D01*
X123506361Y-172910516D01*
X123459405Y-173156400D01*
X123374845Y-173355980D01*
X123242422Y-173527578D01*
X123150985Y-173601960D01*
X122920790Y-173695102D01*
X122790888Y-173715054D01*
X122539512Y-173695910D01*
X122440956Y-173658637D01*
X122320922Y-173566060D01*
X122573791Y-173160239D01*
X122654207Y-173125788D01*
X122723351Y-173070901D01*
X122775868Y-172999940D01*
X122831272Y-172810365D01*
X122829663Y-172698131D01*
X122810820Y-172587478D01*
X122775044Y-172495694D01*
X122717507Y-172415731D01*
X122644550Y-172357431D01*
X122557807Y-172322826D01*
X122395470Y-172342793D01*
X122288600Y-171967220D01*
X122311867Y-171971169D01*
X122368000Y-171942000D01*
X122433212Y-171891464D01*
X122508974Y-171858807D01*
X122715853Y-171826303D01*
X122941687Y-171845951D01*
G36*
X122941687Y-171845951D02*
G01*
X123140859Y-171918178D01*
X123293124Y-172035744D01*
X123398676Y-172196565D01*
X123446812Y-172290007D01*
X123496812Y-172540007D01*
X123511589Y-172660244D01*
X123506361Y-172910516D01*
X123459405Y-173156400D01*
X123374845Y-173355980D01*
X123242422Y-173527578D01*
X123150985Y-173601960D01*
X122920790Y-173695102D01*
X122790888Y-173715054D01*
X122539512Y-173695910D01*
X122440956Y-173658637D01*
X122320922Y-173566060D01*
X122573791Y-173160239D01*
X122654207Y-173125788D01*
X122723351Y-173070901D01*
X122775868Y-172999940D01*
X122831272Y-172810365D01*
X122829663Y-172698131D01*
X122810820Y-172587478D01*
X122775044Y-172495694D01*
X122717507Y-172415731D01*
X122644550Y-172357431D01*
X122557807Y-172322826D01*
X122395470Y-172342793D01*
X122288600Y-171967220D01*
X122311867Y-171971169D01*
X122368000Y-171942000D01*
X122433212Y-171891464D01*
X122508974Y-171858807D01*
X122715853Y-171826303D01*
X122941687Y-171845951D01*
G37*
X122117006Y-171232179D02*
X122202167Y-171277000D01*
X122240427Y-171373614D01*
X122244214Y-171507807D01*
X122250117Y-171741555D01*
X122257416Y-171896301D01*
X122273000Y-171949500D01*
X122288600Y-171967220D01*
X121548000Y-171222000D01*
X122117006Y-171232179D01*
G36*
X122117006Y-171232179D02*
G01*
X122202167Y-171277000D01*
X122240427Y-171373614D01*
X122244214Y-171507807D01*
X122250117Y-171741555D01*
X122257416Y-171896301D01*
X122273000Y-171949500D01*
X122288600Y-171967220D01*
X121548000Y-171222000D01*
X122117006Y-171232179D01*
G37*
X103813162Y-171824220D02*
X103878021Y-171830870D01*
X103971400Y-171859112D01*
X104042703Y-171934695D01*
X104061797Y-172034075D01*
X104098968Y-172057047D01*
X104136428Y-172050952D01*
X104250189Y-171994404D01*
X104328597Y-171951657D01*
X104605671Y-171851027D01*
X104743849Y-171841228D01*
X104881038Y-171860420D01*
X105001460Y-171905739D01*
X105108224Y-171977549D01*
X105192667Y-172070433D01*
X105251537Y-172181303D01*
X105288868Y-172320681D01*
X105330287Y-172681529D01*
X105340911Y-172813542D01*
X105348000Y-173078510D01*
X105348000Y-173722000D01*
X104648000Y-173722000D01*
X104646812Y-173160007D01*
X104644977Y-172930884D01*
X104641955Y-172792906D01*
X104635123Y-172666578D01*
X104614699Y-172541725D01*
X104595634Y-172478903D01*
X104566989Y-172419830D01*
X104534602Y-172381262D01*
X104491278Y-172355583D01*
X104409088Y-172340040D01*
X104326669Y-172354289D01*
X104254364Y-172396584D01*
X104201397Y-172461479D01*
X104148322Y-172580306D01*
X104116313Y-172706449D01*
X104079961Y-172978390D01*
X104034666Y-173493758D01*
X103991043Y-173641007D01*
X103956192Y-173681067D01*
X103907930Y-173703203D01*
X103822468Y-173717286D01*
X103735981Y-173722000D01*
X103448000Y-173722000D01*
X103448000Y-171822000D01*
X103748000Y-171822000D01*
X103813162Y-171824220D01*
G36*
X103813162Y-171824220D02*
G01*
X103878021Y-171830870D01*
X103971400Y-171859112D01*
X104042703Y-171934695D01*
X104061797Y-172034075D01*
X104098968Y-172057047D01*
X104136428Y-172050952D01*
X104250189Y-171994404D01*
X104328597Y-171951657D01*
X104605671Y-171851027D01*
X104743849Y-171841228D01*
X104881038Y-171860420D01*
X105001460Y-171905739D01*
X105108224Y-171977549D01*
X105192667Y-172070433D01*
X105251537Y-172181303D01*
X105288868Y-172320681D01*
X105330287Y-172681529D01*
X105340911Y-172813542D01*
X105348000Y-173078510D01*
X105348000Y-173722000D01*
X104648000Y-173722000D01*
X104646812Y-173160007D01*
X104644977Y-172930884D01*
X104641955Y-172792906D01*
X104635123Y-172666578D01*
X104614699Y-172541725D01*
X104595634Y-172478903D01*
X104566989Y-172419830D01*
X104534602Y-172381262D01*
X104491278Y-172355583D01*
X104409088Y-172340040D01*
X104326669Y-172354289D01*
X104254364Y-172396584D01*
X104201397Y-172461479D01*
X104148322Y-172580306D01*
X104116313Y-172706449D01*
X104079961Y-172978390D01*
X104034666Y-173493758D01*
X103991043Y-173641007D01*
X103956192Y-173681067D01*
X103907930Y-173703203D01*
X103822468Y-173717286D01*
X103735981Y-173722000D01*
X103448000Y-173722000D01*
X103448000Y-171822000D01*
X103748000Y-171822000D01*
X103813162Y-171824220D01*
G37*
X109207238Y-171234538D02*
X109461770Y-171280653D01*
X109682956Y-171354732D01*
X109890550Y-171461108D01*
X110019433Y-171575858D01*
X110100044Y-171728439D01*
X110122610Y-171806462D01*
X110140513Y-171921547D01*
X110094305Y-171981356D01*
X109960694Y-172023832D01*
X109788689Y-172066331D01*
X109658588Y-172074656D01*
X109517918Y-172031680D01*
X109447198Y-171971033D01*
X109333815Y-171878181D01*
X109193921Y-171834521D01*
X109036124Y-171841467D01*
X108887945Y-171896176D01*
X108747518Y-172000810D01*
X108639275Y-172138473D01*
X108571231Y-172299105D01*
X108548000Y-172472000D01*
X108573317Y-172655938D01*
X108647401Y-172826191D01*
X108763351Y-172965569D01*
X108914643Y-173065472D01*
X109068309Y-173105565D01*
X109226190Y-173088466D01*
X109360863Y-173016849D01*
X109457193Y-172898585D01*
X109525497Y-172769785D01*
X109582644Y-172665557D01*
X109619209Y-172630529D01*
X109647948Y-172631422D01*
X110216137Y-172840563D01*
X110246604Y-172901177D01*
X110181846Y-173051578D01*
X110111592Y-173195191D01*
X109959771Y-173410044D01*
X109747377Y-173565286D01*
X109474168Y-173670167D01*
X109185339Y-173717293D01*
X108881311Y-173705644D01*
X108585322Y-173635228D01*
X108336223Y-173512186D01*
X108126244Y-173330254D01*
X107965124Y-173095337D01*
X107868704Y-172827287D01*
X107831899Y-172518345D01*
X107856388Y-172208183D01*
X107939774Y-171918128D01*
X108080451Y-171651119D01*
X108258635Y-171454887D01*
X108486812Y-171320007D01*
X108713491Y-171251187D01*
X108948789Y-171223729D01*
X109207238Y-171234538D01*
G36*
X109207238Y-171234538D02*
G01*
X109461770Y-171280653D01*
X109682956Y-171354732D01*
X109890550Y-171461108D01*
X110019433Y-171575858D01*
X110100044Y-171728439D01*
X110122610Y-171806462D01*
X110140513Y-171921547D01*
X110094305Y-171981356D01*
X109960694Y-172023832D01*
X109788689Y-172066331D01*
X109658588Y-172074656D01*
X109517918Y-172031680D01*
X109447198Y-171971033D01*
X109333815Y-171878181D01*
X109193921Y-171834521D01*
X109036124Y-171841467D01*
X108887945Y-171896176D01*
X108747518Y-172000810D01*
X108639275Y-172138473D01*
X108571231Y-172299105D01*
X108548000Y-172472000D01*
X108573317Y-172655938D01*
X108647401Y-172826191D01*
X108763351Y-172965569D01*
X108914643Y-173065472D01*
X109068309Y-173105565D01*
X109226190Y-173088466D01*
X109360863Y-173016849D01*
X109457193Y-172898585D01*
X109525497Y-172769785D01*
X109582644Y-172665557D01*
X109619209Y-172630529D01*
X109647948Y-172631422D01*
X110216137Y-172840563D01*
X110246604Y-172901177D01*
X110181846Y-173051578D01*
X110111592Y-173195191D01*
X109959771Y-173410044D01*
X109747377Y-173565286D01*
X109474168Y-173670167D01*
X109185339Y-173717293D01*
X108881311Y-173705644D01*
X108585322Y-173635228D01*
X108336223Y-173512186D01*
X108126244Y-173330254D01*
X107965124Y-173095337D01*
X107868704Y-172827287D01*
X107831899Y-172518345D01*
X107856388Y-172208183D01*
X107939774Y-171918128D01*
X108080451Y-171651119D01*
X108258635Y-171454887D01*
X108486812Y-171320007D01*
X108713491Y-171251187D01*
X108948789Y-171223729D01*
X109207238Y-171234538D01*
G37*
X107424941Y-171830548D02*
X107535402Y-171855991D01*
X107586932Y-171894449D01*
X107602878Y-171956734D01*
X107584857Y-172072873D01*
X107551829Y-172185666D01*
X106927899Y-173814748D01*
X106826740Y-174025348D01*
X106689388Y-174214346D01*
X106579055Y-174308641D01*
X106446381Y-174367481D01*
X106276075Y-174399542D01*
X106009978Y-174391005D01*
X105917164Y-174380272D01*
X105840756Y-174365842D01*
X105769563Y-174334568D01*
X105702156Y-174262716D01*
X105666045Y-174147000D01*
X105660714Y-174089031D01*
X105661131Y-174030820D01*
X105690624Y-173965555D01*
X105722406Y-173942915D01*
X105826772Y-173924355D01*
X105997577Y-173911829D01*
X106046275Y-173899377D01*
X106131969Y-173861859D01*
X106190989Y-173813803D01*
X106216779Y-173739102D01*
X106212309Y-173692510D01*
X106175938Y-173560666D01*
X106087896Y-173271107D01*
X106036226Y-173113391D01*
X105969996Y-172939406D01*
X105548000Y-171846531D01*
X105551564Y-171837360D01*
X105655907Y-171829796D01*
X105774486Y-171831693D01*
X105856753Y-171837107D01*
X105997600Y-171850088D01*
X106198973Y-171900216D01*
X106251206Y-171942082D01*
X106297557Y-172004450D01*
X106329775Y-172075161D01*
X106428150Y-172397000D01*
X106489056Y-172598221D01*
X106551823Y-172767781D01*
X106609744Y-172898262D01*
X106623688Y-172915508D01*
X106644894Y-172922000D01*
X106664888Y-172915932D01*
X106678113Y-172899752D01*
X106731392Y-172760437D01*
X106759162Y-172671627D01*
X106880544Y-172203980D01*
X106921830Y-172035961D01*
X106948481Y-171961203D01*
X106992460Y-171895137D01*
X107039455Y-171856968D01*
X107096842Y-171837677D01*
X107204091Y-171825924D01*
X107311910Y-171822000D01*
X107424941Y-171830548D01*
G36*
X107424941Y-171830548D02*
G01*
X107535402Y-171855991D01*
X107586932Y-171894449D01*
X107602878Y-171956734D01*
X107584857Y-172072873D01*
X107551829Y-172185666D01*
X106927899Y-173814748D01*
X106826740Y-174025348D01*
X106689388Y-174214346D01*
X106579055Y-174308641D01*
X106446381Y-174367481D01*
X106276075Y-174399542D01*
X106009978Y-174391005D01*
X105917164Y-174380272D01*
X105840756Y-174365842D01*
X105769563Y-174334568D01*
X105702156Y-174262716D01*
X105666045Y-174147000D01*
X105660714Y-174089031D01*
X105661131Y-174030820D01*
X105690624Y-173965555D01*
X105722406Y-173942915D01*
X105826772Y-173924355D01*
X105997577Y-173911829D01*
X106046275Y-173899377D01*
X106131969Y-173861859D01*
X106190989Y-173813803D01*
X106216779Y-173739102D01*
X106212309Y-173692510D01*
X106175938Y-173560666D01*
X106087896Y-173271107D01*
X106036226Y-173113391D01*
X105969996Y-172939406D01*
X105548000Y-171846531D01*
X105551564Y-171837360D01*
X105655907Y-171829796D01*
X105774486Y-171831693D01*
X105856753Y-171837107D01*
X105997600Y-171850088D01*
X106198973Y-171900216D01*
X106251206Y-171942082D01*
X106297557Y-172004450D01*
X106329775Y-172075161D01*
X106428150Y-172397000D01*
X106489056Y-172598221D01*
X106551823Y-172767781D01*
X106609744Y-172898262D01*
X106623688Y-172915508D01*
X106644894Y-172922000D01*
X106664888Y-172915932D01*
X106678113Y-172899752D01*
X106731392Y-172760437D01*
X106759162Y-172671627D01*
X106880544Y-172203980D01*
X106921830Y-172035961D01*
X106948481Y-171961203D01*
X106992460Y-171895137D01*
X107039455Y-171856968D01*
X107096842Y-171837677D01*
X107204091Y-171825924D01*
X107311910Y-171822000D01*
X107424941Y-171830548D01*
G37*
%TD*%
D13*
%TO.C,U18*%
X110916000Y-128263000D03*
X110916000Y-127761000D03*
X110916000Y-127259000D03*
X110916000Y-126757000D03*
X110916000Y-126255000D03*
X110916000Y-125753000D03*
X110916000Y-125251000D03*
X110916000Y-124749000D03*
X110916000Y-124247000D03*
X110916000Y-123745000D03*
X110916000Y-123243000D03*
X110916000Y-122741000D03*
X110916000Y-122239000D03*
X110916000Y-121737000D03*
X105084000Y-121750000D03*
X105084000Y-122250000D03*
X105084000Y-122750000D03*
X105084000Y-123250000D03*
X105084000Y-123750000D03*
X105084000Y-124247000D03*
X105084000Y-124750000D03*
X105084000Y-125251000D03*
X105084000Y-125753000D03*
X105084000Y-126255000D03*
X105084000Y-126757000D03*
X105084000Y-127250000D03*
X105084000Y-127761000D03*
X105084000Y-128250000D03*
D14*
X108000000Y-127468000D03*
D15*
X108000000Y-123892000D03*
%TD*%
D16*
%TO.C,J4*%
X129900000Y-57360000D03*
X130916000Y-62440000D03*
X128884000Y-62440000D03*
D17*
X129265000Y-58630000D03*
X130535000Y-58630000D03*
X129265000Y-59900000D03*
X130535000Y-59900000D03*
X129265000Y-61170000D03*
X130535000Y-61170000D03*
%TD*%
D13*
%TO.C,U20*%
X80916000Y-128263000D03*
X80916000Y-127761000D03*
X80916000Y-127259000D03*
X80916000Y-126757000D03*
X80916000Y-126255000D03*
X80916000Y-125753000D03*
X80916000Y-125251000D03*
X80916000Y-124749000D03*
X80916000Y-124247000D03*
X80916000Y-123745000D03*
X80916000Y-123243000D03*
X80916000Y-122741000D03*
X80916000Y-122239000D03*
X80916000Y-121737000D03*
X75084000Y-121750000D03*
X75084000Y-122250000D03*
X75084000Y-122750000D03*
X75084000Y-123250000D03*
X75084000Y-123750000D03*
X75084000Y-124247000D03*
X75084000Y-124750000D03*
X75084000Y-125251000D03*
X75084000Y-125753000D03*
X75084000Y-126255000D03*
X75084000Y-126757000D03*
X75084000Y-127250000D03*
X75084000Y-127761000D03*
X75084000Y-128250000D03*
D14*
X78000000Y-127468000D03*
D15*
X78000000Y-123892000D03*
%TD*%
D18*
%TO.C,TP5*%
X80900000Y-71950000D03*
%TD*%
D19*
%TO.C,R18*%
X88850000Y-54430000D03*
X88850000Y-53410000D03*
%TD*%
D20*
%TO.C,H1*%
X51250000Y-49500000D03*
X51909010Y-47909010D03*
X51909010Y-51090990D03*
X53500000Y-47250000D03*
D21*
X53500000Y-49500000D03*
D20*
X53500000Y-51750000D03*
X55090990Y-47909010D03*
X55090990Y-51090990D03*
X55750000Y-49500000D03*
%TD*%
D22*
%TO.C,Y1*%
X101300000Y-56777600D03*
X101300000Y-59622400D03*
%TD*%
D23*
%TO.C,J1*%
X65500000Y-54864000D03*
X65500000Y-49784000D03*
%TD*%
D24*
%TO.C,J8*%
X84780000Y-58489999D03*
D25*
X79700000Y-60650000D03*
X82240000Y-60650000D03*
X84780000Y-60650000D03*
X87320000Y-60650000D03*
%TD*%
D26*
%TO.C,H13*%
X92250000Y-97000000D03*
%TD*%
D20*
%TO.C,TP1*%
X54700000Y-67950000D03*
%TD*%
D27*
%TO.C,C23*%
X56475000Y-77300000D03*
X56475000Y-79200000D03*
%TD*%
D28*
%TO.C,R25*%
X88560000Y-67725000D03*
X87540000Y-67725000D03*
%TD*%
D29*
%TO.C,SW2*%
X81650000Y-46667500D03*
X77950000Y-46667500D03*
D30*
X81030000Y-48867500D03*
X78570000Y-48867500D03*
D31*
X79800000Y-48767500D03*
%TD*%
D20*
%TO.C,H4*%
X128750000Y-172000000D03*
X129409010Y-170409010D03*
X129409010Y-173590990D03*
X131000000Y-169750000D03*
D21*
X131000000Y-172000000D03*
D20*
X131000000Y-174250000D03*
X132590990Y-170409010D03*
X132590990Y-173590990D03*
X133250000Y-172000000D03*
%TD*%
D32*
%TO.C,FID3*%
X53340000Y-54356000D03*
%TD*%
D33*
%TO.C,L2*%
X71400000Y-76925000D03*
X71400000Y-70275000D03*
%TD*%
D34*
%TO.C,C13*%
X55500000Y-64225000D03*
X54540000Y-64225000D03*
%TD*%
D35*
%TO.C,C5*%
X53225000Y-79000000D03*
X54775000Y-79000000D03*
%TD*%
D34*
%TO.C,C36*%
X99380000Y-56800000D03*
X98420000Y-56800000D03*
%TD*%
D36*
%TO.C,C10*%
X68828000Y-63650000D03*
X74428000Y-63650000D03*
%TD*%
D26*
%TO.C,H15*%
X92250000Y-153000000D03*
%TD*%
D37*
%TO.C,J6*%
X121760000Y-69500000D03*
D38*
X119220000Y-69500000D03*
X116680000Y-69500000D03*
X114140000Y-69500000D03*
X111600000Y-69500000D03*
X109060000Y-69500000D03*
%TD*%
D13*
%TO.C,U25*%
X80916000Y-156263000D03*
X80916000Y-155761000D03*
X80916000Y-155259000D03*
X80916000Y-154757000D03*
X80916000Y-154255000D03*
X80916000Y-153753000D03*
X80916000Y-153251000D03*
X80916000Y-152749000D03*
X80916000Y-152247000D03*
X80916000Y-151745000D03*
X80916000Y-151243000D03*
X80916000Y-150741000D03*
X80916000Y-150239000D03*
X80916000Y-149737000D03*
X75084000Y-149750000D03*
X75084000Y-150250000D03*
X75084000Y-150750000D03*
X75084000Y-151250000D03*
X75084000Y-151750000D03*
X75084000Y-152247000D03*
X75084000Y-152750000D03*
X75084000Y-153251000D03*
X75084000Y-153753000D03*
X75084000Y-154255000D03*
X75084000Y-154757000D03*
X75084000Y-155250000D03*
X75084000Y-155761000D03*
X75084000Y-156250000D03*
D14*
X78000000Y-155468000D03*
D15*
X78000000Y-151892000D03*
%TD*%
D39*
%TO.C,R8*%
X55545000Y-61990000D03*
X55545000Y-63010000D03*
%TD*%
D24*
%TO.C,J9*%
X89990000Y-70214999D03*
D25*
X84910000Y-72375000D03*
X87450000Y-72375000D03*
X89990000Y-72375000D03*
X92530000Y-72375000D03*
%TD*%
D40*
%TO.C,C40*%
X88900000Y-173180000D03*
X88900000Y-172220000D03*
%TD*%
D26*
%TO.C,H14*%
X92250000Y-125000000D03*
%TD*%
D18*
%TO.C,TP6*%
X82296000Y-67818000D03*
%TD*%
D26*
%TO.C,H10*%
X122500000Y-125000000D03*
%TD*%
D41*
%TO.C,C27*%
X79500000Y-69850000D03*
X79500000Y-66900000D03*
%TD*%
D42*
%TO.C,C2*%
X61845000Y-68000000D03*
X62805000Y-68000000D03*
%TD*%
D13*
%TO.C,U22*%
X110916000Y-156263000D03*
X110916000Y-155761000D03*
X110916000Y-155259000D03*
X110916000Y-154757000D03*
X110916000Y-154255000D03*
X110916000Y-153753000D03*
X110916000Y-153251000D03*
X110916000Y-152749000D03*
X110916000Y-152247000D03*
X110916000Y-151745000D03*
X110916000Y-151243000D03*
X110916000Y-150741000D03*
X110916000Y-150239000D03*
X110916000Y-149737000D03*
X105084000Y-149750000D03*
X105084000Y-150250000D03*
X105084000Y-150750000D03*
X105084000Y-151250000D03*
X105084000Y-151750000D03*
X105084000Y-152247000D03*
X105084000Y-152750000D03*
X105084000Y-153251000D03*
X105084000Y-153753000D03*
X105084000Y-154255000D03*
X105084000Y-154757000D03*
X105084000Y-155250000D03*
X105084000Y-155761000D03*
X105084000Y-156250000D03*
D14*
X108000000Y-155468000D03*
D15*
X108000000Y-151892000D03*
%TD*%
D26*
%TO.C,H9*%
X62000000Y-125000000D03*
%TD*%
D32*
%TO.C,FID1*%
X132842000Y-54050000D03*
%TD*%
D43*
%TO.C,U9*%
X95900000Y-67675000D03*
X95900000Y-67175000D03*
X95900000Y-66675000D03*
X95900000Y-66175000D03*
X95900000Y-65675000D03*
X91500000Y-65675000D03*
X91500000Y-66175000D03*
X91500000Y-66675000D03*
X91500000Y-67175000D03*
X91500000Y-67675000D03*
%TD*%
D34*
%TO.C,C37*%
X99380000Y-59600000D03*
X98420000Y-59600000D03*
%TD*%
D28*
%TO.C,R9*%
X55555000Y-65500000D03*
X54535000Y-65500000D03*
%TD*%
D39*
%TO.C,R13*%
X56725000Y-63890000D03*
X56725000Y-64910000D03*
%TD*%
D44*
%TO.C,U3*%
X55650000Y-74250000D03*
X56150000Y-74250000D03*
X56650000Y-74250000D03*
X57150000Y-74250000D03*
X57650000Y-74250000D03*
X58150000Y-74250000D03*
X58650000Y-74250000D03*
X59150000Y-74250000D03*
X59650000Y-74250000D03*
X60150000Y-74250000D03*
X60650000Y-74250000D03*
X61150000Y-74250000D03*
D45*
X61900000Y-73500000D03*
X61900000Y-73000000D03*
X61900000Y-72500000D03*
X61900000Y-72000000D03*
X61900000Y-71500000D03*
X61900000Y-71000000D03*
X61900000Y-70500000D03*
X61900000Y-70000000D03*
D44*
X61150000Y-69250000D03*
X60650000Y-69250000D03*
X60150000Y-69250000D03*
X59650000Y-69250000D03*
X59150000Y-69250000D03*
X58650000Y-69250000D03*
X58150000Y-69250000D03*
X57650000Y-69250000D03*
X57150000Y-69250000D03*
X56650000Y-69250000D03*
X56150000Y-69250000D03*
X55650000Y-69250000D03*
D45*
X54900000Y-70000000D03*
X54900000Y-70500000D03*
X54900000Y-71000000D03*
X54900000Y-71500000D03*
X54900000Y-72000000D03*
X54900000Y-72500000D03*
X54900000Y-73000000D03*
X54900000Y-73500000D03*
D46*
X57000000Y-73030000D03*
X58400000Y-73030000D03*
X59800000Y-73030000D03*
X56000000Y-71750000D03*
X57000000Y-71750000D03*
X58400000Y-71750000D03*
D47*
X58400000Y-71750000D03*
D46*
X59800000Y-71750000D03*
X60800000Y-71750000D03*
X57000000Y-70470000D03*
X58400000Y-70470000D03*
X59800000Y-70470000D03*
%TD*%
D32*
%TO.C,FID7*%
X58725000Y-173825000D03*
%TD*%
D42*
%TO.C,C16*%
X61845000Y-66825000D03*
X62805000Y-66825000D03*
%TD*%
D48*
%TO.C,U7*%
X83500100Y-54899999D03*
X83500100Y-54400000D03*
X83500100Y-53900001D03*
X81899900Y-53900001D03*
X81899900Y-54400000D03*
X81899900Y-54899999D03*
%TD*%
D26*
%TO.C,H12*%
X122500000Y-153000000D03*
%TD*%
D27*
%TO.C,C22*%
X58575000Y-77300000D03*
X58575000Y-79200000D03*
%TD*%
D13*
%TO.C,U13*%
X80916000Y-100263000D03*
X80916000Y-99761000D03*
X80916000Y-99259000D03*
X80916000Y-98757000D03*
X80916000Y-98255000D03*
X80916000Y-97753000D03*
X80916000Y-97251000D03*
X80916000Y-96749000D03*
X80916000Y-96247000D03*
X80916000Y-95745000D03*
X80916000Y-95243000D03*
X80916000Y-94741000D03*
X80916000Y-94239000D03*
X80916000Y-93737000D03*
X75084000Y-93750000D03*
X75084000Y-94250000D03*
X75084000Y-94750000D03*
X75084000Y-95250000D03*
X75084000Y-95750000D03*
X75084000Y-96247000D03*
X75084000Y-96750000D03*
X75084000Y-97251000D03*
X75084000Y-97753000D03*
X75084000Y-98255000D03*
X75084000Y-98757000D03*
X75084000Y-99250000D03*
X75084000Y-99761000D03*
X75084000Y-100250000D03*
D14*
X78000000Y-99468000D03*
D15*
X78000000Y-95892000D03*
%TD*%
D26*
%TO.C,H8*%
X122500000Y-97000000D03*
%TD*%
%TO.C,H7*%
X62000000Y-97000000D03*
%TD*%
D37*
%TO.C,J5*%
X125800000Y-55200000D03*
D38*
X125800000Y-57740000D03*
X125800000Y-60280000D03*
X125800000Y-62820000D03*
%TD*%
D49*
%TO.C,U6*%
X104350000Y-47780000D03*
X104350000Y-49050000D03*
X104350000Y-50320000D03*
X104350000Y-51590000D03*
X104350000Y-52860000D03*
X104350000Y-54130000D03*
X104350000Y-55400000D03*
X104350000Y-56670000D03*
X104350000Y-57940000D03*
X104350000Y-59210000D03*
X104350000Y-60480000D03*
X104350000Y-61750000D03*
X104350000Y-63020000D03*
X104350000Y-64290000D03*
D50*
X106115000Y-65540000D03*
X107385000Y-65540000D03*
X108655000Y-65540000D03*
X109925000Y-65540000D03*
X111195000Y-65540000D03*
X112465000Y-65540000D03*
X113735000Y-65540000D03*
X115005000Y-65540000D03*
X116275000Y-65540000D03*
X117545000Y-65540000D03*
X118815000Y-65540000D03*
X120085000Y-65540000D03*
D49*
X121850000Y-64290000D03*
X121850000Y-63020000D03*
X121850000Y-61750000D03*
X121850000Y-60480000D03*
X121850000Y-59210000D03*
X121850000Y-57940000D03*
X121850000Y-56670000D03*
X121850000Y-55400000D03*
X121850000Y-54130000D03*
X121850000Y-52860000D03*
X121850000Y-51590000D03*
X121850000Y-50320000D03*
X121850000Y-49050000D03*
X121850000Y-47780000D03*
D51*
X110200000Y-54100000D03*
X110200000Y-55500000D03*
X110200000Y-56900000D03*
X111600000Y-54100000D03*
X111600000Y-55500000D03*
X111600000Y-56900000D03*
X113000000Y-54100000D03*
X113000000Y-55500000D03*
X113000000Y-56900000D03*
%TD*%
D52*
%TO.C,C9*%
X66125000Y-58300000D03*
X69075000Y-58300000D03*
%TD*%
D32*
%TO.C,FID5*%
X125984000Y-173228000D03*
%TD*%
D53*
%TO.C,C32*%
X90300000Y-53440000D03*
X90300000Y-54400000D03*
%TD*%
D20*
%TO.C,H5*%
X51250000Y-110750000D03*
X51909010Y-109159010D03*
X51909010Y-112340990D03*
X53500000Y-108500000D03*
D21*
X53500000Y-110750000D03*
D20*
X53500000Y-113000000D03*
X55090990Y-109159010D03*
X55090990Y-112340990D03*
X55750000Y-110750000D03*
%TD*%
D54*
%TO.C,J7*%
X99560000Y-52300000D03*
X93780000Y-52300000D03*
D55*
X99870000Y-53420000D03*
X99070000Y-53420000D03*
D56*
X97920000Y-53375000D03*
X96920000Y-53375000D03*
X96420000Y-53375000D03*
X95420000Y-53375000D03*
D55*
X94270000Y-53420000D03*
X93470000Y-53420000D03*
X93470000Y-53420000D03*
X94270000Y-53420000D03*
D56*
X94920000Y-53375000D03*
X95920000Y-53375000D03*
X97420000Y-53375000D03*
X98420000Y-53375000D03*
D55*
X99070000Y-53420000D03*
X99870000Y-53420000D03*
D57*
X100990000Y-52800000D03*
D58*
X100990000Y-48620000D03*
D57*
X92350000Y-52800000D03*
D58*
X92350000Y-48620000D03*
%TD*%
D59*
%TO.C,R17*%
X103090000Y-67225000D03*
X104110000Y-67225000D03*
%TD*%
D60*
%TO.C,R14*%
X60387500Y-78750000D03*
X63312500Y-78750000D03*
%TD*%
D29*
%TO.C,SW1*%
X89200000Y-46667500D03*
X85500000Y-46667500D03*
D30*
X88580000Y-48867500D03*
X86120000Y-48867500D03*
D31*
X87350000Y-48767500D03*
%TD*%
D20*
%TO.C,H2*%
X128750000Y-49500000D03*
X129409010Y-47909010D03*
X129409010Y-51090990D03*
X131000000Y-47250000D03*
D21*
X131000000Y-49500000D03*
D20*
X131000000Y-51750000D03*
X132590990Y-47909010D03*
X132590990Y-51090990D03*
X133250000Y-49500000D03*
%TD*%
%TO.C,H3*%
X51250000Y-172000000D03*
X51909010Y-170409010D03*
X51909010Y-173590990D03*
X53500000Y-169750000D03*
D21*
X53500000Y-172000000D03*
D20*
X53500000Y-174250000D03*
X55090990Y-170409010D03*
X55090990Y-173590990D03*
X55750000Y-172000000D03*
%TD*%
D53*
%TO.C,C24*%
X53025000Y-69795000D03*
X53025000Y-70755000D03*
%TD*%
D26*
%TO.C,H11*%
X62000000Y-153000000D03*
%TD*%
D53*
%TO.C,C38*%
X95600000Y-69120000D03*
X95600000Y-70080000D03*
%TD*%
D20*
%TO.C,H6*%
X128750000Y-110750000D03*
X129409010Y-109159010D03*
X129409010Y-112340990D03*
X131000000Y-108500000D03*
D21*
X131000000Y-110750000D03*
D20*
X131000000Y-113000000D03*
X132590990Y-109159010D03*
X132590990Y-112340990D03*
X133250000Y-110750000D03*
%TD*%
D61*
%TO.C,C14*%
X62125000Y-65275000D03*
X64025000Y-65275000D03*
%TD*%
D48*
%TO.C,U8*%
X92400900Y-173699999D03*
X92400900Y-173200000D03*
X92400900Y-172700001D03*
X90800700Y-172700001D03*
X90800700Y-173200000D03*
X90800700Y-173699999D03*
%TD*%
D18*
%TO.C,TP32*%
X93300000Y-56750000D03*
%TD*%
D23*
%TO.C,J2*%
X72644000Y-54864000D03*
X72644000Y-49784000D03*
%TD*%
D28*
%TO.C,R24*%
X88535000Y-66125000D03*
X87515000Y-66125000D03*
%TD*%
D13*
%TO.C,U12*%
X110916000Y-100263000D03*
X110916000Y-99761000D03*
X110916000Y-99259000D03*
X110916000Y-98757000D03*
X110916000Y-98255000D03*
X110916000Y-97753000D03*
X110916000Y-97251000D03*
X110916000Y-96749000D03*
X110916000Y-96247000D03*
X110916000Y-95745000D03*
X110916000Y-95243000D03*
X110916000Y-94741000D03*
X110916000Y-94239000D03*
X110916000Y-93737000D03*
X105084000Y-93750000D03*
X105084000Y-94250000D03*
X105084000Y-94750000D03*
X105084000Y-95250000D03*
X105084000Y-95750000D03*
X105084000Y-96247000D03*
X105084000Y-96750000D03*
X105084000Y-97251000D03*
X105084000Y-97753000D03*
X105084000Y-98255000D03*
X105084000Y-98757000D03*
X105084000Y-99250000D03*
X105084000Y-99761000D03*
X105084000Y-100250000D03*
D14*
X108000000Y-99468000D03*
D15*
X108000000Y-95892000D03*
%TD*%
D37*
%TO.C,J3*%
X54450000Y-98970000D03*
D38*
X56990000Y-98970000D03*
X54450000Y-96430000D03*
X56990000Y-96430000D03*
X54450000Y-93890000D03*
X56990000Y-93890000D03*
X54450000Y-91350000D03*
X56990000Y-91350000D03*
X54450000Y-88810000D03*
X56990000Y-88810000D03*
%TD*%
M02*
