%TF.GenerationSoftware,KiCad,Pcbnew,8.0.1*%
%TF.CreationDate,2024-09-23T04:48:19+08:00*%
%TF.ProjectId,bitaxeHex,62697461-7865-4486-9578-2e6b69636164,302*%
%TF.SameCoordinates,Original*%
%TF.FileFunction,Paste,Top*%
%TF.FilePolarity,Positive*%
%FSLAX46Y46*%
G04 Gerber Fmt 4.6, Leading zero omitted, Abs format (unit mm)*
G04 Created by KiCad (PCBNEW 8.0.1) date 2024-09-23 04:48:19*
%MOMM*%
%LPD*%
G01*
G04 APERTURE LIST*
G04 Aperture macros list*
%AMRoundRect*
0 Rectangle with rounded corners*
0 $1 Rounding radius*
0 $2 $3 $4 $5 $6 $7 $8 $9 X,Y pos of 4 corners*
0 Add a 4 corners polygon primitive as box body*
4,1,4,$2,$3,$4,$5,$6,$7,$8,$9,$2,$3,0*
0 Add four circle primitives for the rounded corners*
1,1,$1+$1,$2,$3*
1,1,$1+$1,$4,$5*
1,1,$1+$1,$6,$7*
1,1,$1+$1,$8,$9*
0 Add four rect primitives between the rounded corners*
20,1,$1+$1,$2,$3,$4,$5,0*
20,1,$1+$1,$4,$5,$6,$7,0*
20,1,$1+$1,$6,$7,$8,$9,0*
20,1,$1+$1,$8,$9,$2,$3,0*%
G04 Aperture macros list end*
%ADD10C,0.001000*%
%ADD11RoundRect,0.135000X0.185000X-0.135000X0.185000X0.135000X-0.185000X0.135000X-0.185000X-0.135000X0*%
%ADD12R,1.600200X1.168400*%
%ADD13RoundRect,0.250000X-0.475000X0.250000X-0.475000X-0.250000X0.475000X-0.250000X0.475000X0.250000X0*%
%ADD14RoundRect,0.135000X0.135000X0.185000X-0.135000X0.185000X-0.135000X-0.185000X0.135000X-0.185000X0*%
%ADD15RoundRect,0.200000X0.450000X0.200000X-0.450000X0.200000X-0.450000X-0.200000X0.450000X-0.200000X0*%
%ADD16O,0.740000X1.750000*%
%ADD17RoundRect,0.150000X0.150000X0.750000X-0.150000X0.750000X-0.150000X-0.750000X0.150000X-0.750000X0*%
%ADD18RoundRect,0.055250X0.340750X0.055250X-0.340750X0.055250X-0.340750X-0.055250X0.340750X-0.055250X0*%
%ADD19R,9.000000X2.380000*%
%ADD20RoundRect,0.140000X0.140000X0.170000X-0.140000X0.170000X-0.140000X-0.170000X0.140000X-0.170000X0*%
%ADD21RoundRect,0.225000X-0.225000X-0.250000X0.225000X-0.250000X0.225000X0.250000X-0.225000X0.250000X0*%
%ADD22RoundRect,0.250000X-1.500000X-0.550000X1.500000X-0.550000X1.500000X0.550000X-1.500000X0.550000X0*%
%ADD23RoundRect,0.135000X-0.185000X0.135000X-0.185000X-0.135000X0.185000X-0.135000X0.185000X0.135000X0*%
%ADD24RoundRect,0.140000X0.170000X-0.140000X0.170000X0.140000X-0.170000X0.140000X-0.170000X-0.140000X0*%
%ADD25RoundRect,0.250000X1.100000X-0.325000X1.100000X0.325000X-1.100000X0.325000X-1.100000X-0.325000X0*%
%ADD26RoundRect,0.140000X-0.140000X-0.170000X0.140000X-0.170000X0.140000X0.170000X-0.140000X0.170000X0*%
%ADD27R,1.400000X0.300000*%
%ADD28RoundRect,0.220588X0.229412X-0.429412X0.229412X0.429412X-0.229412X0.429412X-0.229412X-0.429412X0*%
%ADD29RoundRect,0.232843X0.242157X-0.467157X0.242157X0.467157X-0.242157X0.467157X-0.242157X-0.467157X0*%
%ADD30RoundRect,0.062500X0.062500X-0.337500X0.062500X0.337500X-0.062500X0.337500X-0.062500X-0.337500X0*%
%ADD31RoundRect,0.062500X0.337500X-0.062500X0.337500X0.062500X-0.337500X0.062500X-0.337500X-0.062500X0*%
%ADD32R,0.711200X0.228600*%
%ADD33R,1.500000X0.900000*%
%ADD34R,0.900000X1.500000*%
%ADD35R,0.900000X0.900000*%
%ADD36RoundRect,0.250000X-0.325000X-1.100000X0.325000X-1.100000X0.325000X1.100000X-0.325000X1.100000X0*%
%ADD37RoundRect,0.140000X-0.170000X0.140000X-0.170000X-0.140000X0.170000X-0.140000X0.170000X0.140000X0*%
%ADD38R,0.600000X1.060000*%
%ADD39R,0.300000X1.150000*%
%ADD40O,1.000000X2.100000*%
%ADD41O,1.000000X1.800000*%
%ADD42RoundRect,0.135000X-0.135000X-0.185000X0.135000X-0.185000X0.135000X0.185000X-0.135000X0.185000X0*%
%ADD43RoundRect,0.250000X-0.312500X-0.625000X0.312500X-0.625000X0.312500X0.625000X-0.312500X0.625000X0*%
%ADD44R,0.625000X1.000000*%
%ADD45RoundRect,0.250000X-0.250000X-0.475000X0.250000X-0.475000X0.250000X0.475000X-0.250000X0.475000X0*%
G04 APERTURE END LIST*
%TO.C,U18*%
D10*
X75132258Y-121645000D02*
X76332258Y-121645000D01*
X76332258Y-122595000D01*
X75132258Y-122595000D01*
X75132258Y-121645000D01*
G36*
X75132258Y-121645000D02*
G01*
X76332258Y-121645000D01*
X76332258Y-122595000D01*
X75132258Y-122595000D01*
X75132258Y-121645000D01*
G37*
X75142258Y-123505000D02*
X76342258Y-123505000D01*
X76342258Y-124455000D01*
X75142258Y-124455000D01*
X75142258Y-123505000D01*
G36*
X75142258Y-123505000D02*
G01*
X76342258Y-123505000D01*
X76342258Y-124455000D01*
X75142258Y-124455000D01*
X75142258Y-123505000D01*
G37*
X75152258Y-125335000D02*
X76352258Y-125335000D01*
X76352258Y-126285000D01*
X75152258Y-126285000D01*
X75152258Y-125335000D01*
G36*
X75152258Y-125335000D02*
G01*
X76352258Y-125335000D01*
X76352258Y-126285000D01*
X75152258Y-126285000D01*
X75152258Y-125335000D01*
G37*
X75152258Y-127580000D02*
X76352258Y-127580000D01*
X76352258Y-128690000D01*
X75152258Y-128690000D01*
X75152258Y-127580000D01*
G36*
X75152258Y-127580000D02*
G01*
X76352258Y-127580000D01*
X76352258Y-128690000D01*
X75152258Y-128690000D01*
X75152258Y-127580000D01*
G37*
X77282258Y-121645000D02*
X78482258Y-121645000D01*
X78482258Y-122595000D01*
X77282258Y-122595000D01*
X77282258Y-121645000D01*
G36*
X77282258Y-121645000D02*
G01*
X78482258Y-121645000D01*
X78482258Y-122595000D01*
X77282258Y-122595000D01*
X77282258Y-121645000D01*
G37*
X77292258Y-123505000D02*
X78492258Y-123505000D01*
X78492258Y-124455000D01*
X77292258Y-124455000D01*
X77292258Y-123505000D01*
G36*
X77292258Y-123505000D02*
G01*
X78492258Y-123505000D01*
X78492258Y-124455000D01*
X77292258Y-124455000D01*
X77292258Y-123505000D01*
G37*
X77302258Y-125335000D02*
X78502258Y-125335000D01*
X78502258Y-126285000D01*
X77302258Y-126285000D01*
X77302258Y-125335000D01*
G36*
X77302258Y-125335000D02*
G01*
X78502258Y-125335000D01*
X78502258Y-126285000D01*
X77302258Y-126285000D01*
X77302258Y-125335000D01*
G37*
X77332258Y-127560000D02*
X78532258Y-127560000D01*
X78532258Y-128670000D01*
X77332258Y-128670000D01*
X77332258Y-127560000D01*
G36*
X77332258Y-127560000D02*
G01*
X78532258Y-127560000D01*
X78532258Y-128670000D01*
X77332258Y-128670000D01*
X77332258Y-127560000D01*
G37*
X79472258Y-127550000D02*
X80672258Y-127550000D01*
X80672258Y-128670000D01*
X79472258Y-128670000D01*
X79472258Y-127550000D01*
G36*
X79472258Y-127550000D02*
G01*
X80672258Y-127550000D01*
X80672258Y-128670000D01*
X79472258Y-128670000D01*
X79472258Y-127550000D01*
G37*
X79492258Y-121655000D02*
X80692258Y-121655000D01*
X80692258Y-122605000D01*
X79492258Y-122605000D01*
X79492258Y-121655000D01*
G36*
X79492258Y-121655000D02*
G01*
X80692258Y-121655000D01*
X80692258Y-122605000D01*
X79492258Y-122605000D01*
X79492258Y-121655000D01*
G37*
X79502258Y-123515000D02*
X80702258Y-123515000D01*
X80702258Y-124465000D01*
X79502258Y-124465000D01*
X79502258Y-123515000D01*
G36*
X79502258Y-123515000D02*
G01*
X80702258Y-123515000D01*
X80702258Y-124465000D01*
X79502258Y-124465000D01*
X79502258Y-123515000D01*
G37*
X79512258Y-125345000D02*
X80712258Y-125345000D01*
X80712258Y-126295000D01*
X79512258Y-126295000D01*
X79512258Y-125345000D01*
G36*
X79512258Y-125345000D02*
G01*
X80712258Y-125345000D01*
X80712258Y-126295000D01*
X79512258Y-126295000D01*
X79512258Y-125345000D01*
G37*
%TO.C,U25*%
X105094000Y-149369000D02*
X106294000Y-149369000D01*
X106294000Y-150319000D01*
X105094000Y-150319000D01*
X105094000Y-149369000D01*
G36*
X105094000Y-149369000D02*
G01*
X106294000Y-149369000D01*
X106294000Y-150319000D01*
X105094000Y-150319000D01*
X105094000Y-149369000D01*
G37*
X105104000Y-151229000D02*
X106304000Y-151229000D01*
X106304000Y-152179000D01*
X105104000Y-152179000D01*
X105104000Y-151229000D01*
G36*
X105104000Y-151229000D02*
G01*
X106304000Y-151229000D01*
X106304000Y-152179000D01*
X105104000Y-152179000D01*
X105104000Y-151229000D01*
G37*
X105114000Y-153059000D02*
X106314000Y-153059000D01*
X106314000Y-154009000D01*
X105114000Y-154009000D01*
X105114000Y-153059000D01*
G36*
X105114000Y-153059000D02*
G01*
X106314000Y-153059000D01*
X106314000Y-154009000D01*
X105114000Y-154009000D01*
X105114000Y-153059000D01*
G37*
X105114000Y-155304000D02*
X106314000Y-155304000D01*
X106314000Y-156414000D01*
X105114000Y-156414000D01*
X105114000Y-155304000D01*
G36*
X105114000Y-155304000D02*
G01*
X106314000Y-155304000D01*
X106314000Y-156414000D01*
X105114000Y-156414000D01*
X105114000Y-155304000D01*
G37*
X107244000Y-149369000D02*
X108444000Y-149369000D01*
X108444000Y-150319000D01*
X107244000Y-150319000D01*
X107244000Y-149369000D01*
G36*
X107244000Y-149369000D02*
G01*
X108444000Y-149369000D01*
X108444000Y-150319000D01*
X107244000Y-150319000D01*
X107244000Y-149369000D01*
G37*
X107254000Y-151229000D02*
X108454000Y-151229000D01*
X108454000Y-152179000D01*
X107254000Y-152179000D01*
X107254000Y-151229000D01*
G36*
X107254000Y-151229000D02*
G01*
X108454000Y-151229000D01*
X108454000Y-152179000D01*
X107254000Y-152179000D01*
X107254000Y-151229000D01*
G37*
X107264000Y-153059000D02*
X108464000Y-153059000D01*
X108464000Y-154009000D01*
X107264000Y-154009000D01*
X107264000Y-153059000D01*
G36*
X107264000Y-153059000D02*
G01*
X108464000Y-153059000D01*
X108464000Y-154009000D01*
X107264000Y-154009000D01*
X107264000Y-153059000D01*
G37*
X107294000Y-155284000D02*
X108494000Y-155284000D01*
X108494000Y-156394000D01*
X107294000Y-156394000D01*
X107294000Y-155284000D01*
G36*
X107294000Y-155284000D02*
G01*
X108494000Y-155284000D01*
X108494000Y-156394000D01*
X107294000Y-156394000D01*
X107294000Y-155284000D01*
G37*
X109434000Y-155274000D02*
X110634000Y-155274000D01*
X110634000Y-156394000D01*
X109434000Y-156394000D01*
X109434000Y-155274000D01*
G36*
X109434000Y-155274000D02*
G01*
X110634000Y-155274000D01*
X110634000Y-156394000D01*
X109434000Y-156394000D01*
X109434000Y-155274000D01*
G37*
X109454000Y-149379000D02*
X110654000Y-149379000D01*
X110654000Y-150329000D01*
X109454000Y-150329000D01*
X109454000Y-149379000D01*
G36*
X109454000Y-149379000D02*
G01*
X110654000Y-149379000D01*
X110654000Y-150329000D01*
X109454000Y-150329000D01*
X109454000Y-149379000D01*
G37*
X109464000Y-151239000D02*
X110664000Y-151239000D01*
X110664000Y-152189000D01*
X109464000Y-152189000D01*
X109464000Y-151239000D01*
G36*
X109464000Y-151239000D02*
G01*
X110664000Y-151239000D01*
X110664000Y-152189000D01*
X109464000Y-152189000D01*
X109464000Y-151239000D01*
G37*
X109474000Y-153069000D02*
X110674000Y-153069000D01*
X110674000Y-154019000D01*
X109474000Y-154019000D01*
X109474000Y-153069000D01*
G36*
X109474000Y-153069000D02*
G01*
X110674000Y-153069000D01*
X110674000Y-154019000D01*
X109474000Y-154019000D01*
X109474000Y-153069000D01*
G37*
%TO.C,U13*%
X105094000Y-121645000D02*
X106294000Y-121645000D01*
X106294000Y-122595000D01*
X105094000Y-122595000D01*
X105094000Y-121645000D01*
G36*
X105094000Y-121645000D02*
G01*
X106294000Y-121645000D01*
X106294000Y-122595000D01*
X105094000Y-122595000D01*
X105094000Y-121645000D01*
G37*
X105104000Y-123505000D02*
X106304000Y-123505000D01*
X106304000Y-124455000D01*
X105104000Y-124455000D01*
X105104000Y-123505000D01*
G36*
X105104000Y-123505000D02*
G01*
X106304000Y-123505000D01*
X106304000Y-124455000D01*
X105104000Y-124455000D01*
X105104000Y-123505000D01*
G37*
X105114000Y-125335000D02*
X106314000Y-125335000D01*
X106314000Y-126285000D01*
X105114000Y-126285000D01*
X105114000Y-125335000D01*
G36*
X105114000Y-125335000D02*
G01*
X106314000Y-125335000D01*
X106314000Y-126285000D01*
X105114000Y-126285000D01*
X105114000Y-125335000D01*
G37*
X105114000Y-127580000D02*
X106314000Y-127580000D01*
X106314000Y-128690000D01*
X105114000Y-128690000D01*
X105114000Y-127580000D01*
G36*
X105114000Y-127580000D02*
G01*
X106314000Y-127580000D01*
X106314000Y-128690000D01*
X105114000Y-128690000D01*
X105114000Y-127580000D01*
G37*
X107244000Y-121645000D02*
X108444000Y-121645000D01*
X108444000Y-122595000D01*
X107244000Y-122595000D01*
X107244000Y-121645000D01*
G36*
X107244000Y-121645000D02*
G01*
X108444000Y-121645000D01*
X108444000Y-122595000D01*
X107244000Y-122595000D01*
X107244000Y-121645000D01*
G37*
X107254000Y-123505000D02*
X108454000Y-123505000D01*
X108454000Y-124455000D01*
X107254000Y-124455000D01*
X107254000Y-123505000D01*
G36*
X107254000Y-123505000D02*
G01*
X108454000Y-123505000D01*
X108454000Y-124455000D01*
X107254000Y-124455000D01*
X107254000Y-123505000D01*
G37*
X107264000Y-125335000D02*
X108464000Y-125335000D01*
X108464000Y-126285000D01*
X107264000Y-126285000D01*
X107264000Y-125335000D01*
G36*
X107264000Y-125335000D02*
G01*
X108464000Y-125335000D01*
X108464000Y-126285000D01*
X107264000Y-126285000D01*
X107264000Y-125335000D01*
G37*
X107294000Y-127560000D02*
X108494000Y-127560000D01*
X108494000Y-128670000D01*
X107294000Y-128670000D01*
X107294000Y-127560000D01*
G36*
X107294000Y-127560000D02*
G01*
X108494000Y-127560000D01*
X108494000Y-128670000D01*
X107294000Y-128670000D01*
X107294000Y-127560000D01*
G37*
X109434000Y-127550000D02*
X110634000Y-127550000D01*
X110634000Y-128670000D01*
X109434000Y-128670000D01*
X109434000Y-127550000D01*
G36*
X109434000Y-127550000D02*
G01*
X110634000Y-127550000D01*
X110634000Y-128670000D01*
X109434000Y-128670000D01*
X109434000Y-127550000D01*
G37*
X109454000Y-121655000D02*
X110654000Y-121655000D01*
X110654000Y-122605000D01*
X109454000Y-122605000D01*
X109454000Y-121655000D01*
G36*
X109454000Y-121655000D02*
G01*
X110654000Y-121655000D01*
X110654000Y-122605000D01*
X109454000Y-122605000D01*
X109454000Y-121655000D01*
G37*
X109464000Y-123515000D02*
X110664000Y-123515000D01*
X110664000Y-124465000D01*
X109464000Y-124465000D01*
X109464000Y-123515000D01*
G36*
X109464000Y-123515000D02*
G01*
X110664000Y-123515000D01*
X110664000Y-124465000D01*
X109464000Y-124465000D01*
X109464000Y-123515000D01*
G37*
X109474000Y-125345000D02*
X110674000Y-125345000D01*
X110674000Y-126295000D01*
X109474000Y-126295000D01*
X109474000Y-125345000D01*
G36*
X109474000Y-125345000D02*
G01*
X110674000Y-125345000D01*
X110674000Y-126295000D01*
X109474000Y-126295000D01*
X109474000Y-125345000D01*
G37*
%TO.C,U12*%
X105094000Y-93411000D02*
X106294000Y-93411000D01*
X106294000Y-94361000D01*
X105094000Y-94361000D01*
X105094000Y-93411000D01*
G36*
X105094000Y-93411000D02*
G01*
X106294000Y-93411000D01*
X106294000Y-94361000D01*
X105094000Y-94361000D01*
X105094000Y-93411000D01*
G37*
X105104000Y-95271000D02*
X106304000Y-95271000D01*
X106304000Y-96221000D01*
X105104000Y-96221000D01*
X105104000Y-95271000D01*
G36*
X105104000Y-95271000D02*
G01*
X106304000Y-95271000D01*
X106304000Y-96221000D01*
X105104000Y-96221000D01*
X105104000Y-95271000D01*
G37*
X105114000Y-97101000D02*
X106314000Y-97101000D01*
X106314000Y-98051000D01*
X105114000Y-98051000D01*
X105114000Y-97101000D01*
G36*
X105114000Y-97101000D02*
G01*
X106314000Y-97101000D01*
X106314000Y-98051000D01*
X105114000Y-98051000D01*
X105114000Y-97101000D01*
G37*
X105114000Y-99346000D02*
X106314000Y-99346000D01*
X106314000Y-100456000D01*
X105114000Y-100456000D01*
X105114000Y-99346000D01*
G36*
X105114000Y-99346000D02*
G01*
X106314000Y-99346000D01*
X106314000Y-100456000D01*
X105114000Y-100456000D01*
X105114000Y-99346000D01*
G37*
X107244000Y-93411000D02*
X108444000Y-93411000D01*
X108444000Y-94361000D01*
X107244000Y-94361000D01*
X107244000Y-93411000D01*
G36*
X107244000Y-93411000D02*
G01*
X108444000Y-93411000D01*
X108444000Y-94361000D01*
X107244000Y-94361000D01*
X107244000Y-93411000D01*
G37*
X107254000Y-95271000D02*
X108454000Y-95271000D01*
X108454000Y-96221000D01*
X107254000Y-96221000D01*
X107254000Y-95271000D01*
G36*
X107254000Y-95271000D02*
G01*
X108454000Y-95271000D01*
X108454000Y-96221000D01*
X107254000Y-96221000D01*
X107254000Y-95271000D01*
G37*
X107264000Y-97101000D02*
X108464000Y-97101000D01*
X108464000Y-98051000D01*
X107264000Y-98051000D01*
X107264000Y-97101000D01*
G36*
X107264000Y-97101000D02*
G01*
X108464000Y-97101000D01*
X108464000Y-98051000D01*
X107264000Y-98051000D01*
X107264000Y-97101000D01*
G37*
X107294000Y-99326000D02*
X108494000Y-99326000D01*
X108494000Y-100436000D01*
X107294000Y-100436000D01*
X107294000Y-99326000D01*
G36*
X107294000Y-99326000D02*
G01*
X108494000Y-99326000D01*
X108494000Y-100436000D01*
X107294000Y-100436000D01*
X107294000Y-99326000D01*
G37*
X109434000Y-99316000D02*
X110634000Y-99316000D01*
X110634000Y-100436000D01*
X109434000Y-100436000D01*
X109434000Y-99316000D01*
G36*
X109434000Y-99316000D02*
G01*
X110634000Y-99316000D01*
X110634000Y-100436000D01*
X109434000Y-100436000D01*
X109434000Y-99316000D01*
G37*
X109454000Y-93421000D02*
X110654000Y-93421000D01*
X110654000Y-94371000D01*
X109454000Y-94371000D01*
X109454000Y-93421000D01*
G36*
X109454000Y-93421000D02*
G01*
X110654000Y-93421000D01*
X110654000Y-94371000D01*
X109454000Y-94371000D01*
X109454000Y-93421000D01*
G37*
X109464000Y-95281000D02*
X110664000Y-95281000D01*
X110664000Y-96231000D01*
X109464000Y-96231000D01*
X109464000Y-95281000D01*
G36*
X109464000Y-95281000D02*
G01*
X110664000Y-95281000D01*
X110664000Y-96231000D01*
X109464000Y-96231000D01*
X109464000Y-95281000D01*
G37*
X109474000Y-97111000D02*
X110674000Y-97111000D01*
X110674000Y-98061000D01*
X109474000Y-98061000D01*
X109474000Y-97111000D01*
G36*
X109474000Y-97111000D02*
G01*
X110674000Y-97111000D01*
X110674000Y-98061000D01*
X109474000Y-98061000D01*
X109474000Y-97111000D01*
G37*
%TO.C,U27*%
X75132258Y-149375000D02*
X76332258Y-149375000D01*
X76332258Y-150325000D01*
X75132258Y-150325000D01*
X75132258Y-149375000D01*
G36*
X75132258Y-149375000D02*
G01*
X76332258Y-149375000D01*
X76332258Y-150325000D01*
X75132258Y-150325000D01*
X75132258Y-149375000D01*
G37*
X75142258Y-151235000D02*
X76342258Y-151235000D01*
X76342258Y-152185000D01*
X75142258Y-152185000D01*
X75142258Y-151235000D01*
G36*
X75142258Y-151235000D02*
G01*
X76342258Y-151235000D01*
X76342258Y-152185000D01*
X75142258Y-152185000D01*
X75142258Y-151235000D01*
G37*
X75152258Y-153065000D02*
X76352258Y-153065000D01*
X76352258Y-154015000D01*
X75152258Y-154015000D01*
X75152258Y-153065000D01*
G36*
X75152258Y-153065000D02*
G01*
X76352258Y-153065000D01*
X76352258Y-154015000D01*
X75152258Y-154015000D01*
X75152258Y-153065000D01*
G37*
X75152258Y-155310000D02*
X76352258Y-155310000D01*
X76352258Y-156420000D01*
X75152258Y-156420000D01*
X75152258Y-155310000D01*
G36*
X75152258Y-155310000D02*
G01*
X76352258Y-155310000D01*
X76352258Y-156420000D01*
X75152258Y-156420000D01*
X75152258Y-155310000D01*
G37*
X77282258Y-149375000D02*
X78482258Y-149375000D01*
X78482258Y-150325000D01*
X77282258Y-150325000D01*
X77282258Y-149375000D01*
G36*
X77282258Y-149375000D02*
G01*
X78482258Y-149375000D01*
X78482258Y-150325000D01*
X77282258Y-150325000D01*
X77282258Y-149375000D01*
G37*
X77292258Y-151235000D02*
X78492258Y-151235000D01*
X78492258Y-152185000D01*
X77292258Y-152185000D01*
X77292258Y-151235000D01*
G36*
X77292258Y-151235000D02*
G01*
X78492258Y-151235000D01*
X78492258Y-152185000D01*
X77292258Y-152185000D01*
X77292258Y-151235000D01*
G37*
X77302258Y-153065000D02*
X78502258Y-153065000D01*
X78502258Y-154015000D01*
X77302258Y-154015000D01*
X77302258Y-153065000D01*
G36*
X77302258Y-153065000D02*
G01*
X78502258Y-153065000D01*
X78502258Y-154015000D01*
X77302258Y-154015000D01*
X77302258Y-153065000D01*
G37*
X77332258Y-155290000D02*
X78532258Y-155290000D01*
X78532258Y-156400000D01*
X77332258Y-156400000D01*
X77332258Y-155290000D01*
G36*
X77332258Y-155290000D02*
G01*
X78532258Y-155290000D01*
X78532258Y-156400000D01*
X77332258Y-156400000D01*
X77332258Y-155290000D01*
G37*
X79472258Y-155280000D02*
X80672258Y-155280000D01*
X80672258Y-156400000D01*
X79472258Y-156400000D01*
X79472258Y-155280000D01*
G36*
X79472258Y-155280000D02*
G01*
X80672258Y-155280000D01*
X80672258Y-156400000D01*
X79472258Y-156400000D01*
X79472258Y-155280000D01*
G37*
X79492258Y-149385000D02*
X80692258Y-149385000D01*
X80692258Y-150335000D01*
X79492258Y-150335000D01*
X79492258Y-149385000D01*
G36*
X79492258Y-149385000D02*
G01*
X80692258Y-149385000D01*
X80692258Y-150335000D01*
X79492258Y-150335000D01*
X79492258Y-149385000D01*
G37*
X79502258Y-151245000D02*
X80702258Y-151245000D01*
X80702258Y-152195000D01*
X79502258Y-152195000D01*
X79502258Y-151245000D01*
G36*
X79502258Y-151245000D02*
G01*
X80702258Y-151245000D01*
X80702258Y-152195000D01*
X79502258Y-152195000D01*
X79502258Y-151245000D01*
G37*
X79512258Y-153075000D02*
X80712258Y-153075000D01*
X80712258Y-154025000D01*
X79512258Y-154025000D01*
X79512258Y-153075000D01*
G36*
X79512258Y-153075000D02*
G01*
X80712258Y-153075000D01*
X80712258Y-154025000D01*
X79512258Y-154025000D01*
X79512258Y-153075000D01*
G37*
%TO.C,U22*%
X75132258Y-93418758D02*
X76332258Y-93418758D01*
X76332258Y-94368758D01*
X75132258Y-94368758D01*
X75132258Y-93418758D01*
G36*
X75132258Y-93418758D02*
G01*
X76332258Y-93418758D01*
X76332258Y-94368758D01*
X75132258Y-94368758D01*
X75132258Y-93418758D01*
G37*
X75142258Y-95278758D02*
X76342258Y-95278758D01*
X76342258Y-96228758D01*
X75142258Y-96228758D01*
X75142258Y-95278758D01*
G36*
X75142258Y-95278758D02*
G01*
X76342258Y-95278758D01*
X76342258Y-96228758D01*
X75142258Y-96228758D01*
X75142258Y-95278758D01*
G37*
X75152258Y-97108758D02*
X76352258Y-97108758D01*
X76352258Y-98058758D01*
X75152258Y-98058758D01*
X75152258Y-97108758D01*
G36*
X75152258Y-97108758D02*
G01*
X76352258Y-97108758D01*
X76352258Y-98058758D01*
X75152258Y-98058758D01*
X75152258Y-97108758D01*
G37*
X75152258Y-99353758D02*
X76352258Y-99353758D01*
X76352258Y-100463758D01*
X75152258Y-100463758D01*
X75152258Y-99353758D01*
G36*
X75152258Y-99353758D02*
G01*
X76352258Y-99353758D01*
X76352258Y-100463758D01*
X75152258Y-100463758D01*
X75152258Y-99353758D01*
G37*
X77282258Y-93418758D02*
X78482258Y-93418758D01*
X78482258Y-94368758D01*
X77282258Y-94368758D01*
X77282258Y-93418758D01*
G36*
X77282258Y-93418758D02*
G01*
X78482258Y-93418758D01*
X78482258Y-94368758D01*
X77282258Y-94368758D01*
X77282258Y-93418758D01*
G37*
X77292258Y-95278758D02*
X78492258Y-95278758D01*
X78492258Y-96228758D01*
X77292258Y-96228758D01*
X77292258Y-95278758D01*
G36*
X77292258Y-95278758D02*
G01*
X78492258Y-95278758D01*
X78492258Y-96228758D01*
X77292258Y-96228758D01*
X77292258Y-95278758D01*
G37*
X77302258Y-97108758D02*
X78502258Y-97108758D01*
X78502258Y-98058758D01*
X77302258Y-98058758D01*
X77302258Y-97108758D01*
G36*
X77302258Y-97108758D02*
G01*
X78502258Y-97108758D01*
X78502258Y-98058758D01*
X77302258Y-98058758D01*
X77302258Y-97108758D01*
G37*
X77332258Y-99333758D02*
X78532258Y-99333758D01*
X78532258Y-100443758D01*
X77332258Y-100443758D01*
X77332258Y-99333758D01*
G36*
X77332258Y-99333758D02*
G01*
X78532258Y-99333758D01*
X78532258Y-100443758D01*
X77332258Y-100443758D01*
X77332258Y-99333758D01*
G37*
X79472258Y-99323758D02*
X80672258Y-99323758D01*
X80672258Y-100443758D01*
X79472258Y-100443758D01*
X79472258Y-99323758D01*
G36*
X79472258Y-99323758D02*
G01*
X80672258Y-99323758D01*
X80672258Y-100443758D01*
X79472258Y-100443758D01*
X79472258Y-99323758D01*
G37*
X79492258Y-93428758D02*
X80692258Y-93428758D01*
X80692258Y-94378758D01*
X79492258Y-94378758D01*
X79492258Y-93428758D01*
G36*
X79492258Y-93428758D02*
G01*
X80692258Y-93428758D01*
X80692258Y-94378758D01*
X79492258Y-94378758D01*
X79492258Y-93428758D01*
G37*
X79502258Y-95288758D02*
X80702258Y-95288758D01*
X80702258Y-96238758D01*
X79502258Y-96238758D01*
X79502258Y-95288758D01*
G36*
X79502258Y-95288758D02*
G01*
X80702258Y-95288758D01*
X80702258Y-96238758D01*
X79502258Y-96238758D01*
X79502258Y-95288758D01*
G37*
X79512258Y-97118758D02*
X80712258Y-97118758D01*
X80712258Y-98068758D01*
X79512258Y-98068758D01*
X79512258Y-97118758D01*
G36*
X79512258Y-97118758D02*
G01*
X80712258Y-97118758D01*
X80712258Y-98068758D01*
X79512258Y-98068758D01*
X79512258Y-97118758D01*
G37*
%TD*%
D11*
%TO.C,R18*%
X88850000Y-54430000D03*
X88850000Y-53410000D03*
%TD*%
D12*
%TO.C,Y1*%
X101300000Y-56777600D03*
X101300000Y-59622400D03*
%TD*%
D13*
%TO.C,C23*%
X56475000Y-77300000D03*
X56475000Y-79200000D03*
%TD*%
D14*
%TO.C,R25*%
X88560000Y-67725000D03*
X87540000Y-67725000D03*
%TD*%
D15*
%TO.C,SW2*%
X81650000Y-46667500D03*
X77950000Y-46667500D03*
D16*
X81030000Y-48867500D03*
X78570000Y-48867500D03*
D17*
X79800000Y-48767500D03*
%TD*%
D18*
%TO.C,U18*%
X81848258Y-128724000D03*
X81848258Y-128222000D03*
X81848258Y-127720000D03*
X81848258Y-127218000D03*
X81848258Y-126716000D03*
X81848258Y-126214000D03*
X81848258Y-125712000D03*
X81848258Y-125210000D03*
X81848258Y-124708000D03*
X81848258Y-124206000D03*
X81848258Y-123704000D03*
X81848258Y-123202000D03*
X81848258Y-122700000D03*
X81848258Y-122198000D03*
X81848258Y-121696000D03*
X74016258Y-121696000D03*
X74016258Y-122198000D03*
X74016258Y-122700000D03*
X74016258Y-123202000D03*
X74016258Y-123704000D03*
X74016258Y-124206000D03*
X74016258Y-124708000D03*
X74016258Y-125210000D03*
X74016258Y-125712000D03*
X74016258Y-126214000D03*
X74016258Y-126716000D03*
X74016258Y-127218000D03*
X74016258Y-127720000D03*
X74016258Y-128222000D03*
X74016258Y-128724000D03*
%TD*%
D19*
%TO.C,L2*%
X71400000Y-76925000D03*
X71400000Y-70275000D03*
%TD*%
D20*
%TO.C,C13*%
X55500000Y-64225000D03*
X54540000Y-64225000D03*
%TD*%
D21*
%TO.C,C5*%
X53225000Y-79000000D03*
X54775000Y-79000000D03*
%TD*%
D20*
%TO.C,C36*%
X99380000Y-56800000D03*
X98420000Y-56800000D03*
%TD*%
D22*
%TO.C,C10*%
X68828000Y-63650000D03*
X74428000Y-63650000D03*
%TD*%
D23*
%TO.C,R8*%
X55545000Y-61990000D03*
X55545000Y-63010000D03*
%TD*%
D24*
%TO.C,C40*%
X88900000Y-173180000D03*
X88900000Y-172220000D03*
%TD*%
D25*
%TO.C,C27*%
X79500000Y-69850000D03*
X79500000Y-66900000D03*
%TD*%
D26*
%TO.C,C2*%
X61845000Y-68000000D03*
X62805000Y-68000000D03*
%TD*%
D18*
%TO.C,U25*%
X111810000Y-156448000D03*
X111810000Y-155946000D03*
X111810000Y-155444000D03*
X111810000Y-154942000D03*
X111810000Y-154440000D03*
X111810000Y-153938000D03*
X111810000Y-153436000D03*
X111810000Y-152934000D03*
X111810000Y-152432000D03*
X111810000Y-151930000D03*
X111810000Y-151428000D03*
X111810000Y-150926000D03*
X111810000Y-150424000D03*
X111810000Y-149922000D03*
X111810000Y-149420000D03*
X103978000Y-149420000D03*
X103978000Y-149922000D03*
X103978000Y-150424000D03*
X103978000Y-150926000D03*
X103978000Y-151428000D03*
X103978000Y-151930000D03*
X103978000Y-152432000D03*
X103978000Y-152934000D03*
X103978000Y-153436000D03*
X103978000Y-153938000D03*
X103978000Y-154440000D03*
X103978000Y-154942000D03*
X103978000Y-155444000D03*
X103978000Y-155946000D03*
X103978000Y-156448000D03*
%TD*%
D27*
%TO.C,U9*%
X95900000Y-67675000D03*
X95900000Y-67175000D03*
X95900000Y-66675000D03*
X95900000Y-66175000D03*
X95900000Y-65675000D03*
X91500000Y-65675000D03*
X91500000Y-66175000D03*
X91500000Y-66675000D03*
X91500000Y-67175000D03*
X91500000Y-67675000D03*
%TD*%
D20*
%TO.C,C37*%
X99380000Y-59600000D03*
X98420000Y-59600000D03*
%TD*%
D14*
%TO.C,R9*%
X55555000Y-65500000D03*
X54535000Y-65500000D03*
%TD*%
D18*
%TO.C,U13*%
X111810000Y-128724000D03*
X111810000Y-128222000D03*
X111810000Y-127720000D03*
X111810000Y-127218000D03*
X111810000Y-126716000D03*
X111810000Y-126214000D03*
X111810000Y-125712000D03*
X111810000Y-125210000D03*
X111810000Y-124708000D03*
X111810000Y-124206000D03*
X111810000Y-123704000D03*
X111810000Y-123202000D03*
X111810000Y-122700000D03*
X111810000Y-122198000D03*
X111810000Y-121696000D03*
X103978000Y-121696000D03*
X103978000Y-122198000D03*
X103978000Y-122700000D03*
X103978000Y-123202000D03*
X103978000Y-123704000D03*
X103978000Y-124206000D03*
X103978000Y-124708000D03*
X103978000Y-125210000D03*
X103978000Y-125712000D03*
X103978000Y-126214000D03*
X103978000Y-126716000D03*
X103978000Y-127218000D03*
X103978000Y-127720000D03*
X103978000Y-128222000D03*
X103978000Y-128724000D03*
%TD*%
D23*
%TO.C,R13*%
X56725000Y-63890000D03*
X56725000Y-64910000D03*
%TD*%
D28*
%TO.C,U3*%
X56300000Y-72650000D03*
X60500000Y-72650000D03*
D29*
X57700000Y-72600000D03*
X59100000Y-72600000D03*
X57700000Y-70900000D03*
X59100000Y-70900000D03*
D28*
X56300000Y-70850000D03*
X60500000Y-70850000D03*
D30*
X55650000Y-74250000D03*
X56150000Y-74250000D03*
X56650000Y-74250000D03*
X57150000Y-74250000D03*
X57650000Y-74250000D03*
X58150000Y-74250000D03*
X58650000Y-74250000D03*
X59150000Y-74250000D03*
X59650000Y-74250000D03*
X60150000Y-74250000D03*
X60650000Y-74250000D03*
X61150000Y-74250000D03*
D31*
X61900000Y-73500000D03*
X61900000Y-73000000D03*
X61900000Y-72500000D03*
X61900000Y-72000000D03*
X61900000Y-71500000D03*
X61900000Y-71000000D03*
X61900000Y-70500000D03*
X61900000Y-70000000D03*
D30*
X61150000Y-69250000D03*
X60650000Y-69250000D03*
X60150000Y-69250000D03*
X59650000Y-69250000D03*
X59150000Y-69250000D03*
X58650000Y-69250000D03*
X58150000Y-69250000D03*
X57650000Y-69250000D03*
X57150000Y-69250000D03*
X56650000Y-69250000D03*
X56150000Y-69250000D03*
X55650000Y-69250000D03*
D31*
X54900000Y-70000000D03*
X54900000Y-70500000D03*
X54900000Y-71000000D03*
X54900000Y-71500000D03*
X54900000Y-72000000D03*
X54900000Y-72500000D03*
X54900000Y-73000000D03*
X54900000Y-73500000D03*
%TD*%
D26*
%TO.C,C16*%
X61845000Y-66825000D03*
X62805000Y-66825000D03*
%TD*%
D18*
%TO.C,U12*%
X111810000Y-100490000D03*
X111810000Y-99988000D03*
X111810000Y-99486000D03*
X111810000Y-98984000D03*
X111810000Y-98482000D03*
X111810000Y-97980000D03*
X111810000Y-97478000D03*
X111810000Y-96976000D03*
X111810000Y-96474000D03*
X111810000Y-95972000D03*
X111810000Y-95470000D03*
X111810000Y-94968000D03*
X111810000Y-94466000D03*
X111810000Y-93964000D03*
X111810000Y-93462000D03*
X103978000Y-93462000D03*
X103978000Y-93964000D03*
X103978000Y-94466000D03*
X103978000Y-94968000D03*
X103978000Y-95470000D03*
X103978000Y-95972000D03*
X103978000Y-96474000D03*
X103978000Y-96976000D03*
X103978000Y-97478000D03*
X103978000Y-97980000D03*
X103978000Y-98482000D03*
X103978000Y-98984000D03*
X103978000Y-99486000D03*
X103978000Y-99988000D03*
X103978000Y-100490000D03*
%TD*%
D32*
%TO.C,U7*%
X83500100Y-54899999D03*
X83500100Y-54400000D03*
X83500100Y-53900001D03*
X81899900Y-53900001D03*
X81899900Y-54400000D03*
X81899900Y-54899999D03*
%TD*%
D13*
%TO.C,C22*%
X58575000Y-77300000D03*
X58575000Y-79200000D03*
%TD*%
D33*
%TO.C,U6*%
X104350000Y-47780000D03*
X104350000Y-49050000D03*
X104350000Y-50320000D03*
X104350000Y-51590000D03*
X104350000Y-52860000D03*
X104350000Y-54130000D03*
X104350000Y-55400000D03*
X104350000Y-56670000D03*
X104350000Y-57940000D03*
X104350000Y-59210000D03*
X104350000Y-60480000D03*
X104350000Y-61750000D03*
X104350000Y-63020000D03*
X104350000Y-64290000D03*
D34*
X106115000Y-65540000D03*
X107385000Y-65540000D03*
X108655000Y-65540000D03*
X109925000Y-65540000D03*
X111195000Y-65540000D03*
X112465000Y-65540000D03*
X113735000Y-65540000D03*
X115005000Y-65540000D03*
X116275000Y-65540000D03*
X117545000Y-65540000D03*
X118815000Y-65540000D03*
X120085000Y-65540000D03*
D33*
X121850000Y-64290000D03*
X121850000Y-63020000D03*
X121850000Y-61750000D03*
X121850000Y-60480000D03*
X121850000Y-59210000D03*
X121850000Y-57940000D03*
X121850000Y-56670000D03*
X121850000Y-55400000D03*
X121850000Y-54130000D03*
X121850000Y-52860000D03*
X121850000Y-51590000D03*
X121850000Y-50320000D03*
X121850000Y-49050000D03*
X121850000Y-47780000D03*
D35*
X110200000Y-54100000D03*
X110200000Y-55500000D03*
X110200000Y-56900000D03*
X111600000Y-54100000D03*
X111600000Y-55500000D03*
X111600000Y-56900000D03*
X113000000Y-54100000D03*
X113000000Y-55500000D03*
X113000000Y-56900000D03*
%TD*%
D36*
%TO.C,C9*%
X66125000Y-58300000D03*
X69075000Y-58300000D03*
%TD*%
D37*
%TO.C,C32*%
X90300000Y-53440000D03*
X90300000Y-54400000D03*
%TD*%
D38*
%TO.C,J7*%
X99870000Y-53420000D03*
X99070000Y-53420000D03*
D39*
X97920000Y-53375000D03*
X96920000Y-53375000D03*
X96420000Y-53375000D03*
X95420000Y-53375000D03*
D38*
X94270000Y-53420000D03*
X93470000Y-53420000D03*
X93470000Y-53420000D03*
X94270000Y-53420000D03*
D39*
X94920000Y-53375000D03*
X95920000Y-53375000D03*
X97420000Y-53375000D03*
X98420000Y-53375000D03*
D38*
X99070000Y-53420000D03*
X99870000Y-53420000D03*
D40*
X100990000Y-52800000D03*
D41*
X100990000Y-48620000D03*
D40*
X92350000Y-52800000D03*
D41*
X92350000Y-48620000D03*
%TD*%
D42*
%TO.C,R17*%
X103090000Y-67225000D03*
X104110000Y-67225000D03*
%TD*%
D43*
%TO.C,R14*%
X60387500Y-78750000D03*
X63312500Y-78750000D03*
%TD*%
D18*
%TO.C,U27*%
X81848258Y-156454000D03*
X81848258Y-155952000D03*
X81848258Y-155450000D03*
X81848258Y-154948000D03*
X81848258Y-154446000D03*
X81848258Y-153944000D03*
X81848258Y-153442000D03*
X81848258Y-152940000D03*
X81848258Y-152438000D03*
X81848258Y-151936000D03*
X81848258Y-151434000D03*
X81848258Y-150932000D03*
X81848258Y-150430000D03*
X81848258Y-149928000D03*
X81848258Y-149426000D03*
X74016258Y-149426000D03*
X74016258Y-149928000D03*
X74016258Y-150430000D03*
X74016258Y-150932000D03*
X74016258Y-151434000D03*
X74016258Y-151936000D03*
X74016258Y-152438000D03*
X74016258Y-152940000D03*
X74016258Y-153442000D03*
X74016258Y-153944000D03*
X74016258Y-154446000D03*
X74016258Y-154948000D03*
X74016258Y-155450000D03*
X74016258Y-155952000D03*
X74016258Y-156454000D03*
%TD*%
D15*
%TO.C,SW1*%
X89200000Y-46667500D03*
X85500000Y-46667500D03*
D16*
X88580000Y-48867500D03*
X86120000Y-48867500D03*
D17*
X87350000Y-48767500D03*
%TD*%
D44*
%TO.C,D1*%
X64145000Y-61210000D03*
X65370000Y-61210000D03*
%TD*%
D37*
%TO.C,C24*%
X53025000Y-69795000D03*
X53025000Y-70755000D03*
%TD*%
D18*
%TO.C,U22*%
X81848258Y-100497758D03*
X81848258Y-99995758D03*
X81848258Y-99493758D03*
X81848258Y-98991758D03*
X81848258Y-98489758D03*
X81848258Y-97987758D03*
X81848258Y-97485758D03*
X81848258Y-96983758D03*
X81848258Y-96481758D03*
X81848258Y-95979758D03*
X81848258Y-95477758D03*
X81848258Y-94975758D03*
X81848258Y-94473758D03*
X81848258Y-93971758D03*
X81848258Y-93469758D03*
X74016258Y-93469758D03*
X74016258Y-93971758D03*
X74016258Y-94473758D03*
X74016258Y-94975758D03*
X74016258Y-95477758D03*
X74016258Y-95979758D03*
X74016258Y-96481758D03*
X74016258Y-96983758D03*
X74016258Y-97485758D03*
X74016258Y-97987758D03*
X74016258Y-98489758D03*
X74016258Y-98991758D03*
X74016258Y-99493758D03*
X74016258Y-99995758D03*
X74016258Y-100497758D03*
%TD*%
D37*
%TO.C,C38*%
X95600000Y-69120000D03*
X95600000Y-70080000D03*
%TD*%
D45*
%TO.C,C14*%
X62125000Y-65275000D03*
X64025000Y-65275000D03*
%TD*%
D32*
%TO.C,U8*%
X92400900Y-173699999D03*
X92400900Y-173200000D03*
X92400900Y-172700001D03*
X90800700Y-172700001D03*
X90800700Y-173200000D03*
X90800700Y-173699999D03*
%TD*%
D14*
%TO.C,R24*%
X88535000Y-66125000D03*
X87515000Y-66125000D03*
%TD*%
M02*
