%TF.GenerationSoftware,KiCad,Pcbnew,8.0.1*%
%TF.CreationDate,2024-09-07T23:44:18+08:00*%
%TF.ProjectId,bitaxeHex,62697461-7865-4486-9578-2e6b69636164,302*%
%TF.SameCoordinates,Original*%
%TF.FileFunction,Soldermask,Top*%
%TF.FilePolarity,Negative*%
%FSLAX46Y46*%
G04 Gerber Fmt 4.6, Leading zero omitted, Abs format (unit mm)*
G04 Created by KiCad (PCBNEW 8.0.1) date 2024-09-07 23:44:18*
%MOMM*%
%LPD*%
G01*
G04 APERTURE LIST*
G04 Aperture macros list*
%AMRoundRect*
0 Rectangle with rounded corners*
0 $1 Rounding radius*
0 $2 $3 $4 $5 $6 $7 $8 $9 X,Y pos of 4 corners*
0 Add a 4 corners polygon primitive as box body*
4,1,4,$2,$3,$4,$5,$6,$7,$8,$9,$2,$3,0*
0 Add four circle primitives for the rounded corners*
1,1,$1+$1,$2,$3*
1,1,$1+$1,$4,$5*
1,1,$1+$1,$6,$7*
1,1,$1+$1,$8,$9*
0 Add four rect primitives between the rounded corners*
20,1,$1+$1,$2,$3,$4,$5,0*
20,1,$1+$1,$4,$5,$6,$7,0*
20,1,$1+$1,$6,$7,$8,$9,0*
20,1,$1+$1,$8,$9,$2,$3,0*%
G04 Aperture macros list end*
%ADD10C,0.200000*%
%ADD11C,0.100000*%
%ADD12C,0.120000*%
%ADD13R,0.625000X1.000000*%
%ADD14C,0.990600*%
%ADD15C,0.787400*%
%ADD16C,1.000000*%
%ADD17RoundRect,0.135000X0.185000X-0.135000X0.185000X0.135000X-0.185000X0.135000X-0.185000X-0.135000X0*%
%ADD18C,0.800000*%
%ADD19C,6.000000*%
%ADD20R,1.600200X1.168400*%
%ADD21C,2.520000*%
%ADD22C,1.295400*%
%ADD23C,1.574800*%
%ADD24C,5.000000*%
%ADD25RoundRect,0.250000X-0.475000X0.250000X-0.475000X-0.250000X0.475000X-0.250000X0.475000X0.250000X0*%
%ADD26RoundRect,0.135000X0.135000X0.185000X-0.135000X0.185000X-0.135000X-0.185000X0.135000X-0.185000X0*%
%ADD27RoundRect,0.200000X0.450000X0.200000X-0.450000X0.200000X-0.450000X-0.200000X0.450000X-0.200000X0*%
%ADD28O,0.740000X1.750000*%
%ADD29RoundRect,0.150000X0.150000X0.750000X-0.150000X0.750000X-0.150000X-0.750000X0.150000X-0.750000X0*%
%ADD30C,2.000000*%
%ADD31R,9.000000X2.380000*%
%ADD32RoundRect,0.140000X0.140000X0.170000X-0.140000X0.170000X-0.140000X-0.170000X0.140000X-0.170000X0*%
%ADD33RoundRect,0.225000X-0.225000X-0.250000X0.225000X-0.250000X0.225000X0.250000X-0.225000X0.250000X0*%
%ADD34RoundRect,0.250000X-1.500000X-0.550000X1.500000X-0.550000X1.500000X0.550000X-1.500000X0.550000X0*%
%ADD35R,1.700000X1.700000*%
%ADD36O,1.700000X1.700000*%
%ADD37RoundRect,0.055250X0.340750X0.055250X-0.340750X0.055250X-0.340750X-0.055250X0.340750X-0.055250X0*%
%ADD38RoundRect,0.135000X-0.185000X0.135000X-0.185000X-0.135000X0.185000X-0.135000X0.185000X0.135000X0*%
%ADD39RoundRect,0.140000X0.170000X-0.140000X0.170000X0.140000X-0.170000X0.140000X-0.170000X-0.140000X0*%
%ADD40RoundRect,0.250000X1.100000X-0.325000X1.100000X0.325000X-1.100000X0.325000X-1.100000X-0.325000X0*%
%ADD41RoundRect,0.140000X-0.140000X-0.170000X0.140000X-0.170000X0.140000X0.170000X-0.140000X0.170000X0*%
%ADD42R,1.400000X0.300000*%
%ADD43RoundRect,0.062500X0.062500X-0.337500X0.062500X0.337500X-0.062500X0.337500X-0.062500X-0.337500X0*%
%ADD44RoundRect,0.062500X0.337500X-0.062500X0.337500X0.062500X-0.337500X0.062500X-0.337500X-0.062500X0*%
%ADD45C,0.400000*%
%ADD46R,5.300000X3.300000*%
%ADD47R,0.711200X0.228600*%
%ADD48R,1.500000X0.900000*%
%ADD49R,0.900000X1.500000*%
%ADD50R,0.900000X0.900000*%
%ADD51RoundRect,0.250000X-0.325000X-1.100000X0.325000X-1.100000X0.325000X1.100000X-0.325000X1.100000X0*%
%ADD52RoundRect,0.140000X-0.170000X0.140000X-0.170000X-0.140000X0.170000X-0.140000X0.170000X0.140000X0*%
%ADD53C,0.650000*%
%ADD54R,0.600000X1.060000*%
%ADD55R,0.300000X1.150000*%
%ADD56O,1.000000X2.100000*%
%ADD57O,1.000000X1.800000*%
%ADD58RoundRect,0.135000X-0.135000X-0.185000X0.135000X-0.185000X0.135000X0.185000X-0.135000X0.185000X0*%
%ADD59RoundRect,0.250000X-0.312500X-0.625000X0.312500X-0.625000X0.312500X0.625000X-0.312500X0.625000X0*%
%ADD60RoundRect,0.250000X-0.250000X-0.475000X0.250000X-0.475000X0.250000X0.475000X-0.250000X0.475000X0*%
G04 APERTURE END LIST*
D10*
%TO.C,REF\u002A\u002A*%
X102730000Y-174200000D02*
X102030000Y-174200000D01*
X102030000Y-172300000D01*
X102730000Y-172300000D01*
X102730000Y-174200000D01*
G36*
X102730000Y-174200000D02*
G01*
X102030000Y-174200000D01*
X102030000Y-172300000D01*
X102730000Y-172300000D01*
X102730000Y-174200000D01*
G37*
X113330000Y-174200000D02*
X112630000Y-174200000D01*
X112630000Y-172300000D01*
X113330000Y-172300000D01*
X113330000Y-174200000D01*
G36*
X113330000Y-174200000D02*
G01*
X112630000Y-174200000D01*
X112630000Y-172300000D01*
X113330000Y-172300000D01*
X113330000Y-174200000D01*
G37*
X122138812Y-172518007D02*
X122108812Y-172718007D01*
X121928812Y-172668007D01*
X121788812Y-172288007D01*
X121788812Y-172278007D01*
X122138812Y-172518007D01*
G36*
X122138812Y-172518007D02*
G01*
X122108812Y-172718007D01*
X121928812Y-172668007D01*
X121788812Y-172288007D01*
X121788812Y-172278007D01*
X122138812Y-172518007D01*
G37*
D11*
X121899006Y-171710179D02*
X121984167Y-171755000D01*
X122026214Y-171985807D01*
X122032117Y-172219555D01*
X122055000Y-172427500D01*
X122070600Y-172445220D01*
X121330000Y-172410000D01*
X121330000Y-171700000D01*
X121899006Y-171710179D01*
G36*
X121899006Y-171710179D02*
G01*
X121984167Y-171755000D01*
X122026214Y-171985807D01*
X122032117Y-172219555D01*
X122055000Y-172427500D01*
X122070600Y-172445220D01*
X121330000Y-172410000D01*
X121330000Y-171700000D01*
X121899006Y-171710179D01*
G37*
D10*
X114430000Y-174103826D02*
X114426324Y-174617384D01*
X114413276Y-174790311D01*
X114386160Y-174841826D01*
X114351422Y-174872765D01*
X114307458Y-174887963D01*
X114218933Y-174896988D01*
X113830000Y-174900000D01*
X113828812Y-173998007D01*
X114430000Y-174103826D01*
G36*
X114430000Y-174103826D02*
G01*
X114426324Y-174617384D01*
X114413276Y-174790311D01*
X114386160Y-174841826D01*
X114351422Y-174872765D01*
X114307458Y-174887963D01*
X114218933Y-174896988D01*
X113830000Y-174900000D01*
X113828812Y-173998007D01*
X114430000Y-174103826D01*
G37*
X122069404Y-172941553D02*
X122037150Y-173052888D01*
X122024102Y-173168066D01*
X122029799Y-173288164D01*
X122053564Y-173406024D01*
X122089776Y-173500405D01*
X122198351Y-173633263D01*
X122003262Y-174004724D01*
X121921017Y-174123002D01*
X121841120Y-174163281D01*
X121736661Y-174190777D01*
X121621667Y-174200000D01*
X121330000Y-174200000D01*
X121330000Y-171700000D01*
X122069404Y-172941553D01*
G36*
X122069404Y-172941553D02*
G01*
X122037150Y-173052888D01*
X122024102Y-173168066D01*
X122029799Y-173288164D01*
X122053564Y-173406024D01*
X122089776Y-173500405D01*
X122198351Y-173633263D01*
X122003262Y-174004724D01*
X121921017Y-174123002D01*
X121841120Y-174163281D01*
X121736661Y-174190777D01*
X121621667Y-174200000D01*
X121330000Y-174200000D01*
X121330000Y-171700000D01*
X122069404Y-172941553D01*
G37*
X116930000Y-172600000D02*
X117830000Y-172600000D01*
X117836813Y-171866636D01*
X117846489Y-171808747D01*
X117911959Y-171725138D01*
X118069411Y-171702650D01*
X118530000Y-171700000D01*
X118530000Y-174200000D01*
X117830000Y-174200000D01*
X117830000Y-173200000D01*
X116930000Y-173200000D01*
X116930000Y-174200000D01*
X116130000Y-174200000D01*
X116130000Y-171700000D01*
X116930000Y-171700000D01*
X116930000Y-172600000D01*
G36*
X116930000Y-172600000D02*
G01*
X117830000Y-172600000D01*
X117836813Y-171866636D01*
X117846489Y-171808747D01*
X117911959Y-171725138D01*
X118069411Y-171702650D01*
X118530000Y-171700000D01*
X118530000Y-174200000D01*
X117830000Y-174200000D01*
X117830000Y-173200000D01*
X116930000Y-173200000D01*
X116930000Y-174200000D01*
X116130000Y-174200000D01*
X116130000Y-171700000D01*
X116930000Y-171700000D01*
X116930000Y-172600000D01*
G37*
X101730000Y-172000000D02*
X101726977Y-172088992D01*
X101717927Y-172177574D01*
X101702674Y-172221541D01*
X101671667Y-172256250D01*
X101625305Y-172281452D01*
X101573668Y-172292326D01*
X101451834Y-172296163D01*
X100930000Y-172300000D01*
X100930000Y-174200000D01*
X100230000Y-174200000D01*
X100230000Y-172300000D01*
X99830000Y-172300000D01*
X99540010Y-172283327D01*
X99488333Y-172256250D01*
X99442073Y-172177574D01*
X99430000Y-171700000D01*
X101730000Y-171700000D01*
X101730000Y-172000000D01*
G36*
X101730000Y-172000000D02*
G01*
X101726977Y-172088992D01*
X101717927Y-172177574D01*
X101702674Y-172221541D01*
X101671667Y-172256250D01*
X101625305Y-172281452D01*
X101573668Y-172292326D01*
X101451834Y-172296163D01*
X100930000Y-172300000D01*
X100930000Y-174200000D01*
X100230000Y-174200000D01*
X100230000Y-172300000D01*
X99830000Y-172300000D01*
X99540010Y-172283327D01*
X99488333Y-172256250D01*
X99442073Y-172177574D01*
X99430000Y-171700000D01*
X101730000Y-171700000D01*
X101730000Y-172000000D01*
G37*
X113071307Y-171702055D02*
X113162428Y-171708218D01*
X113213516Y-171718422D01*
X113261250Y-171739286D01*
X113312271Y-171799754D01*
X113330000Y-171900000D01*
X113325534Y-171950901D01*
X113312271Y-172000246D01*
X113261250Y-172060714D01*
X113213510Y-172081560D01*
X113162428Y-172091782D01*
X113071306Y-172097943D01*
X112888693Y-172097945D01*
X112797572Y-172091782D01*
X112746484Y-172081578D01*
X112698750Y-172060714D01*
X112647730Y-172000246D01*
X112630002Y-171900000D01*
X112647729Y-171799754D01*
X112667870Y-171764986D01*
X112746490Y-171718440D01*
X112888694Y-171702057D01*
X112980000Y-171700000D01*
X113071307Y-171702055D01*
G36*
X113071307Y-171702055D02*
G01*
X113162428Y-171708218D01*
X113213516Y-171718422D01*
X113261250Y-171739286D01*
X113312271Y-171799754D01*
X113330000Y-171900000D01*
X113325534Y-171950901D01*
X113312271Y-172000246D01*
X113261250Y-172060714D01*
X113213510Y-172081560D01*
X113162428Y-172091782D01*
X113071306Y-172097943D01*
X112888693Y-172097945D01*
X112797572Y-172091782D01*
X112746484Y-172081578D01*
X112698750Y-172060714D01*
X112647730Y-172000246D01*
X112630002Y-171900000D01*
X112647729Y-171799754D01*
X112667870Y-171764986D01*
X112746490Y-171718440D01*
X112888694Y-171702057D01*
X112980000Y-171700000D01*
X113071307Y-171702055D01*
G37*
X102471307Y-171702055D02*
X102562428Y-171708218D01*
X102613516Y-171718422D01*
X102661250Y-171739287D01*
X102712271Y-171799754D01*
X102730000Y-171900000D01*
X102712271Y-172000246D01*
X102692130Y-172035014D01*
X102661250Y-172060714D01*
X102613510Y-172081560D01*
X102562428Y-172091782D01*
X102471306Y-172097943D01*
X102288693Y-172097945D01*
X102197572Y-172091782D01*
X102146484Y-172081578D01*
X102098750Y-172060714D01*
X102067897Y-172034992D01*
X102047729Y-172000246D01*
X102034467Y-171950901D01*
X102030000Y-171900000D01*
X102034466Y-171849099D01*
X102047729Y-171799754D01*
X102098750Y-171739286D01*
X102146490Y-171718440D01*
X102288694Y-171702057D01*
X102380000Y-171700000D01*
X102471307Y-171702055D01*
G36*
X102471307Y-171702055D02*
G01*
X102562428Y-171708218D01*
X102613516Y-171718422D01*
X102661250Y-171739287D01*
X102712271Y-171799754D01*
X102730000Y-171900000D01*
X102712271Y-172000246D01*
X102692130Y-172035014D01*
X102661250Y-172060714D01*
X102613510Y-172081560D01*
X102562428Y-172091782D01*
X102471306Y-172097943D01*
X102288693Y-172097945D01*
X102197572Y-172091782D01*
X102146484Y-172081578D01*
X102098750Y-172060714D01*
X102067897Y-172034992D01*
X102047729Y-172000246D01*
X102034467Y-171950901D01*
X102030000Y-171900000D01*
X102034466Y-171849099D01*
X102047729Y-171799754D01*
X102098750Y-171739286D01*
X102146490Y-171718440D01*
X102288694Y-171702057D01*
X102380000Y-171700000D01*
X102471307Y-171702055D01*
G37*
X110789005Y-171702491D02*
X110897782Y-171709959D01*
X110983316Y-171753823D01*
X111022104Y-171848946D01*
X111030000Y-172103518D01*
X111032265Y-172221042D01*
X111041185Y-172384610D01*
X111060570Y-172426901D01*
X111114366Y-172447324D01*
X111170095Y-172428406D01*
X111223426Y-172403518D01*
X111340608Y-172351322D01*
X111464094Y-172316578D01*
X111584733Y-172302431D01*
X111706025Y-172308921D01*
X111815484Y-172334829D01*
X111918207Y-172380662D01*
X112004195Y-172442715D01*
X112074330Y-172522251D01*
X112144022Y-172664364D01*
X112192018Y-172867839D01*
X112210046Y-173000293D01*
X112225433Y-173302890D01*
X112230000Y-174200000D01*
X111539138Y-174200000D01*
X111518812Y-173688007D01*
X111498681Y-173340509D01*
X111487793Y-173156018D01*
X111476463Y-173058256D01*
X111426215Y-172916584D01*
X111280000Y-172850000D01*
X111173010Y-172881103D01*
X111108549Y-172963071D01*
X111073418Y-173135493D01*
X111050431Y-173525000D01*
X111020862Y-174200000D01*
X110330000Y-174200000D01*
X110330000Y-171700000D01*
X110789005Y-171702491D01*
G36*
X110789005Y-171702491D02*
G01*
X110897782Y-171709959D01*
X110983316Y-171753823D01*
X111022104Y-171848946D01*
X111030000Y-172103518D01*
X111032265Y-172221042D01*
X111041185Y-172384610D01*
X111060570Y-172426901D01*
X111114366Y-172447324D01*
X111170095Y-172428406D01*
X111223426Y-172403518D01*
X111340608Y-172351322D01*
X111464094Y-172316578D01*
X111584733Y-172302431D01*
X111706025Y-172308921D01*
X111815484Y-172334829D01*
X111918207Y-172380662D01*
X112004195Y-172442715D01*
X112074330Y-172522251D01*
X112144022Y-172664364D01*
X112192018Y-172867839D01*
X112210046Y-173000293D01*
X112225433Y-173302890D01*
X112230000Y-174200000D01*
X111539138Y-174200000D01*
X111518812Y-173688007D01*
X111498681Y-173340509D01*
X111487793Y-173156018D01*
X111476463Y-173058256D01*
X111426215Y-172916584D01*
X111280000Y-172850000D01*
X111173010Y-172881103D01*
X111108549Y-172963071D01*
X111073418Y-173135493D01*
X111050431Y-173525000D01*
X111020862Y-174200000D01*
X110330000Y-174200000D01*
X110330000Y-171700000D01*
X110789005Y-171702491D01*
G37*
X119421820Y-172303762D02*
X119513025Y-172315023D01*
X119591158Y-172370152D01*
X119624209Y-172490717D01*
X119630000Y-172841821D01*
X119641506Y-173216358D01*
X119693008Y-173519760D01*
X119730400Y-173591809D01*
X119786521Y-173650455D01*
X119854105Y-173687264D01*
X119930000Y-173700000D01*
X120005897Y-173687269D01*
X120129607Y-173591814D01*
X120166992Y-173519760D01*
X120200385Y-173397980D01*
X120216760Y-173272770D01*
X120230000Y-172841821D01*
X120230000Y-172300000D01*
X120930000Y-172300000D01*
X120930000Y-174200000D01*
X120512842Y-174198120D01*
X120332813Y-174169592D01*
X120236321Y-174119631D01*
X120201587Y-174047052D01*
X120125006Y-174054582D01*
X119928585Y-174144647D01*
X119694784Y-174193447D01*
X119573614Y-174193896D01*
X119461092Y-174178691D01*
X119263751Y-174104307D01*
X119187143Y-174042857D01*
X119112466Y-173925682D01*
X119064910Y-173744488D01*
X119047350Y-173613360D01*
X119037905Y-173481399D01*
X119030000Y-173092857D01*
X119030000Y-172300000D01*
X119330000Y-172300000D01*
X119421820Y-172303762D01*
G36*
X119421820Y-172303762D02*
G01*
X119513025Y-172315023D01*
X119591158Y-172370152D01*
X119624209Y-172490717D01*
X119630000Y-172841821D01*
X119641506Y-173216358D01*
X119693008Y-173519760D01*
X119730400Y-173591809D01*
X119786521Y-173650455D01*
X119854105Y-173687264D01*
X119930000Y-173700000D01*
X120005897Y-173687269D01*
X120129607Y-173591814D01*
X120166992Y-173519760D01*
X120200385Y-173397980D01*
X120216760Y-173272770D01*
X120230000Y-172841821D01*
X120230000Y-172300000D01*
X120930000Y-172300000D01*
X120930000Y-174200000D01*
X120512842Y-174198120D01*
X120332813Y-174169592D01*
X120236321Y-174119631D01*
X120201587Y-174047052D01*
X120125006Y-174054582D01*
X119928585Y-174144647D01*
X119694784Y-174193447D01*
X119573614Y-174193896D01*
X119461092Y-174178691D01*
X119263751Y-174104307D01*
X119187143Y-174042857D01*
X119112466Y-173925682D01*
X119064910Y-173744488D01*
X119047350Y-173613360D01*
X119037905Y-173481399D01*
X119030000Y-173092857D01*
X119030000Y-172300000D01*
X119330000Y-172300000D01*
X119421820Y-172303762D01*
G37*
X114244918Y-172307539D02*
X114408834Y-172363769D01*
X114443619Y-172441434D01*
X114646437Y-172858435D01*
X114523230Y-173012649D01*
X114470519Y-173219238D01*
X114464737Y-173244119D01*
X114480177Y-173337649D01*
X114510792Y-173452440D01*
X114557695Y-173549210D01*
X114623073Y-173634592D01*
X114691930Y-173682960D01*
X114774338Y-173700000D01*
X114930532Y-173639275D01*
X115045857Y-173473150D01*
X115078143Y-173364138D01*
X115088949Y-173250961D01*
X115042432Y-173037351D01*
X114928314Y-172871445D01*
X114788902Y-172809120D01*
X114646437Y-172858435D01*
X114623426Y-172403518D01*
X114966479Y-172305641D01*
X115193495Y-172335195D01*
X115299912Y-172378175D01*
X115498555Y-172517431D01*
X115614148Y-172652660D01*
X115654329Y-172722254D01*
X115719857Y-172948129D01*
X115726982Y-173183634D01*
X115724663Y-173413745D01*
X115680085Y-173720536D01*
X115622041Y-173876423D01*
X115523485Y-174010425D01*
X115399191Y-174103140D01*
X115252357Y-174152996D01*
X115053959Y-174171832D01*
X114748812Y-174158007D01*
X114430000Y-174103826D01*
X113828812Y-173998007D01*
X113830000Y-172300000D01*
X114244918Y-172307539D01*
G36*
X114244918Y-172307539D02*
G01*
X114408834Y-172363769D01*
X114443619Y-172441434D01*
X114646437Y-172858435D01*
X114523230Y-173012649D01*
X114470519Y-173219238D01*
X114464737Y-173244119D01*
X114480177Y-173337649D01*
X114510792Y-173452440D01*
X114557695Y-173549210D01*
X114623073Y-173634592D01*
X114691930Y-173682960D01*
X114774338Y-173700000D01*
X114930532Y-173639275D01*
X115045857Y-173473150D01*
X115078143Y-173364138D01*
X115088949Y-173250961D01*
X115042432Y-173037351D01*
X114928314Y-172871445D01*
X114788902Y-172809120D01*
X114646437Y-172858435D01*
X114623426Y-172403518D01*
X114966479Y-172305641D01*
X115193495Y-172335195D01*
X115299912Y-172378175D01*
X115498555Y-172517431D01*
X115614148Y-172652660D01*
X115654329Y-172722254D01*
X115719857Y-172948129D01*
X115726982Y-173183634D01*
X115724663Y-173413745D01*
X115680085Y-173720536D01*
X115622041Y-173876423D01*
X115523485Y-174010425D01*
X115399191Y-174103140D01*
X115252357Y-174152996D01*
X115053959Y-174171832D01*
X114748812Y-174158007D01*
X114430000Y-174103826D01*
X113828812Y-173998007D01*
X113830000Y-172300000D01*
X114244918Y-172307539D01*
G37*
X122723687Y-172323951D02*
X122922859Y-172396178D01*
X123075124Y-172513744D01*
X123180676Y-172674565D01*
X123228812Y-172768007D01*
X123278812Y-173018007D01*
X123293589Y-173138244D01*
X123288361Y-173388516D01*
X123241405Y-173634400D01*
X123156845Y-173833980D01*
X123024422Y-174005578D01*
X122932985Y-174079960D01*
X122702790Y-174173102D01*
X122572888Y-174193054D01*
X122321512Y-174173910D01*
X122222956Y-174136637D01*
X122102922Y-174044060D01*
X122355791Y-173638239D01*
X122436207Y-173603788D01*
X122505351Y-173548901D01*
X122557868Y-173477940D01*
X122613272Y-173288365D01*
X122611663Y-173176131D01*
X122592820Y-173065478D01*
X122557044Y-172973694D01*
X122499507Y-172893731D01*
X122426550Y-172835431D01*
X122339807Y-172800826D01*
X122177470Y-172820793D01*
X122070600Y-172445220D01*
X122093867Y-172449169D01*
X122150000Y-172420000D01*
X122215212Y-172369464D01*
X122290974Y-172336807D01*
X122497853Y-172304303D01*
X122723687Y-172323951D01*
G36*
X122723687Y-172323951D02*
G01*
X122922859Y-172396178D01*
X123075124Y-172513744D01*
X123180676Y-172674565D01*
X123228812Y-172768007D01*
X123278812Y-173018007D01*
X123293589Y-173138244D01*
X123288361Y-173388516D01*
X123241405Y-173634400D01*
X123156845Y-173833980D01*
X123024422Y-174005578D01*
X122932985Y-174079960D01*
X122702790Y-174173102D01*
X122572888Y-174193054D01*
X122321512Y-174173910D01*
X122222956Y-174136637D01*
X122102922Y-174044060D01*
X122355791Y-173638239D01*
X122436207Y-173603788D01*
X122505351Y-173548901D01*
X122557868Y-173477940D01*
X122613272Y-173288365D01*
X122611663Y-173176131D01*
X122592820Y-173065478D01*
X122557044Y-172973694D01*
X122499507Y-172893731D01*
X122426550Y-172835431D01*
X122339807Y-172800826D01*
X122177470Y-172820793D01*
X122070600Y-172445220D01*
X122093867Y-172449169D01*
X122150000Y-172420000D01*
X122215212Y-172369464D01*
X122290974Y-172336807D01*
X122497853Y-172304303D01*
X122723687Y-172323951D01*
G37*
X121899006Y-171710179D02*
X121984167Y-171755000D01*
X122022427Y-171851614D01*
X122026214Y-171985807D01*
X122032117Y-172219555D01*
X122039416Y-172374301D01*
X122055000Y-172427500D01*
X122070600Y-172445220D01*
X121330000Y-171700000D01*
X121899006Y-171710179D01*
G36*
X121899006Y-171710179D02*
G01*
X121984167Y-171755000D01*
X122022427Y-171851614D01*
X122026214Y-171985807D01*
X122032117Y-172219555D01*
X122039416Y-172374301D01*
X122055000Y-172427500D01*
X122070600Y-172445220D01*
X121330000Y-171700000D01*
X121899006Y-171710179D01*
G37*
X103595162Y-172302220D02*
X103660021Y-172308870D01*
X103753400Y-172337112D01*
X103824703Y-172412695D01*
X103843797Y-172512075D01*
X103880968Y-172535047D01*
X103918428Y-172528952D01*
X104032189Y-172472404D01*
X104110597Y-172429657D01*
X104387671Y-172329027D01*
X104525849Y-172319228D01*
X104663038Y-172338420D01*
X104783460Y-172383739D01*
X104890224Y-172455549D01*
X104974667Y-172548433D01*
X105033537Y-172659303D01*
X105070868Y-172798681D01*
X105112287Y-173159529D01*
X105122911Y-173291542D01*
X105130000Y-173556510D01*
X105130000Y-174200000D01*
X104430000Y-174200000D01*
X104428812Y-173638007D01*
X104426977Y-173408884D01*
X104423955Y-173270906D01*
X104417123Y-173144578D01*
X104396699Y-173019725D01*
X104377634Y-172956903D01*
X104348989Y-172897830D01*
X104316602Y-172859262D01*
X104273278Y-172833583D01*
X104191088Y-172818040D01*
X104108669Y-172832289D01*
X104036364Y-172874584D01*
X103983397Y-172939479D01*
X103930322Y-173058306D01*
X103898313Y-173184449D01*
X103861961Y-173456390D01*
X103816666Y-173971758D01*
X103773043Y-174119007D01*
X103738192Y-174159067D01*
X103689930Y-174181203D01*
X103604468Y-174195286D01*
X103517981Y-174200000D01*
X103230000Y-174200000D01*
X103230000Y-172300000D01*
X103530000Y-172300000D01*
X103595162Y-172302220D01*
G36*
X103595162Y-172302220D02*
G01*
X103660021Y-172308870D01*
X103753400Y-172337112D01*
X103824703Y-172412695D01*
X103843797Y-172512075D01*
X103880968Y-172535047D01*
X103918428Y-172528952D01*
X104032189Y-172472404D01*
X104110597Y-172429657D01*
X104387671Y-172329027D01*
X104525849Y-172319228D01*
X104663038Y-172338420D01*
X104783460Y-172383739D01*
X104890224Y-172455549D01*
X104974667Y-172548433D01*
X105033537Y-172659303D01*
X105070868Y-172798681D01*
X105112287Y-173159529D01*
X105122911Y-173291542D01*
X105130000Y-173556510D01*
X105130000Y-174200000D01*
X104430000Y-174200000D01*
X104428812Y-173638007D01*
X104426977Y-173408884D01*
X104423955Y-173270906D01*
X104417123Y-173144578D01*
X104396699Y-173019725D01*
X104377634Y-172956903D01*
X104348989Y-172897830D01*
X104316602Y-172859262D01*
X104273278Y-172833583D01*
X104191088Y-172818040D01*
X104108669Y-172832289D01*
X104036364Y-172874584D01*
X103983397Y-172939479D01*
X103930322Y-173058306D01*
X103898313Y-173184449D01*
X103861961Y-173456390D01*
X103816666Y-173971758D01*
X103773043Y-174119007D01*
X103738192Y-174159067D01*
X103689930Y-174181203D01*
X103604468Y-174195286D01*
X103517981Y-174200000D01*
X103230000Y-174200000D01*
X103230000Y-172300000D01*
X103530000Y-172300000D01*
X103595162Y-172302220D01*
G37*
X108989238Y-171712538D02*
X109243770Y-171758653D01*
X109464956Y-171832732D01*
X109672550Y-171939108D01*
X109801433Y-172053858D01*
X109882044Y-172206439D01*
X109904610Y-172284462D01*
X109922513Y-172399547D01*
X109876305Y-172459356D01*
X109742694Y-172501832D01*
X109570689Y-172544331D01*
X109440588Y-172552656D01*
X109299918Y-172509680D01*
X109229198Y-172449033D01*
X109115815Y-172356181D01*
X108975921Y-172312521D01*
X108818124Y-172319467D01*
X108669945Y-172374176D01*
X108529518Y-172478810D01*
X108421275Y-172616473D01*
X108353231Y-172777105D01*
X108330000Y-172950000D01*
X108355317Y-173133938D01*
X108429401Y-173304191D01*
X108545351Y-173443569D01*
X108696643Y-173543472D01*
X108850309Y-173583565D01*
X109008190Y-173566466D01*
X109142863Y-173494849D01*
X109239193Y-173376585D01*
X109307497Y-173247785D01*
X109364644Y-173143557D01*
X109401209Y-173108529D01*
X109429948Y-173109422D01*
X109998137Y-173318563D01*
X110028604Y-173379177D01*
X109963846Y-173529578D01*
X109893592Y-173673191D01*
X109741771Y-173888044D01*
X109529377Y-174043286D01*
X109256168Y-174148167D01*
X108967339Y-174195293D01*
X108663311Y-174183644D01*
X108367322Y-174113228D01*
X108118223Y-173990186D01*
X107908244Y-173808254D01*
X107747124Y-173573337D01*
X107650704Y-173305287D01*
X107613899Y-172996345D01*
X107638388Y-172686183D01*
X107721774Y-172396128D01*
X107862451Y-172129119D01*
X108040635Y-171932887D01*
X108268812Y-171798007D01*
X108495491Y-171729187D01*
X108730789Y-171701729D01*
X108989238Y-171712538D01*
G36*
X108989238Y-171712538D02*
G01*
X109243770Y-171758653D01*
X109464956Y-171832732D01*
X109672550Y-171939108D01*
X109801433Y-172053858D01*
X109882044Y-172206439D01*
X109904610Y-172284462D01*
X109922513Y-172399547D01*
X109876305Y-172459356D01*
X109742694Y-172501832D01*
X109570689Y-172544331D01*
X109440588Y-172552656D01*
X109299918Y-172509680D01*
X109229198Y-172449033D01*
X109115815Y-172356181D01*
X108975921Y-172312521D01*
X108818124Y-172319467D01*
X108669945Y-172374176D01*
X108529518Y-172478810D01*
X108421275Y-172616473D01*
X108353231Y-172777105D01*
X108330000Y-172950000D01*
X108355317Y-173133938D01*
X108429401Y-173304191D01*
X108545351Y-173443569D01*
X108696643Y-173543472D01*
X108850309Y-173583565D01*
X109008190Y-173566466D01*
X109142863Y-173494849D01*
X109239193Y-173376585D01*
X109307497Y-173247785D01*
X109364644Y-173143557D01*
X109401209Y-173108529D01*
X109429948Y-173109422D01*
X109998137Y-173318563D01*
X110028604Y-173379177D01*
X109963846Y-173529578D01*
X109893592Y-173673191D01*
X109741771Y-173888044D01*
X109529377Y-174043286D01*
X109256168Y-174148167D01*
X108967339Y-174195293D01*
X108663311Y-174183644D01*
X108367322Y-174113228D01*
X108118223Y-173990186D01*
X107908244Y-173808254D01*
X107747124Y-173573337D01*
X107650704Y-173305287D01*
X107613899Y-172996345D01*
X107638388Y-172686183D01*
X107721774Y-172396128D01*
X107862451Y-172129119D01*
X108040635Y-171932887D01*
X108268812Y-171798007D01*
X108495491Y-171729187D01*
X108730789Y-171701729D01*
X108989238Y-171712538D01*
G37*
X107206941Y-172308548D02*
X107317402Y-172333991D01*
X107368932Y-172372449D01*
X107384878Y-172434734D01*
X107366857Y-172550873D01*
X107333829Y-172663666D01*
X106709899Y-174292748D01*
X106608740Y-174503348D01*
X106471388Y-174692346D01*
X106361055Y-174786641D01*
X106228381Y-174845481D01*
X106058075Y-174877542D01*
X105791978Y-174869005D01*
X105699164Y-174858272D01*
X105622756Y-174843842D01*
X105551563Y-174812568D01*
X105484156Y-174740716D01*
X105448045Y-174625000D01*
X105442714Y-174567031D01*
X105443131Y-174508820D01*
X105472624Y-174443555D01*
X105504406Y-174420915D01*
X105608772Y-174402355D01*
X105779577Y-174389829D01*
X105828275Y-174377377D01*
X105913969Y-174339859D01*
X105972989Y-174291803D01*
X105998779Y-174217102D01*
X105994309Y-174170510D01*
X105957938Y-174038666D01*
X105869896Y-173749107D01*
X105818226Y-173591391D01*
X105751996Y-173417406D01*
X105330000Y-172324531D01*
X105333564Y-172315360D01*
X105437907Y-172307796D01*
X105556486Y-172309693D01*
X105638753Y-172315107D01*
X105779600Y-172328088D01*
X105980973Y-172378216D01*
X106033206Y-172420082D01*
X106079557Y-172482450D01*
X106111775Y-172553161D01*
X106210150Y-172875000D01*
X106271056Y-173076221D01*
X106333823Y-173245781D01*
X106391744Y-173376262D01*
X106405688Y-173393508D01*
X106426894Y-173400000D01*
X106446888Y-173393932D01*
X106460113Y-173377752D01*
X106513392Y-173238437D01*
X106541162Y-173149627D01*
X106662544Y-172681980D01*
X106703830Y-172513961D01*
X106730481Y-172439203D01*
X106774460Y-172373137D01*
X106821455Y-172334968D01*
X106878842Y-172315677D01*
X106986091Y-172303924D01*
X107093910Y-172300000D01*
X107206941Y-172308548D01*
G36*
X107206941Y-172308548D02*
G01*
X107317402Y-172333991D01*
X107368932Y-172372449D01*
X107384878Y-172434734D01*
X107366857Y-172550873D01*
X107333829Y-172663666D01*
X106709899Y-174292748D01*
X106608740Y-174503348D01*
X106471388Y-174692346D01*
X106361055Y-174786641D01*
X106228381Y-174845481D01*
X106058075Y-174877542D01*
X105791978Y-174869005D01*
X105699164Y-174858272D01*
X105622756Y-174843842D01*
X105551563Y-174812568D01*
X105484156Y-174740716D01*
X105448045Y-174625000D01*
X105442714Y-174567031D01*
X105443131Y-174508820D01*
X105472624Y-174443555D01*
X105504406Y-174420915D01*
X105608772Y-174402355D01*
X105779577Y-174389829D01*
X105828275Y-174377377D01*
X105913969Y-174339859D01*
X105972989Y-174291803D01*
X105998779Y-174217102D01*
X105994309Y-174170510D01*
X105957938Y-174038666D01*
X105869896Y-173749107D01*
X105818226Y-173591391D01*
X105751996Y-173417406D01*
X105330000Y-172324531D01*
X105333564Y-172315360D01*
X105437907Y-172307796D01*
X105556486Y-172309693D01*
X105638753Y-172315107D01*
X105779600Y-172328088D01*
X105980973Y-172378216D01*
X106033206Y-172420082D01*
X106079557Y-172482450D01*
X106111775Y-172553161D01*
X106210150Y-172875000D01*
X106271056Y-173076221D01*
X106333823Y-173245781D01*
X106391744Y-173376262D01*
X106405688Y-173393508D01*
X106426894Y-173400000D01*
X106446888Y-173393932D01*
X106460113Y-173377752D01*
X106513392Y-173238437D01*
X106541162Y-173149627D01*
X106662544Y-172681980D01*
X106703830Y-172513961D01*
X106730481Y-172439203D01*
X106774460Y-172373137D01*
X106821455Y-172334968D01*
X106878842Y-172315677D01*
X106986091Y-172303924D01*
X107093910Y-172300000D01*
X107206941Y-172308548D01*
G37*
%TO.C,U12*%
D12*
X75888000Y-95966000D02*
X77688000Y-95966000D01*
X77688000Y-98326000D01*
X75888000Y-98326000D01*
X75888000Y-95966000D01*
G36*
X75888000Y-95966000D02*
G01*
X77688000Y-95966000D01*
X77688000Y-98326000D01*
X75888000Y-98326000D01*
X75888000Y-95966000D01*
G37*
X75908000Y-93156000D02*
X77708000Y-93156000D01*
X77708000Y-95516000D01*
X75908000Y-95516000D01*
X75908000Y-93156000D01*
G36*
X75908000Y-93156000D02*
G01*
X77708000Y-93156000D01*
X77708000Y-95516000D01*
X75908000Y-95516000D01*
X75908000Y-93156000D01*
G37*
X75908000Y-98916000D02*
X77688000Y-98916000D01*
X77688000Y-100786000D01*
X75908000Y-100786000D01*
X75908000Y-98916000D01*
G36*
X75908000Y-98916000D02*
G01*
X77688000Y-98916000D01*
X77688000Y-100786000D01*
X75908000Y-100786000D01*
X75908000Y-98916000D01*
G37*
X78258000Y-93156000D02*
X80058000Y-93156000D01*
X80058000Y-95516000D01*
X78258000Y-95516000D01*
X78258000Y-93156000D01*
G36*
X78258000Y-93156000D02*
G01*
X80058000Y-93156000D01*
X80058000Y-95516000D01*
X78258000Y-95516000D01*
X78258000Y-93156000D01*
G37*
X78258000Y-95976000D02*
X80058000Y-95976000D01*
X80058000Y-98336000D01*
X78258000Y-98336000D01*
X78258000Y-95976000D01*
G36*
X78258000Y-95976000D02*
G01*
X80058000Y-95976000D01*
X80058000Y-98336000D01*
X78258000Y-98336000D01*
X78258000Y-95976000D01*
G37*
X78278000Y-98906000D02*
X80058000Y-98906000D01*
X80058000Y-100786000D01*
X78278000Y-100786000D01*
X78278000Y-98906000D01*
G36*
X78278000Y-98906000D02*
G01*
X80058000Y-98906000D01*
X80058000Y-100786000D01*
X78278000Y-100786000D01*
X78278000Y-98906000D01*
G37*
%TO.C,U18*%
X105992000Y-124190000D02*
X107792000Y-124190000D01*
X107792000Y-126550000D01*
X105992000Y-126550000D01*
X105992000Y-124190000D01*
G36*
X105992000Y-124190000D02*
G01*
X107792000Y-124190000D01*
X107792000Y-126550000D01*
X105992000Y-126550000D01*
X105992000Y-124190000D01*
G37*
X106012000Y-121380000D02*
X107812000Y-121380000D01*
X107812000Y-123740000D01*
X106012000Y-123740000D01*
X106012000Y-121380000D01*
G36*
X106012000Y-121380000D02*
G01*
X107812000Y-121380000D01*
X107812000Y-123740000D01*
X106012000Y-123740000D01*
X106012000Y-121380000D01*
G37*
X106012000Y-127140000D02*
X107792000Y-127140000D01*
X107792000Y-129010000D01*
X106012000Y-129010000D01*
X106012000Y-127140000D01*
G36*
X106012000Y-127140000D02*
G01*
X107792000Y-127140000D01*
X107792000Y-129010000D01*
X106012000Y-129010000D01*
X106012000Y-127140000D01*
G37*
X108362000Y-121380000D02*
X110162000Y-121380000D01*
X110162000Y-123740000D01*
X108362000Y-123740000D01*
X108362000Y-121380000D01*
G36*
X108362000Y-121380000D02*
G01*
X110162000Y-121380000D01*
X110162000Y-123740000D01*
X108362000Y-123740000D01*
X108362000Y-121380000D01*
G37*
X108362000Y-124200000D02*
X110162000Y-124200000D01*
X110162000Y-126560000D01*
X108362000Y-126560000D01*
X108362000Y-124200000D01*
G36*
X108362000Y-124200000D02*
G01*
X110162000Y-124200000D01*
X110162000Y-126560000D01*
X108362000Y-126560000D01*
X108362000Y-124200000D01*
G37*
X108382000Y-127130000D02*
X110162000Y-127130000D01*
X110162000Y-129010000D01*
X108382000Y-129010000D01*
X108382000Y-127130000D01*
G36*
X108382000Y-127130000D02*
G01*
X110162000Y-127130000D01*
X110162000Y-129010000D01*
X108382000Y-129010000D01*
X108382000Y-127130000D01*
G37*
%TO.C,U28*%
X105992000Y-95966000D02*
X107792000Y-95966000D01*
X107792000Y-98326000D01*
X105992000Y-98326000D01*
X105992000Y-95966000D01*
G36*
X105992000Y-95966000D02*
G01*
X107792000Y-95966000D01*
X107792000Y-98326000D01*
X105992000Y-98326000D01*
X105992000Y-95966000D01*
G37*
X106012000Y-93156000D02*
X107812000Y-93156000D01*
X107812000Y-95516000D01*
X106012000Y-95516000D01*
X106012000Y-93156000D01*
G36*
X106012000Y-93156000D02*
G01*
X107812000Y-93156000D01*
X107812000Y-95516000D01*
X106012000Y-95516000D01*
X106012000Y-93156000D01*
G37*
X106012000Y-98916000D02*
X107792000Y-98916000D01*
X107792000Y-100786000D01*
X106012000Y-100786000D01*
X106012000Y-98916000D01*
G36*
X106012000Y-98916000D02*
G01*
X107792000Y-98916000D01*
X107792000Y-100786000D01*
X106012000Y-100786000D01*
X106012000Y-98916000D01*
G37*
X108362000Y-93156000D02*
X110162000Y-93156000D01*
X110162000Y-95516000D01*
X108362000Y-95516000D01*
X108362000Y-93156000D01*
G36*
X108362000Y-93156000D02*
G01*
X110162000Y-93156000D01*
X110162000Y-95516000D01*
X108362000Y-95516000D01*
X108362000Y-93156000D01*
G37*
X108362000Y-95976000D02*
X110162000Y-95976000D01*
X110162000Y-98336000D01*
X108362000Y-98336000D01*
X108362000Y-95976000D01*
G36*
X108362000Y-95976000D02*
G01*
X110162000Y-95976000D01*
X110162000Y-98336000D01*
X108362000Y-98336000D01*
X108362000Y-95976000D01*
G37*
X108382000Y-98906000D02*
X110162000Y-98906000D01*
X110162000Y-100786000D01*
X108382000Y-100786000D01*
X108382000Y-98906000D01*
G36*
X108382000Y-98906000D02*
G01*
X110162000Y-98906000D01*
X110162000Y-100786000D01*
X108382000Y-100786000D01*
X108382000Y-98906000D01*
G37*
%TO.C,U25*%
X105992000Y-151920000D02*
X107792000Y-151920000D01*
X107792000Y-154280000D01*
X105992000Y-154280000D01*
X105992000Y-151920000D01*
G36*
X105992000Y-151920000D02*
G01*
X107792000Y-151920000D01*
X107792000Y-154280000D01*
X105992000Y-154280000D01*
X105992000Y-151920000D01*
G37*
X106012000Y-149110000D02*
X107812000Y-149110000D01*
X107812000Y-151470000D01*
X106012000Y-151470000D01*
X106012000Y-149110000D01*
G36*
X106012000Y-149110000D02*
G01*
X107812000Y-149110000D01*
X107812000Y-151470000D01*
X106012000Y-151470000D01*
X106012000Y-149110000D01*
G37*
X106012000Y-154870000D02*
X107792000Y-154870000D01*
X107792000Y-156740000D01*
X106012000Y-156740000D01*
X106012000Y-154870000D01*
G36*
X106012000Y-154870000D02*
G01*
X107792000Y-154870000D01*
X107792000Y-156740000D01*
X106012000Y-156740000D01*
X106012000Y-154870000D01*
G37*
X108362000Y-149110000D02*
X110162000Y-149110000D01*
X110162000Y-151470000D01*
X108362000Y-151470000D01*
X108362000Y-149110000D01*
G36*
X108362000Y-149110000D02*
G01*
X110162000Y-149110000D01*
X110162000Y-151470000D01*
X108362000Y-151470000D01*
X108362000Y-149110000D01*
G37*
X108362000Y-151930000D02*
X110162000Y-151930000D01*
X110162000Y-154290000D01*
X108362000Y-154290000D01*
X108362000Y-151930000D01*
G36*
X108362000Y-151930000D02*
G01*
X110162000Y-151930000D01*
X110162000Y-154290000D01*
X108362000Y-154290000D01*
X108362000Y-151930000D01*
G37*
X108382000Y-154860000D02*
X110162000Y-154860000D01*
X110162000Y-156740000D01*
X108382000Y-156740000D01*
X108382000Y-154860000D01*
G36*
X108382000Y-154860000D02*
G01*
X110162000Y-154860000D01*
X110162000Y-156740000D01*
X108382000Y-156740000D01*
X108382000Y-154860000D01*
G37*
%TO.C,U13*%
X75888000Y-124190000D02*
X77688000Y-124190000D01*
X77688000Y-126550000D01*
X75888000Y-126550000D01*
X75888000Y-124190000D01*
G36*
X75888000Y-124190000D02*
G01*
X77688000Y-124190000D01*
X77688000Y-126550000D01*
X75888000Y-126550000D01*
X75888000Y-124190000D01*
G37*
X75908000Y-121380000D02*
X77708000Y-121380000D01*
X77708000Y-123740000D01*
X75908000Y-123740000D01*
X75908000Y-121380000D01*
G36*
X75908000Y-121380000D02*
G01*
X77708000Y-121380000D01*
X77708000Y-123740000D01*
X75908000Y-123740000D01*
X75908000Y-121380000D01*
G37*
X75908000Y-127140000D02*
X77688000Y-127140000D01*
X77688000Y-129010000D01*
X75908000Y-129010000D01*
X75908000Y-127140000D01*
G36*
X75908000Y-127140000D02*
G01*
X77688000Y-127140000D01*
X77688000Y-129010000D01*
X75908000Y-129010000D01*
X75908000Y-127140000D01*
G37*
X78258000Y-121380000D02*
X80058000Y-121380000D01*
X80058000Y-123740000D01*
X78258000Y-123740000D01*
X78258000Y-121380000D01*
G36*
X78258000Y-121380000D02*
G01*
X80058000Y-121380000D01*
X80058000Y-123740000D01*
X78258000Y-123740000D01*
X78258000Y-121380000D01*
G37*
X78258000Y-124200000D02*
X80058000Y-124200000D01*
X80058000Y-126560000D01*
X78258000Y-126560000D01*
X78258000Y-124200000D01*
G36*
X78258000Y-124200000D02*
G01*
X80058000Y-124200000D01*
X80058000Y-126560000D01*
X78258000Y-126560000D01*
X78258000Y-124200000D01*
G37*
X78278000Y-127130000D02*
X80058000Y-127130000D01*
X80058000Y-129010000D01*
X78278000Y-129010000D01*
X78278000Y-127130000D01*
G36*
X78278000Y-127130000D02*
G01*
X80058000Y-127130000D01*
X80058000Y-129010000D01*
X78278000Y-129010000D01*
X78278000Y-127130000D01*
G37*
%TO.C,U27*%
X75888000Y-151920000D02*
X77688000Y-151920000D01*
X77688000Y-154280000D01*
X75888000Y-154280000D01*
X75888000Y-151920000D01*
G36*
X75888000Y-151920000D02*
G01*
X77688000Y-151920000D01*
X77688000Y-154280000D01*
X75888000Y-154280000D01*
X75888000Y-151920000D01*
G37*
X75908000Y-149110000D02*
X77708000Y-149110000D01*
X77708000Y-151470000D01*
X75908000Y-151470000D01*
X75908000Y-149110000D01*
G36*
X75908000Y-149110000D02*
G01*
X77708000Y-149110000D01*
X77708000Y-151470000D01*
X75908000Y-151470000D01*
X75908000Y-149110000D01*
G37*
X75908000Y-154870000D02*
X77688000Y-154870000D01*
X77688000Y-156740000D01*
X75908000Y-156740000D01*
X75908000Y-154870000D01*
G36*
X75908000Y-154870000D02*
G01*
X77688000Y-154870000D01*
X77688000Y-156740000D01*
X75908000Y-156740000D01*
X75908000Y-154870000D01*
G37*
X78258000Y-149110000D02*
X80058000Y-149110000D01*
X80058000Y-151470000D01*
X78258000Y-151470000D01*
X78258000Y-149110000D01*
G36*
X78258000Y-149110000D02*
G01*
X80058000Y-149110000D01*
X80058000Y-151470000D01*
X78258000Y-151470000D01*
X78258000Y-149110000D01*
G37*
X78258000Y-151930000D02*
X80058000Y-151930000D01*
X80058000Y-154290000D01*
X78258000Y-154290000D01*
X78258000Y-151930000D01*
G36*
X78258000Y-151930000D02*
G01*
X80058000Y-151930000D01*
X80058000Y-154290000D01*
X78258000Y-154290000D01*
X78258000Y-151930000D01*
G37*
X78278000Y-154860000D02*
X80058000Y-154860000D01*
X80058000Y-156740000D01*
X78278000Y-156740000D01*
X78278000Y-154860000D01*
G36*
X78278000Y-154860000D02*
G01*
X80058000Y-154860000D01*
X80058000Y-156740000D01*
X78278000Y-156740000D01*
X78278000Y-154860000D01*
G37*
%TD*%
D13*
%TO.C,D1*%
X64145000Y-61210000D03*
X65370000Y-61210000D03*
%TD*%
D14*
%TO.C,J4*%
X129900000Y-57360000D03*
X130916000Y-62440000D03*
X128884000Y-62440000D03*
D15*
X129265000Y-58630000D03*
X130535000Y-58630000D03*
X129265000Y-59900000D03*
X130535000Y-59900000D03*
X129265000Y-61170000D03*
X130535000Y-61170000D03*
%TD*%
D16*
%TO.C,TP5*%
X80900000Y-71950000D03*
%TD*%
D17*
%TO.C,R18*%
X88850000Y-54430000D03*
X88850000Y-53410000D03*
%TD*%
D18*
%TO.C,H1*%
X51250000Y-49500000D03*
X51909010Y-47909010D03*
X51909010Y-51090990D03*
X53500000Y-47250000D03*
D19*
X53500000Y-49500000D03*
D18*
X53500000Y-51750000D03*
X55090990Y-47909010D03*
X55090990Y-51090990D03*
X55750000Y-49500000D03*
%TD*%
D20*
%TO.C,Y1*%
X101300000Y-56777600D03*
X101300000Y-59622400D03*
%TD*%
D21*
%TO.C,J1*%
X65500000Y-54864000D03*
X65500000Y-49784000D03*
%TD*%
D22*
%TO.C,J8*%
X84780000Y-58489999D03*
D23*
X79700000Y-60650000D03*
X82240000Y-60650000D03*
X84780000Y-60650000D03*
X87320000Y-60650000D03*
%TD*%
D24*
%TO.C,H13*%
X92250000Y-97000000D03*
%TD*%
D18*
%TO.C,TP1*%
X54700000Y-67950000D03*
%TD*%
D25*
%TO.C,C23*%
X56475000Y-77300000D03*
X56475000Y-79200000D03*
%TD*%
D26*
%TO.C,R25*%
X88560000Y-67725000D03*
X87540000Y-67725000D03*
%TD*%
D27*
%TO.C,SW2*%
X81650000Y-46667500D03*
X77950000Y-46667500D03*
D28*
X81030000Y-48867500D03*
X78570000Y-48867500D03*
D29*
X79800000Y-48767500D03*
%TD*%
D18*
%TO.C,H4*%
X128750000Y-172000000D03*
X129409010Y-170409010D03*
X129409010Y-173590990D03*
X131000000Y-169750000D03*
D19*
X131000000Y-172000000D03*
D18*
X131000000Y-174250000D03*
X132590990Y-170409010D03*
X132590990Y-173590990D03*
X133250000Y-172000000D03*
%TD*%
D30*
%TO.C,FID3*%
X53340000Y-54356000D03*
%TD*%
D31*
%TO.C,L2*%
X71400000Y-76925000D03*
X71400000Y-70275000D03*
%TD*%
D32*
%TO.C,C13*%
X55500000Y-64225000D03*
X54540000Y-64225000D03*
%TD*%
D33*
%TO.C,C5*%
X53225000Y-79000000D03*
X54775000Y-79000000D03*
%TD*%
D32*
%TO.C,C36*%
X99380000Y-56800000D03*
X98420000Y-56800000D03*
%TD*%
D34*
%TO.C,C10*%
X68828000Y-63650000D03*
X74428000Y-63650000D03*
%TD*%
D24*
%TO.C,H15*%
X92250000Y-153000000D03*
%TD*%
D35*
%TO.C,J6*%
X121760000Y-69500000D03*
D36*
X119220000Y-69500000D03*
X116680000Y-69500000D03*
X114140000Y-69500000D03*
X111600000Y-69500000D03*
X109060000Y-69500000D03*
%TD*%
D37*
%TO.C,U12*%
X80894000Y-100500000D03*
X80894000Y-99998000D03*
X80894000Y-99496000D03*
X80894000Y-98994000D03*
X80894000Y-98492000D03*
X80894000Y-97990000D03*
X80894000Y-97488000D03*
X80894000Y-96986000D03*
X80894000Y-96484000D03*
X80894000Y-95982000D03*
X80894000Y-95480000D03*
X80894000Y-94978000D03*
X80894000Y-94476000D03*
X80894000Y-93974000D03*
X80894000Y-93472000D03*
X75062000Y-93472000D03*
X75062000Y-93974000D03*
X75062000Y-94476000D03*
X75062000Y-94978000D03*
X75062000Y-95480000D03*
X75062000Y-95982000D03*
X75062000Y-96484000D03*
X75062000Y-96986000D03*
X75062000Y-97488000D03*
X75062000Y-97990000D03*
X75062000Y-98492000D03*
X75062000Y-98994000D03*
X75062000Y-99496000D03*
X75062000Y-99998000D03*
X75062000Y-100500000D03*
%TD*%
D38*
%TO.C,R8*%
X55545000Y-61990000D03*
X55545000Y-63010000D03*
%TD*%
D22*
%TO.C,J9*%
X89990000Y-70214999D03*
D23*
X84910000Y-72375000D03*
X87450000Y-72375000D03*
X89990000Y-72375000D03*
X92530000Y-72375000D03*
%TD*%
D39*
%TO.C,C40*%
X88900000Y-173180000D03*
X88900000Y-172220000D03*
%TD*%
D24*
%TO.C,H14*%
X92250000Y-125000000D03*
%TD*%
D16*
%TO.C,TP6*%
X82296000Y-67818000D03*
%TD*%
D24*
%TO.C,H10*%
X122500000Y-125000000D03*
%TD*%
D40*
%TO.C,C27*%
X79500000Y-69850000D03*
X79500000Y-66900000D03*
%TD*%
D41*
%TO.C,C2*%
X61845000Y-68000000D03*
X62805000Y-68000000D03*
%TD*%
D24*
%TO.C,H9*%
X62000000Y-125000000D03*
%TD*%
D30*
%TO.C,FID1*%
X132842000Y-54050000D03*
%TD*%
D42*
%TO.C,U9*%
X95900000Y-67675000D03*
X95900000Y-67175000D03*
X95900000Y-66675000D03*
X95900000Y-66175000D03*
X95900000Y-65675000D03*
X91500000Y-65675000D03*
X91500000Y-66175000D03*
X91500000Y-66675000D03*
X91500000Y-67175000D03*
X91500000Y-67675000D03*
%TD*%
D32*
%TO.C,C37*%
X99380000Y-59600000D03*
X98420000Y-59600000D03*
%TD*%
D26*
%TO.C,R9*%
X55555000Y-65500000D03*
X54535000Y-65500000D03*
%TD*%
D38*
%TO.C,R13*%
X56725000Y-63890000D03*
X56725000Y-64910000D03*
%TD*%
D43*
%TO.C,U3*%
X55650000Y-74250000D03*
X56150000Y-74250000D03*
X56650000Y-74250000D03*
X57150000Y-74250000D03*
X57650000Y-74250000D03*
X58150000Y-74250000D03*
X58650000Y-74250000D03*
X59150000Y-74250000D03*
X59650000Y-74250000D03*
X60150000Y-74250000D03*
X60650000Y-74250000D03*
X61150000Y-74250000D03*
D44*
X61900000Y-73500000D03*
X61900000Y-73000000D03*
X61900000Y-72500000D03*
X61900000Y-72000000D03*
X61900000Y-71500000D03*
X61900000Y-71000000D03*
X61900000Y-70500000D03*
X61900000Y-70000000D03*
D43*
X61150000Y-69250000D03*
X60650000Y-69250000D03*
X60150000Y-69250000D03*
X59650000Y-69250000D03*
X59150000Y-69250000D03*
X58650000Y-69250000D03*
X58150000Y-69250000D03*
X57650000Y-69250000D03*
X57150000Y-69250000D03*
X56650000Y-69250000D03*
X56150000Y-69250000D03*
X55650000Y-69250000D03*
D44*
X54900000Y-70000000D03*
X54900000Y-70500000D03*
X54900000Y-71000000D03*
X54900000Y-71500000D03*
X54900000Y-72000000D03*
X54900000Y-72500000D03*
X54900000Y-73000000D03*
X54900000Y-73500000D03*
D45*
X57000000Y-73030000D03*
X58400000Y-73030000D03*
X59800000Y-73030000D03*
X56000000Y-71750000D03*
X57000000Y-71750000D03*
X58400000Y-71750000D03*
D46*
X58400000Y-71750000D03*
D45*
X59800000Y-71750000D03*
X60800000Y-71750000D03*
X57000000Y-70470000D03*
X58400000Y-70470000D03*
X59800000Y-70470000D03*
%TD*%
D30*
%TO.C,FID7*%
X58725000Y-173825000D03*
%TD*%
D41*
%TO.C,C16*%
X61845000Y-66825000D03*
X62805000Y-66825000D03*
%TD*%
D47*
%TO.C,U7*%
X83500100Y-54899999D03*
X83500100Y-54400000D03*
X83500100Y-53900001D03*
X81899900Y-53900001D03*
X81899900Y-54400000D03*
X81899900Y-54899999D03*
%TD*%
D24*
%TO.C,H12*%
X122500000Y-153000000D03*
%TD*%
D25*
%TO.C,C22*%
X58575000Y-77300000D03*
X58575000Y-79200000D03*
%TD*%
D24*
%TO.C,H8*%
X122500000Y-97000000D03*
%TD*%
D37*
%TO.C,U18*%
X110998000Y-128724000D03*
X110998000Y-128222000D03*
X110998000Y-127720000D03*
X110998000Y-127218000D03*
X110998000Y-126716000D03*
X110998000Y-126214000D03*
X110998000Y-125712000D03*
X110998000Y-125210000D03*
X110998000Y-124708000D03*
X110998000Y-124206000D03*
X110998000Y-123704000D03*
X110998000Y-123202000D03*
X110998000Y-122700000D03*
X110998000Y-122198000D03*
X110998000Y-121696000D03*
X105166000Y-121696000D03*
X105166000Y-122198000D03*
X105166000Y-122700000D03*
X105166000Y-123202000D03*
X105166000Y-123704000D03*
X105166000Y-124206000D03*
X105166000Y-124708000D03*
X105166000Y-125210000D03*
X105166000Y-125712000D03*
X105166000Y-126214000D03*
X105166000Y-126716000D03*
X105166000Y-127218000D03*
X105166000Y-127720000D03*
X105166000Y-128222000D03*
X105166000Y-128724000D03*
%TD*%
D24*
%TO.C,H7*%
X62000000Y-97000000D03*
%TD*%
D35*
%TO.C,J5*%
X125800000Y-55200000D03*
D36*
X125800000Y-57740000D03*
X125800000Y-60280000D03*
X125800000Y-62820000D03*
%TD*%
D48*
%TO.C,U6*%
X104350000Y-47780000D03*
X104350000Y-49050000D03*
X104350000Y-50320000D03*
X104350000Y-51590000D03*
X104350000Y-52860000D03*
X104350000Y-54130000D03*
X104350000Y-55400000D03*
X104350000Y-56670000D03*
X104350000Y-57940000D03*
X104350000Y-59210000D03*
X104350000Y-60480000D03*
X104350000Y-61750000D03*
X104350000Y-63020000D03*
X104350000Y-64290000D03*
D49*
X106115000Y-65540000D03*
X107385000Y-65540000D03*
X108655000Y-65540000D03*
X109925000Y-65540000D03*
X111195000Y-65540000D03*
X112465000Y-65540000D03*
X113735000Y-65540000D03*
X115005000Y-65540000D03*
X116275000Y-65540000D03*
X117545000Y-65540000D03*
X118815000Y-65540000D03*
X120085000Y-65540000D03*
D48*
X121850000Y-64290000D03*
X121850000Y-63020000D03*
X121850000Y-61750000D03*
X121850000Y-60480000D03*
X121850000Y-59210000D03*
X121850000Y-57940000D03*
X121850000Y-56670000D03*
X121850000Y-55400000D03*
X121850000Y-54130000D03*
X121850000Y-52860000D03*
X121850000Y-51590000D03*
X121850000Y-50320000D03*
X121850000Y-49050000D03*
X121850000Y-47780000D03*
D50*
X110200000Y-54100000D03*
X110200000Y-55500000D03*
X110200000Y-56900000D03*
X111600000Y-54100000D03*
X111600000Y-55500000D03*
X111600000Y-56900000D03*
X113000000Y-54100000D03*
X113000000Y-55500000D03*
X113000000Y-56900000D03*
%TD*%
D51*
%TO.C,C9*%
X66125000Y-58300000D03*
X69075000Y-58300000D03*
%TD*%
D37*
%TO.C,U28*%
X110998000Y-100500000D03*
X110998000Y-99998000D03*
X110998000Y-99496000D03*
X110998000Y-98994000D03*
X110998000Y-98492000D03*
X110998000Y-97990000D03*
X110998000Y-97488000D03*
X110998000Y-96986000D03*
X110998000Y-96484000D03*
X110998000Y-95982000D03*
X110998000Y-95480000D03*
X110998000Y-94978000D03*
X110998000Y-94476000D03*
X110998000Y-93974000D03*
X110998000Y-93472000D03*
X105166000Y-93472000D03*
X105166000Y-93974000D03*
X105166000Y-94476000D03*
X105166000Y-94978000D03*
X105166000Y-95480000D03*
X105166000Y-95982000D03*
X105166000Y-96484000D03*
X105166000Y-96986000D03*
X105166000Y-97488000D03*
X105166000Y-97990000D03*
X105166000Y-98492000D03*
X105166000Y-98994000D03*
X105166000Y-99496000D03*
X105166000Y-99998000D03*
X105166000Y-100500000D03*
%TD*%
D30*
%TO.C,FID5*%
X125984000Y-173228000D03*
%TD*%
D37*
%TO.C,U25*%
X110998000Y-156454000D03*
X110998000Y-155952000D03*
X110998000Y-155450000D03*
X110998000Y-154948000D03*
X110998000Y-154446000D03*
X110998000Y-153944000D03*
X110998000Y-153442000D03*
X110998000Y-152940000D03*
X110998000Y-152438000D03*
X110998000Y-151936000D03*
X110998000Y-151434000D03*
X110998000Y-150932000D03*
X110998000Y-150430000D03*
X110998000Y-149928000D03*
X110998000Y-149426000D03*
X105166000Y-149426000D03*
X105166000Y-149928000D03*
X105166000Y-150430000D03*
X105166000Y-150932000D03*
X105166000Y-151434000D03*
X105166000Y-151936000D03*
X105166000Y-152438000D03*
X105166000Y-152940000D03*
X105166000Y-153442000D03*
X105166000Y-153944000D03*
X105166000Y-154446000D03*
X105166000Y-154948000D03*
X105166000Y-155450000D03*
X105166000Y-155952000D03*
X105166000Y-156454000D03*
%TD*%
D52*
%TO.C,C32*%
X90300000Y-53440000D03*
X90300000Y-54400000D03*
%TD*%
D18*
%TO.C,H5*%
X51250000Y-110750000D03*
X51909010Y-109159010D03*
X51909010Y-112340990D03*
X53500000Y-108500000D03*
D19*
X53500000Y-110750000D03*
D18*
X53500000Y-113000000D03*
X55090990Y-109159010D03*
X55090990Y-112340990D03*
X55750000Y-110750000D03*
%TD*%
D37*
%TO.C,U13*%
X80894000Y-128724000D03*
X80894000Y-128222000D03*
X80894000Y-127720000D03*
X80894000Y-127218000D03*
X80894000Y-126716000D03*
X80894000Y-126214000D03*
X80894000Y-125712000D03*
X80894000Y-125210000D03*
X80894000Y-124708000D03*
X80894000Y-124206000D03*
X80894000Y-123704000D03*
X80894000Y-123202000D03*
X80894000Y-122700000D03*
X80894000Y-122198000D03*
X80894000Y-121696000D03*
X75062000Y-121696000D03*
X75062000Y-122198000D03*
X75062000Y-122700000D03*
X75062000Y-123202000D03*
X75062000Y-123704000D03*
X75062000Y-124206000D03*
X75062000Y-124708000D03*
X75062000Y-125210000D03*
X75062000Y-125712000D03*
X75062000Y-126214000D03*
X75062000Y-126716000D03*
X75062000Y-127218000D03*
X75062000Y-127720000D03*
X75062000Y-128222000D03*
X75062000Y-128724000D03*
%TD*%
D53*
%TO.C,J7*%
X99560000Y-52300000D03*
X93780000Y-52300000D03*
D54*
X99870000Y-53420000D03*
X99070000Y-53420000D03*
D55*
X97920000Y-53375000D03*
X96920000Y-53375000D03*
X96420000Y-53375000D03*
X95420000Y-53375000D03*
D54*
X94270000Y-53420000D03*
X93470000Y-53420000D03*
X93470000Y-53420000D03*
X94270000Y-53420000D03*
D55*
X94920000Y-53375000D03*
X95920000Y-53375000D03*
X97420000Y-53375000D03*
X98420000Y-53375000D03*
D54*
X99070000Y-53420000D03*
X99870000Y-53420000D03*
D56*
X100990000Y-52800000D03*
D57*
X100990000Y-48620000D03*
D56*
X92350000Y-52800000D03*
D57*
X92350000Y-48620000D03*
%TD*%
D58*
%TO.C,R17*%
X103090000Y-67225000D03*
X104110000Y-67225000D03*
%TD*%
D59*
%TO.C,R14*%
X60387500Y-78750000D03*
X63312500Y-78750000D03*
%TD*%
D27*
%TO.C,SW1*%
X89200000Y-46667500D03*
X85500000Y-46667500D03*
D28*
X88580000Y-48867500D03*
X86120000Y-48867500D03*
D29*
X87350000Y-48767500D03*
%TD*%
D18*
%TO.C,H2*%
X128750000Y-49500000D03*
X129409010Y-47909010D03*
X129409010Y-51090990D03*
X131000000Y-47250000D03*
D19*
X131000000Y-49500000D03*
D18*
X131000000Y-51750000D03*
X132590990Y-47909010D03*
X132590990Y-51090990D03*
X133250000Y-49500000D03*
%TD*%
%TO.C,H3*%
X51250000Y-172000000D03*
X51909010Y-170409010D03*
X51909010Y-173590990D03*
X53500000Y-169750000D03*
D19*
X53500000Y-172000000D03*
D18*
X53500000Y-174250000D03*
X55090990Y-170409010D03*
X55090990Y-173590990D03*
X55750000Y-172000000D03*
%TD*%
D52*
%TO.C,C24*%
X53025000Y-69795000D03*
X53025000Y-70755000D03*
%TD*%
D24*
%TO.C,H11*%
X62000000Y-153000000D03*
%TD*%
D52*
%TO.C,C38*%
X95600000Y-69120000D03*
X95600000Y-70080000D03*
%TD*%
D18*
%TO.C,H6*%
X128750000Y-110750000D03*
X129409010Y-109159010D03*
X129409010Y-112340990D03*
X131000000Y-108500000D03*
D19*
X131000000Y-110750000D03*
D18*
X131000000Y-113000000D03*
X132590990Y-109159010D03*
X132590990Y-112340990D03*
X133250000Y-110750000D03*
%TD*%
D60*
%TO.C,C14*%
X62125000Y-65275000D03*
X64025000Y-65275000D03*
%TD*%
D37*
%TO.C,U27*%
X80894000Y-156454000D03*
X80894000Y-155952000D03*
X80894000Y-155450000D03*
X80894000Y-154948000D03*
X80894000Y-154446000D03*
X80894000Y-153944000D03*
X80894000Y-153442000D03*
X80894000Y-152940000D03*
X80894000Y-152438000D03*
X80894000Y-151936000D03*
X80894000Y-151434000D03*
X80894000Y-150932000D03*
X80894000Y-150430000D03*
X80894000Y-149928000D03*
X80894000Y-149426000D03*
X75062000Y-149426000D03*
X75062000Y-149928000D03*
X75062000Y-150430000D03*
X75062000Y-150932000D03*
X75062000Y-151434000D03*
X75062000Y-151936000D03*
X75062000Y-152438000D03*
X75062000Y-152940000D03*
X75062000Y-153442000D03*
X75062000Y-153944000D03*
X75062000Y-154446000D03*
X75062000Y-154948000D03*
X75062000Y-155450000D03*
X75062000Y-155952000D03*
X75062000Y-156454000D03*
%TD*%
D47*
%TO.C,U8*%
X92400900Y-173699999D03*
X92400900Y-173200000D03*
X92400900Y-172700001D03*
X90800700Y-172700001D03*
X90800700Y-173200000D03*
X90800700Y-173699999D03*
%TD*%
D16*
%TO.C,TP32*%
X93300000Y-56750000D03*
%TD*%
D21*
%TO.C,J2*%
X72644000Y-54864000D03*
X72644000Y-49784000D03*
%TD*%
D26*
%TO.C,R24*%
X88535000Y-66125000D03*
X87515000Y-66125000D03*
%TD*%
D35*
%TO.C,J3*%
X54450000Y-98970000D03*
D36*
X56990000Y-98970000D03*
X54450000Y-96430000D03*
X56990000Y-96430000D03*
X54450000Y-93890000D03*
X56990000Y-93890000D03*
X54450000Y-91350000D03*
X56990000Y-91350000D03*
X54450000Y-88810000D03*
X56990000Y-88810000D03*
%TD*%
M02*
